<svg width="194" height="52" viewBox="0 0 194 52" fill="none" xmlns="http://www.w3.org/2000/svg">
<rect x="11" y="3" width="46.0002" height="46.0002" rx="4.3969" fill="white"/>
<path d="M22.7692 33.2884V27.2427H39.2576V33.2884H22.7692Z" fill="#098ECB"/>
<path d="M52.7231 15.426C52.7231 17.8543 50.7545 19.8229 48.3262 19.8229C45.8979 19.8229 43.9293 17.8543 43.9293 15.426C43.9293 12.9977 45.8979 11.0291 48.3262 11.0291C50.7545 11.0291 52.7231 12.9977 52.7231 15.426Z" fill="#F58220"/>
<path d="M28.8149 22.0213C28.8149 22.0213 29.0897 17.8992 34.8607 17.3496C40.6316 16.8 43.9293 23.1206 49.1506 22.571C54.3719 22.0213 54.6467 16.5252 54.6467 16.5252C54.6467 16.5252 56.6237 22.1437 56.5704 25.8686C56.4708 32.8312 54.2347 37.324 49.1506 42.0822C44.4794 46.454 40.4312 48.2109 34.0363 48.4028C30.1022 48.5208 24.1432 46.4791 24.1432 46.4791C24.1432 46.4791 33.0095 46.2216 37.0591 42.9066C41.0702 39.6232 43.2588 36.2713 43.1049 31.09C42.943 25.6434 39.5324 20.3725 35.6851 19.2733C32.9066 18.4794 28.8149 22.0213 28.8149 22.0213Z" fill="#098ECB"/>
<path d="M12.0518 30.5403C12.0518 18.7237 22.4944 12.4031 22.4944 12.4031C22.4944 12.4031 25.7513 10.1433 27.4409 8.28103C29.1011 6.45125 31.0134 3.05971 31.0134 3.05971C31.0134 3.05971 32.6622 3.05971 32.937 7.1818C33.2118 11.3039 23.044 21.7465 23.044 21.7465C23.044 21.7465 18.9219 28.0671 20.2959 33.5632C21.67 39.0593 27.4409 41.2578 27.4409 41.2578C34.7458 42.2044 38.2108 42.295 41.8011 37.4105C41.8011 37.4105 39.277 41.1046 36.7843 43.1814C33.024 46.3145 25.7921 46.4791 24.6928 46.4791C23.5936 46.4791 12.0518 42.357 12.0518 30.5403Z" fill="#F58220"/>
<path d="M82.9085 28.1941H85.3806C85.3147 29.069 85.072 29.8451 84.6525 30.5223C84.233 31.1935 83.6486 31.7209 82.8995 32.1045C82.1504 32.488 81.2425 32.6798 80.1757 32.6798C79.3547 32.6798 78.6146 32.536 77.9553 32.2483C77.3021 31.9546 76.7418 31.5381 76.2743 30.9988C75.8129 30.4534 75.4593 29.8002 75.2136 29.0391C74.9679 28.272 74.845 27.412 74.845 26.4591V25.4613C74.845 24.5084 74.9709 23.6484 75.2226 22.8813C75.4743 22.1142 75.8338 21.461 76.3013 20.9216C76.7747 20.3763 77.3411 19.9568 78.0003 19.6631C78.6655 19.3695 79.4086 19.2226 80.2297 19.2226C81.2964 19.2226 82.1983 19.4204 82.9355 19.8159C83.6726 20.2055 84.2449 20.7418 84.6525 21.425C85.06 22.1082 85.3057 22.8933 85.3896 23.7803H82.9175C82.8696 23.2289 82.7497 22.7615 82.5579 22.3779C82.3721 21.9944 82.0905 21.7037 81.7129 21.5059C81.3414 21.3022 80.8469 21.2003 80.2297 21.2003C79.7502 21.2003 79.3277 21.2902 78.9622 21.47C78.6026 21.6498 78.3029 21.9195 78.0632 22.279C77.8235 22.6326 77.6437 23.0761 77.5239 23.6095C77.404 24.1368 77.3441 24.7481 77.3441 25.4433V26.4591C77.3441 27.1243 77.398 27.7206 77.5059 28.248C77.6137 28.7754 77.7815 29.2219 78.0093 29.5874C78.237 29.953 78.5307 30.2317 78.8902 30.4234C79.2498 30.6152 79.6783 30.7111 80.1757 30.7111C80.781 30.7111 81.2724 30.6152 81.65 30.4234C82.0335 30.2317 82.3242 29.95 82.522 29.5784C82.7257 29.2069 82.8546 28.7454 82.9085 28.1941ZM92.3114 26.6659H88.9674L88.9494 24.9219H91.817C92.3084 24.9219 92.719 24.853 93.0486 24.7152C93.3782 24.5773 93.6269 24.3766 93.7947 24.1129C93.9685 23.8492 94.0554 23.5286 94.0554 23.151C94.0554 22.7315 93.9745 22.3899 93.8127 22.1262C93.6569 21.8625 93.4112 21.6707 93.0755 21.5509C92.7399 21.425 92.3144 21.3621 91.799 21.3621H89.7674V32.5H87.2954V19.4114H91.799C92.5422 19.4114 93.2044 19.4833 93.7857 19.6272C94.373 19.765 94.8704 19.9807 95.278 20.2744C95.6855 20.568 95.9941 20.9366 96.2039 21.3801C96.4196 21.8236 96.5275 22.3509 96.5275 22.9622C96.5275 23.5016 96.4016 23.999 96.1499 24.4545C95.9042 24.9039 95.5237 25.2695 95.0083 25.5512C94.4989 25.8328 93.8516 25.9947 93.0666 26.0366L92.3114 26.6659ZM92.2036 32.5H88.2392L89.273 30.5583H92.2036C92.695 30.5583 93.0995 30.4774 93.4171 30.3156C93.7408 30.1538 93.9805 29.932 94.1363 29.6504C94.2981 29.3627 94.379 29.0331 94.379 28.6615C94.379 28.254 94.3071 27.9004 94.1633 27.6008C94.0254 27.3011 93.8037 27.0704 93.498 26.9086C93.1984 26.7468 92.8029 26.6659 92.3114 26.6659H89.7405L89.7585 24.9219H93.0306L93.5969 25.5961C94.352 25.6021 94.9663 25.7519 95.4398 26.0456C95.9192 26.3393 96.2728 26.7168 96.5005 27.1783C96.7282 27.6397 96.8421 28.1371 96.8421 28.6705C96.8421 29.5095 96.6593 30.2137 96.2938 30.783C95.9342 31.3524 95.4068 31.7808 94.7116 32.0685C94.0224 32.3562 93.1864 32.5 92.2036 32.5ZM98.9816 19.4114H103.737C104.732 19.4114 105.586 19.5612 106.299 19.8609C107.012 20.1605 107.56 20.604 107.944 21.1913C108.328 21.7786 108.519 22.5008 108.519 23.3578C108.519 24.035 108.4 24.6223 108.16 25.1197C107.92 25.6171 107.581 26.0336 107.144 26.3692C106.712 26.7048 106.203 26.9685 105.616 27.1603L104.843 27.5558H100.645L100.627 25.6051H103.764C104.273 25.6051 104.696 25.5152 105.031 25.3354C105.367 25.1556 105.619 24.9069 105.787 24.5893C105.96 24.2717 106.047 23.9091 106.047 23.5016C106.047 23.0641 105.963 22.6866 105.796 22.3689C105.628 22.0453 105.373 21.7966 105.031 21.6228C104.69 21.449 104.258 21.3621 103.737 21.3621H101.454V32.5H98.9816V19.4114ZM106.371 32.5L103.341 26.6389L105.957 26.6299L109.023 32.3741V32.5H106.371ZM123.954 24.814V26.7558H117.068V24.814H123.954ZM117.743 19.4114V32.5H115.27V19.4114H117.743ZM125.788 19.4114V32.5H123.316V19.4114H125.788ZM127.703 27.7356V27.5468C127.703 26.8337 127.805 26.1774 128.008 25.5781C128.212 24.9729 128.509 24.4485 128.898 24.005C129.288 23.5615 129.764 23.2169 130.328 22.9712C130.891 22.7195 131.532 22.5937 132.251 22.5937C132.983 22.5937 133.63 22.7195 134.193 22.9712C134.762 23.2169 135.242 23.5615 135.631 24.005C136.021 24.4485 136.318 24.9729 136.521 25.5781C136.725 26.1774 136.827 26.8337 136.827 27.5468V27.7356C136.827 28.4428 136.725 29.099 136.521 29.7043C136.318 30.3036 136.021 30.828 135.631 31.2774C135.242 31.7209 134.765 32.0655 134.202 32.3112C133.639 32.5569 132.995 32.6798 132.269 32.6798C131.55 32.6798 130.906 32.5569 130.337 32.3112C129.767 32.0655 129.288 31.7209 128.898 31.2774C128.509 30.828 128.212 30.3036 128.008 29.7043C127.805 29.099 127.703 28.4428 127.703 27.7356ZM130.076 27.5468V27.7356C130.076 28.1611 130.118 28.5596 130.202 28.9312C130.286 29.3028 130.415 29.6294 130.588 29.911C130.762 30.1927 130.987 30.4145 131.263 30.5763C131.544 30.7321 131.88 30.81 132.269 30.81C132.653 30.81 132.983 30.7321 133.258 30.5763C133.534 30.4145 133.759 30.1927 133.932 29.911C134.112 29.6294 134.244 29.3028 134.328 28.9312C134.412 28.5596 134.454 28.1611 134.454 27.7356V27.5468C134.454 27.1273 134.412 26.7348 134.328 26.3692C134.244 25.9977 134.112 25.671 133.932 25.3894C133.759 25.1017 133.531 24.877 133.249 24.7152C132.974 24.5474 132.641 24.4635 132.251 24.4635C131.868 24.4635 131.538 24.5474 131.263 24.7152C130.987 24.877 130.762 25.1017 130.588 25.3894C130.415 25.671 130.286 25.9977 130.202 26.3692C130.118 26.7348 130.076 27.1273 130.076 27.5468ZM143.902 29.8391C143.902 29.6354 143.848 29.4526 143.74 29.2908C143.632 29.129 143.428 28.9821 143.129 28.8503C142.835 28.7125 142.403 28.5836 141.834 28.4638C141.331 28.3559 140.866 28.221 140.441 28.0592C140.015 27.8974 139.65 27.7026 139.344 27.4749C139.038 27.2412 138.799 26.9685 138.625 26.6569C138.457 26.3393 138.373 25.9737 138.373 25.5602C138.373 25.1586 138.46 24.7811 138.634 24.4275C138.808 24.0679 139.059 23.7533 139.389 23.4836C139.719 23.2079 140.12 22.9922 140.594 22.8364C141.067 22.6746 141.6 22.5937 142.194 22.5937C143.021 22.5937 143.731 22.7285 144.324 22.9982C144.924 23.2679 145.382 23.6394 145.7 24.1129C146.017 24.5803 146.176 25.1077 146.176 25.695H143.803C143.803 25.4373 143.743 25.2036 143.623 24.9938C143.509 24.7841 143.332 24.6163 143.093 24.4904C142.853 24.3586 142.55 24.2927 142.185 24.2927C141.855 24.2927 141.576 24.3466 141.349 24.4545C141.127 24.5623 140.959 24.7032 140.845 24.877C140.731 25.0508 140.675 25.2425 140.675 25.4523C140.675 25.6081 140.704 25.7489 140.764 25.8748C140.83 25.9947 140.935 26.1055 141.079 26.2074C141.223 26.3093 141.418 26.4022 141.663 26.4861C141.915 26.57 142.224 26.6509 142.589 26.7288C143.314 26.8726 143.947 27.0644 144.486 27.3041C145.031 27.5378 145.457 27.8495 145.763 28.239C146.068 28.6286 146.221 29.126 146.221 29.7313C146.221 30.1628 146.128 30.5583 145.942 30.9179C145.757 31.2714 145.487 31.5801 145.133 31.8438C144.78 32.1075 144.357 32.3142 143.866 32.464C143.374 32.6079 142.82 32.6798 142.203 32.6798C141.31 32.6798 140.555 32.521 139.937 32.2033C139.32 31.8797 138.853 31.4722 138.535 30.9808C138.217 30.4834 138.059 29.968 138.059 29.4346H140.333C140.351 29.8122 140.453 30.1148 140.639 30.3425C140.824 30.5703 141.058 30.7351 141.34 30.837C141.627 30.9328 141.93 30.9808 142.248 30.9808C142.607 30.9808 142.91 30.9328 143.156 30.837C143.401 30.7351 143.587 30.6002 143.713 30.4324C143.839 30.2586 143.902 30.0609 143.902 29.8391ZM150.401 24.6432V36.2396H148.019V22.7734H150.221L150.401 24.6432ZM156.649 27.5378V27.7266C156.649 28.4338 156.565 29.09 156.397 29.6953C156.235 30.2946 155.995 30.819 155.678 31.2684C155.36 31.7119 154.965 32.0595 154.491 32.3112C154.024 32.5569 153.484 32.6798 152.873 32.6798C152.274 32.6798 151.752 32.5659 151.309 32.3382C150.866 32.1045 150.491 31.7749 150.185 31.3494C149.88 30.9239 149.634 30.4294 149.448 29.8661C149.268 29.2968 149.134 28.6765 149.044 28.0053V27.403C149.134 26.6898 149.268 26.0426 149.448 25.4613C149.634 24.874 149.88 24.3676 150.185 23.9421C150.491 23.5106 150.863 23.178 151.3 22.9442C151.743 22.7105 152.262 22.5937 152.855 22.5937C153.472 22.5937 154.015 22.7105 154.482 22.9442C154.956 23.178 155.354 23.5136 155.678 23.9511C156.001 24.3885 156.244 24.9099 156.406 25.5152C156.568 26.1205 156.649 26.7947 156.649 27.5378ZM154.267 27.7266V27.5378C154.267 27.1063 154.228 26.7078 154.15 26.3422C154.072 25.9707 153.952 25.6471 153.79 25.3714C153.628 25.0897 153.419 24.871 153.161 24.7152C152.903 24.5593 152.591 24.4814 152.226 24.4814C151.86 24.4814 151.546 24.5414 151.282 24.6612C151.018 24.7811 150.803 24.9519 150.635 25.1736C150.467 25.3954 150.335 25.6591 150.239 25.9647C150.149 26.2643 150.089 26.5969 150.059 26.9625V28.4548C150.113 28.8982 150.218 29.2968 150.374 29.6504C150.53 30.0039 150.758 30.2856 151.057 30.4954C151.363 30.7051 151.758 30.81 152.244 30.81C152.609 30.81 152.921 30.7291 153.179 30.5673C153.436 30.4055 153.646 30.1837 153.808 29.9021C153.97 29.6144 154.087 29.2848 154.159 28.9132C154.231 28.5417 154.267 28.1461 154.267 27.7266ZM160.901 22.7734V32.5H158.519V22.7734H160.901ZM158.357 20.2294C158.357 19.8759 158.477 19.5822 158.716 19.3485C158.962 19.1148 159.292 18.9979 159.705 18.9979C160.119 18.9979 160.445 19.1148 160.685 19.3485C160.931 19.5822 161.054 19.8759 161.054 20.2294C161.054 20.577 160.931 20.8677 160.685 21.1014C160.445 21.3351 160.119 21.452 159.705 21.452C159.292 21.452 158.962 21.3351 158.716 21.1014C158.477 20.8677 158.357 20.577 158.357 20.2294ZM167.769 22.7734V24.4814H162.195V22.7734H167.769ZM163.687 20.3823H166.07V29.6953C166.07 29.983 166.109 30.2047 166.186 30.3605C166.264 30.5163 166.381 30.6212 166.537 30.6751C166.693 30.7291 166.879 30.7561 167.094 30.7561C167.25 30.7561 167.394 30.7471 167.526 30.7291C167.658 30.7111 167.769 30.6931 167.859 30.6751L167.868 32.4551C167.67 32.521 167.445 32.5749 167.193 32.6169C166.948 32.6588 166.669 32.6798 166.357 32.6798C165.824 32.6798 165.356 32.5899 164.955 32.4101C164.553 32.2243 164.242 31.9277 164.02 31.5202C163.798 31.1066 163.687 30.5613 163.687 29.8841V20.3823ZM174.708 30.4324V25.9467C174.708 25.6171 174.652 25.3324 174.538 25.0927C174.424 24.853 174.25 24.6672 174.016 24.5354C173.783 24.4035 173.486 24.3376 173.126 24.3376C172.809 24.3376 172.53 24.3915 172.29 24.4994C172.057 24.6073 171.877 24.7601 171.751 24.9579C171.625 25.1497 171.562 25.3714 171.562 25.6231H169.18C169.18 25.2216 169.276 24.841 169.468 24.4814C169.659 24.1159 169.932 23.7922 170.286 23.5106C170.645 23.2229 171.074 22.9982 171.571 22.8364C172.075 22.6746 172.638 22.5937 173.261 22.5937C173.998 22.5937 174.655 22.7195 175.23 22.9712C175.811 23.2169 176.267 23.5885 176.596 24.0859C176.932 24.5833 177.1 25.2096 177.1 25.9647V30.2077C177.1 30.6931 177.13 31.1096 177.19 31.4572C177.255 31.7988 177.351 32.0955 177.477 32.3472V32.5H175.059C174.945 32.2543 174.858 31.9427 174.798 31.5651C174.738 31.1816 174.708 30.804 174.708 30.4324ZM175.041 26.576L175.059 27.9873H173.558C173.186 27.9873 172.86 28.0263 172.578 28.1042C172.296 28.1761 172.066 28.284 171.886 28.4278C171.706 28.5656 171.571 28.7334 171.481 28.9312C171.391 29.123 171.346 29.3417 171.346 29.5874C171.346 29.8271 171.4 30.0429 171.508 30.2347C171.622 30.4264 171.784 30.5793 171.994 30.6931C172.209 30.801 172.461 30.8549 172.749 30.8549C173.168 30.8549 173.534 30.771 173.845 30.6032C174.157 30.4294 174.4 30.2197 174.574 29.974C174.747 29.7283 174.84 29.4945 174.852 29.2728L175.535 30.2976C175.452 30.5433 175.326 30.804 175.158 31.0797C174.99 31.3553 174.774 31.613 174.511 31.8528C174.247 32.0925 173.929 32.2902 173.558 32.4461C173.186 32.6019 172.755 32.6798 172.263 32.6798C171.634 32.6798 171.071 32.5539 170.573 32.3022C170.076 32.0505 169.683 31.7059 169.396 31.2684C169.108 30.831 168.964 30.3336 168.964 29.7762C168.964 29.2608 169.06 28.8053 169.252 28.4098C169.444 28.0143 169.728 27.6817 170.106 27.412C170.483 27.1363 170.951 26.9296 171.508 26.7917C172.072 26.6479 172.716 26.576 173.441 26.576H175.041ZM181.756 18.6923V32.5H179.374V18.6923H181.756Z" fill="white"/>
</svg>
