<svg width="201" height="54" viewBox="0 0 201 54" fill="none" xmlns="http://www.w3.org/2000/svg">
<path d="M11.8942 25.3005C13.012 20.782 15.6009 16.7693 19.2486 13.9017C22.8963 11.0341 27.3931 9.47623 32.0229 9.47623C36.6528 9.47623 41.1496 11.0341 44.7973 13.9017C48.4451 16.7693 51.0339 20.782 52.1517 25.3005H50.3336C47.2664 25.2551 44.2622 26.177 41.7426 27.9367C41.5972 28.0426 41.4454 28.1394 41.2881 28.2262H41.076C40.9187 28.1394 40.7669 28.0426 40.6214 27.9367C38.0796 26.2177 35.086 25.2996 32.0229 25.2996C28.9599 25.2996 25.9663 26.2177 23.4245 27.9367C23.279 28.0426 23.1272 28.1394 22.9699 28.2262H22.7578C22.6005 28.1394 22.4487 28.0426 22.3033 27.9367C19.7837 26.177 16.7795 25.2551 13.7123 25.3005H11.8942ZM47.0608 34.8548C47.9942 34.1238 49.151 33.7414 50.3336 33.7729H52.7729V28.8815H50.3336C48.2505 28.8562 46.2152 29.5082 44.5305 30.7405C43.5825 31.4435 42.4357 31.8227 41.2578 31.8227C40.0799 31.8227 38.9331 31.4435 37.9851 30.7405C36.2576 29.5312 34.2034 28.8829 32.0987 28.8829C29.994 28.8829 27.9398 29.5312 26.2123 30.7405C25.2643 31.4435 24.1175 31.8227 22.9396 31.8227C21.7617 31.8227 20.6149 31.4435 19.6669 30.7405C17.9614 29.4924 15.8969 28.8396 13.7881 28.8815H11.2729V33.7729H13.7123C14.8949 33.7414 16.0517 34.1238 16.9851 34.8548C18.7093 36.065 20.7613 36.7139 22.8639 36.7139C24.9664 36.7139 27.0184 36.065 28.7426 34.8548C29.6772 34.1261 30.8331 33.744 32.0154 33.7729C33.1984 33.7388 34.356 34.1216 35.2881 34.8548C37.0155 36.0643 39.0698 36.7125 41.1745 36.7125C43.2792 36.7125 45.3334 36.0643 47.0608 34.8548ZM47.0608 43.6015C47.9942 42.8705 49.151 42.488 50.3336 42.5196H52.7729V37.6282H50.3336C48.2505 37.6029 46.2152 38.2549 44.5305 39.4872C43.5825 40.1901 42.4357 40.5694 41.2578 40.5694C40.0799 40.5694 38.9331 40.1901 37.9851 39.4872C36.2576 38.2779 34.2034 37.6297 32.0987 37.6297C29.994 37.6297 27.9398 38.2779 26.2123 39.4872C25.2643 40.1901 24.1175 40.5694 22.9396 40.5694C21.7617 40.5694 20.6149 40.1901 19.6669 39.4872C17.9614 38.2392 15.8969 37.5862 13.7881 37.6282H11.2729V42.5196H13.7123C14.8949 42.488 16.0517 42.8705 16.9851 43.6015C18.7093 44.8117 20.7613 45.4605 22.8639 45.4605C24.9664 45.4605 27.0184 44.8117 28.7426 43.6015C29.6772 42.8728 30.8331 42.4906 32.0154 42.5196C33.1984 42.4854 34.356 42.8682 35.2881 43.6015C37.0155 44.8109 39.0698 45.4592 41.1745 45.4592C43.2792 45.4592 45.3334 44.8109 47.0608 43.6015Z" fill="#4B5567"/>
<path d="M87.3242 29.1227C87.3242 30.872 86.9296 32.4187 86.1402 33.7627C85.3722 35.0853 84.3269 36.12 83.0042 36.8667C81.7029 37.6133 80.2416 37.9867 78.6202 37.9867C76.9989 37.9867 75.5269 37.6133 74.2042 36.8667C72.9029 36.12 71.8576 35.0853 71.0682 33.7627C70.3002 32.4187 69.9162 30.872 69.9162 29.1227C69.9162 27.3733 70.3002 25.8373 71.0682 24.5147C71.8576 23.1707 72.9029 22.1253 74.2042 21.3787C75.5269 20.6107 76.9989 20.2267 78.6202 20.2267C80.2416 20.2267 81.7029 20.6107 83.0042 21.3787C84.3269 22.1253 85.3722 23.1707 86.1402 24.5147C86.9296 25.8373 87.3242 27.3733 87.3242 29.1227ZM83.4842 29.1227C83.4842 28.0347 83.2602 27.096 82.8122 26.3067C82.3856 25.496 81.7989 24.8667 81.0522 24.4187C80.3269 23.9707 79.5162 23.7467 78.6202 23.7467C77.7242 23.7467 76.9029 23.9707 76.1562 24.4187C75.4309 24.8667 74.8442 25.496 74.3962 26.3067C73.9696 27.096 73.7562 28.0347 73.7562 29.1227C73.7562 30.1893 73.9696 31.128 74.3962 31.9387C74.8442 32.728 75.4309 33.3467 76.1562 33.7947C76.9029 34.2427 77.7242 34.4667 78.6202 34.4667C79.5162 34.4667 80.3269 34.2427 81.0522 33.7947C81.7989 33.3467 82.3856 32.728 82.8122 31.9387C83.2602 31.128 83.4842 30.1893 83.4842 29.1227ZM100.125 13.9867C100.594 13.9867 101.053 14.0507 101.501 14.1787C101.949 14.3067 102.322 14.52 102.621 14.8187C102.92 15.096 103.069 15.4693 103.069 15.9387C103.069 16.472 102.909 16.8987 102.589 17.2187C102.29 17.5173 101.938 17.6667 101.533 17.6667C101.341 17.6667 101.053 17.624 100.669 17.5387C100.285 17.432 99.9116 17.3787 99.549 17.3787C99.0156 17.3787 98.5996 17.496 98.301 17.7307C98.0236 17.9653 97.8316 18.2427 97.725 18.5627C97.6183 18.8613 97.565 19.128 97.565 19.3627V35.7147C97.565 36.2693 97.3836 36.7387 97.021 37.1227C96.6583 37.4853 96.1996 37.6667 95.645 37.6667C95.0903 37.6667 94.6316 37.4853 94.269 37.1227C93.9063 36.7387 93.725 36.2693 93.725 35.7147V19.3947C93.725 17.88 94.2583 16.6 95.325 15.5547C96.3916 14.5093 97.9916 13.9867 100.125 13.9867ZM100.477 20.8667C100.989 20.8667 101.416 21.0373 101.757 21.3787C102.098 21.6987 102.269 22.1147 102.269 22.6267C102.269 23.1387 102.098 23.5653 101.757 23.9067C101.416 24.2267 100.989 24.3867 100.477 24.3867H91.997C91.485 24.3867 91.0583 24.2267 90.717 23.9067C90.3756 23.5653 90.205 23.1387 90.205 22.6267C90.205 22.1147 90.3756 21.6987 90.717 21.3787C91.0583 21.0373 91.485 20.8667 91.997 20.8667H100.477ZM114.109 13.9867C114.578 13.9867 115.037 14.0507 115.485 14.1787C115.933 14.3067 116.306 14.52 116.605 14.8187C116.904 15.096 117.053 15.4693 117.053 15.9387C117.053 16.472 116.893 16.8987 116.573 17.2187C116.274 17.5173 115.922 17.6667 115.517 17.6667C115.325 17.6667 115.037 17.624 114.653 17.5387C114.269 17.432 113.896 17.3787 113.533 17.3787C113 17.3787 112.584 17.496 112.285 17.7307C112.008 17.9653 111.816 18.2427 111.709 18.5627C111.602 18.8613 111.549 19.128 111.549 19.3627V35.7147C111.549 36.2693 111.368 36.7387 111.005 37.1227C110.642 37.4853 110.184 37.6667 109.629 37.6667C109.074 37.6667 108.616 37.4853 108.253 37.1227C107.89 36.7387 107.709 36.2693 107.709 35.7147V19.3947C107.709 17.88 108.242 16.6 109.309 15.5547C110.376 14.5093 111.976 13.9867 114.109 13.9867ZM114.461 20.8667C114.973 20.8667 115.4 21.0373 115.741 21.3787C116.082 21.6987 116.253 22.1147 116.253 22.6267C116.253 23.1387 116.082 23.5653 115.741 23.9067C115.4 24.2267 114.973 24.3867 114.461 24.3867H105.981C105.469 24.3867 105.042 24.2267 104.701 23.9067C104.36 23.5653 104.189 23.1387 104.189 22.6267C104.189 22.1147 104.36 21.6987 104.701 21.3787C105.042 21.0373 105.469 20.8667 105.981 20.8667H114.461ZM128.926 20.2267C130.632 20.2267 131.891 20.6427 132.702 21.4747C133.512 22.2853 134.046 23.3413 134.302 24.6427L133.758 24.3547L134.014 23.8427C134.27 23.352 134.664 22.8293 135.198 22.2747C135.731 21.6987 136.371 21.2187 137.118 20.8347C137.886 20.4293 138.739 20.2267 139.678 20.2267C141.214 20.2267 142.376 20.5573 143.166 21.2187C143.976 21.88 144.531 22.7653 144.83 23.8747C145.128 24.9627 145.278 26.1787 145.278 27.5227V35.7147C145.278 36.2693 145.096 36.7387 144.734 37.1227C144.371 37.4853 143.912 37.6667 143.358 37.6667C142.803 37.6667 142.344 37.4853 141.982 37.1227C141.619 36.7387 141.438 36.2693 141.438 35.7147V27.5227C141.438 26.8187 141.352 26.1893 141.182 25.6347C141.011 25.0587 140.702 24.6 140.254 24.2587C139.806 23.9173 139.166 23.7467 138.334 23.7467C137.523 23.7467 136.83 23.9173 136.254 24.2587C135.678 24.6 135.24 25.0587 134.942 25.6347C134.664 26.1893 134.526 26.8187 134.526 27.5227V35.7147C134.526 36.2693 134.344 36.7387 133.982 37.1227C133.619 37.4853 133.16 37.6667 132.606 37.6667C132.051 37.6667 131.592 37.4853 131.23 37.1227C130.867 36.7387 130.686 36.2693 130.686 35.7147V27.5227C130.686 26.8187 130.6 26.1893 130.43 25.6347C130.259 25.0587 129.95 24.6 129.502 24.2587C129.054 23.9173 128.414 23.7467 127.582 23.7467C126.771 23.7467 126.078 23.9173 125.502 24.2587C124.926 24.6 124.488 25.0587 124.19 25.6347C123.912 26.1893 123.774 26.8187 123.774 27.5227V35.7147C123.774 36.2693 123.592 36.7387 123.23 37.1227C122.867 37.4853 122.408 37.6667 121.854 37.6667C121.299 37.6667 120.84 37.4853 120.478 37.1227C120.115 36.7387 119.934 36.2693 119.934 35.7147V22.4987C119.934 21.944 120.115 21.4853 120.478 21.1227C120.84 20.7387 121.299 20.5467 121.854 20.5467C122.408 20.5467 122.867 20.7387 123.23 21.1227C123.592 21.4853 123.774 21.944 123.774 22.4987V23.8747L123.294 23.7787C123.486 23.416 123.752 23.032 124.094 22.6267C124.435 22.2 124.851 21.8053 125.342 21.4427C125.832 21.08 126.376 20.792 126.974 20.5787C127.571 20.344 128.222 20.2267 128.926 20.2267ZM164.09 20.2267C164.644 20.2267 165.103 20.408 165.466 20.7707C165.828 21.1333 166.01 21.6027 166.01 22.1787V35.7147C166.01 36.2693 165.828 36.7387 165.466 37.1227C165.103 37.4853 164.644 37.6667 164.09 37.6667C163.535 37.6667 163.076 37.4853 162.714 37.1227C162.351 36.7387 162.17 36.2693 162.17 35.7147V34.1467L162.874 34.4347C162.874 34.712 162.724 35.0533 162.426 35.4587C162.127 35.8427 161.722 36.2267 161.21 36.6107C160.698 36.9947 160.09 37.3253 159.386 37.6027C158.703 37.8587 157.956 37.9867 157.146 37.9867C155.674 37.9867 154.34 37.6133 153.146 36.8667C151.951 36.0987 151.002 35.0533 150.298 33.7307C149.615 32.3867 149.274 30.8507 149.274 29.1227C149.274 27.3733 149.615 25.8373 150.298 24.5147C151.002 23.1707 151.94 22.1253 153.114 21.3787C154.287 20.6107 155.588 20.2267 157.018 20.2267C157.935 20.2267 158.778 20.3653 159.546 20.6427C160.314 20.92 160.975 21.272 161.53 21.6987C162.106 22.1253 162.543 22.5627 162.842 23.0107C163.162 23.4373 163.322 23.8 163.322 24.0987L162.17 24.5147V22.1787C162.17 21.624 162.351 21.1653 162.714 20.8027C163.076 20.4187 163.535 20.2267 164.09 20.2267ZM157.626 34.4667C158.564 34.4667 159.386 34.232 160.09 33.7627C160.794 33.2933 161.338 32.6533 161.722 31.8427C162.127 31.032 162.33 30.1253 162.33 29.1227C162.33 28.0987 162.127 27.1813 161.722 26.3707C161.338 25.56 160.794 24.92 160.09 24.4507C159.386 23.9813 158.564 23.7467 157.626 23.7467C156.708 23.7467 155.898 23.9813 155.194 24.4507C154.49 24.92 153.935 25.56 153.53 26.3707C153.146 27.1813 152.954 28.0987 152.954 29.1227C152.954 30.1253 153.146 31.032 153.53 31.8427C153.935 32.6533 154.49 33.2933 155.194 33.7627C155.898 34.232 156.708 34.4667 157.626 34.4667ZM171.159 20.5467C171.778 20.5467 172.301 20.8133 172.727 21.3467L183.415 34.6267C183.693 34.968 183.831 35.352 183.831 35.7787C183.831 36.312 183.629 36.7707 183.223 37.1547C182.818 37.5387 182.37 37.7307 181.879 37.7307C181.261 37.7307 180.738 37.4533 180.311 36.8987L169.623 23.6187C169.346 23.2773 169.207 22.8933 169.207 22.4667C169.207 21.912 169.399 21.4533 169.783 21.0907C170.189 20.728 170.647 20.5467 171.159 20.5467ZM171.191 37.6987C170.765 37.6987 170.338 37.5387 169.911 37.2187C169.506 36.8773 169.303 36.472 169.303 36.0027C169.303 35.576 169.463 35.1707 169.783 34.7867L174.679 28.8027L176.599 32.0027L172.727 36.8987C172.322 37.432 171.81 37.6987 171.191 37.6987ZM181.847 20.5467C182.359 20.5467 182.786 20.728 183.127 21.0907C183.49 21.432 183.671 21.8267 183.671 22.2747C183.671 22.488 183.639 22.7013 183.575 22.9147C183.511 23.128 183.394 23.3307 183.223 23.5227L178.391 29.4107L176.375 26.6267L180.311 21.4107C180.738 20.8347 181.25 20.5467 181.847 20.5467Z" fill="white"/>
</svg>
