<svg width="200" height="54" viewBox="0 0 200 54" fill="none" xmlns="http://www.w3.org/2000/svg">
<path d="M59.8311 17.4354H64.6993V36.9999H59.8311V17.4354ZM66.6303 29.6128C66.6303 24.7741 69.6162 21.887 74.2247 21.887C78.8333 21.887 81.8192 24.7741 81.8192 29.6128C81.8192 34.4515 78.8982 37.3547 74.2247 37.3547C69.5513 37.3547 66.6303 34.5321 66.6303 29.6128ZM76.9347 29.6128C76.9347 26.9515 75.8799 25.387 74.2247 25.387C72.5696 25.387 71.531 26.9999 71.531 29.6128C71.531 32.2257 72.5533 33.8063 74.2247 33.8063C75.8962 33.8063 76.9347 32.3225 76.9347 29.6289V29.6128ZM83.6529 37.9515H88.3263C88.5488 38.4426 88.9248 38.8492 89.3985 39.1108C89.8722 39.3723 90.4182 39.4749 90.9552 39.4031C92.8051 39.4031 93.7787 38.4031 93.7787 36.9515V34.2418H93.6814C93.2935 35.0723 92.6641 35.7681 91.8745 36.2397C91.0848 36.7112 90.1711 36.9367 89.2513 36.887C85.6975 36.887 83.3445 34.1934 83.3445 29.5644C83.3445 24.9354 85.5839 22.016 89.3162 22.016C90.2649 21.9791 91.2022 22.2312 92.0027 22.7384C92.8031 23.2458 93.4286 23.9842 93.795 24.8547V22.1612H98.6632V36.8386C98.6632 40.3708 95.5313 42.5644 90.9065 42.5644C86.6062 42.5644 83.9287 40.645 83.6529 37.9676V37.9515ZM93.795 29.5967C93.795 27.2418 92.7077 25.7579 90.9876 25.7579C89.2675 25.7579 88.2127 27.2257 88.2127 29.5967C88.2127 31.9676 89.2513 33.3063 90.9876 33.3063C92.724 33.3063 93.795 31.9999 93.795 29.6128V29.5967ZM100.497 29.5967C100.497 24.7579 103.483 21.8708 108.091 21.8708C112.7 21.8708 115.702 24.7579 115.702 29.5967C115.702 34.4354 112.781 37.3386 108.091 37.3386C103.402 37.3386 100.497 34.5321 100.497 29.6128V29.5967ZM110.801 29.5967C110.801 26.9354 109.746 25.3708 108.091 25.3708C106.436 25.3708 105.479 26.9999 105.479 29.6289C105.479 32.2579 106.501 33.8225 108.156 33.8225C109.811 33.8225 110.801 32.3225 110.801 29.6289V29.5967ZM117.552 18.645C117.539 18.1565 117.673 17.6752 117.935 17.2622C118.198 16.8491 118.578 16.5229 119.028 16.3249C119.477 16.1269 119.976 16.066 120.46 16.15C120.945 16.2339 121.393 16.4589 121.749 16.7965C122.104 17.134 122.351 17.5689 122.458 18.046C122.564 18.5231 122.526 19.0208 122.347 19.4763C122.169 19.9317 121.859 20.3242 121.456 20.6041C121.053 20.8839 120.575 21.0386 120.083 21.0483C119.757 21.0705 119.431 21.0255 119.123 20.9162C118.815 20.8068 118.534 20.6355 118.296 20.4128C118.058 20.1902 117.87 19.921 117.742 19.6223C117.613 19.3238 117.549 19.002 117.552 18.6773V18.645ZM117.552 22.1934H122.42V36.9999H117.552V22.1934ZM140.092 29.5967C140.092 34.4354 137.933 37.1934 134.234 37.1934C133.285 37.2539 132.34 37.0234 131.528 36.5331C130.715 36.0426 130.074 35.316 129.69 34.4515H129.593V41.7418H124.724V22.1612H129.593V24.8063H129.69C130.056 23.9275 130.685 23.182 131.492 22.6712C132.299 22.1604 133.245 21.9091 134.201 21.9515C137.933 22.016 140.157 24.7902 140.157 29.6289L140.092 29.5967ZM135.223 29.5967C135.223 27.2418 134.136 25.7418 132.432 25.7418C130.728 25.7418 129.641 27.2579 129.625 29.5967C129.609 31.9354 130.728 33.4354 132.432 33.4354C134.136 33.4354 135.223 31.9676 135.223 29.6289V29.5967ZM148.449 21.8547C152.489 21.8547 154.94 23.7579 155.053 26.8063H150.623C150.623 25.7579 149.747 25.0967 148.4 25.0967C147.053 25.0967 146.453 25.6128 146.453 26.3708C146.453 27.1289 146.988 27.3708 148.076 27.5967L151.191 28.2257C154.161 28.8547 155.427 30.0483 155.427 32.2902C155.427 35.3547 152.619 37.3225 148.481 37.3225C144.343 37.3225 141.633 35.3547 141.422 32.3386H146.112C146.258 33.4354 147.134 34.0805 148.562 34.0805C149.99 34.0805 150.639 33.6128 150.639 32.8386C150.639 32.0644 150.185 31.9031 149.017 31.6612L146.209 31.0644C143.305 30.4676 141.779 28.9354 141.779 26.6773C141.812 23.7741 144.424 21.887 148.449 21.887V21.8547ZM171.67 36.9676H166.98V34.2096H166.883C166.625 35.1355 166.057 35.946 165.272 36.5065C164.486 37.0668 163.532 37.3434 162.567 37.2902C161.827 37.332 161.087 37.2155 160.397 36.9486C159.706 36.6817 159.081 36.2707 158.564 35.7431C158.048 35.2157 157.651 34.5839 157.4 33.8908C157.15 33.1978 157.053 32.4594 157.114 31.7257V22.1612H161.982V30.6128C161.982 32.3708 162.891 33.3063 164.4 33.3063C164.754 33.307 165.105 33.2326 165.427 33.0879C165.749 32.9433 166.038 32.7317 166.271 32.4675C166.503 32.2031 166.679 31.8923 166.781 31.5558C166.883 31.2192 166.914 30.8647 166.867 30.516V22.1612H171.735L171.67 36.9676ZM174.023 22.1612H178.729V25.016H178.826C179.084 24.1023 179.641 23.2994 180.407 22.7333C181.173 22.1671 182.108 21.8694 183.062 21.887C184.034 21.8097 184.998 22.0986 185.765 22.6963C186.531 23.2941 187.044 24.1567 187.2 25.1128H187.297C187.591 24.1465 188.201 23.3052 189.03 22.7212C189.858 22.1371 190.859 21.8436 191.873 21.887C192.535 21.8649 193.194 21.9815 193.808 22.2292C194.423 22.4768 194.976 22.8502 195.435 23.3247C195.894 23.7994 196.248 24.3647 196.474 24.9839C196.698 25.6031 196.79 26.2626 196.741 26.9192V36.9999H191.873V28.2096C191.873 26.5967 191.143 25.8547 189.78 25.8547C189.476 25.8521 189.175 25.9144 188.897 26.0373C188.62 26.1602 188.371 26.3408 188.17 26.5671C187.969 26.7934 187.818 27.0599 187.729 27.3487C187.64 27.6378 187.615 27.9423 187.654 28.2418V36.9999H183.029V28.145C183.029 26.6612 182.299 25.8547 180.968 25.8547C180.662 25.8549 180.357 25.9197 180.078 26.045C179.797 26.1705 179.545 26.3536 179.342 26.5821C179.138 26.8107 178.985 27.0797 178.893 27.3715C178.802 27.6631 178.773 27.9707 178.81 28.2741V36.9999H173.942L174.023 22.1612Z" fill="white"/>
<path d="M46.2154 18.3227C45.3896 16.4458 44.2967 14.6967 42.9699 13.1291C41.0089 10.7426 38.5614 8.79587 35.7888 7.41717C33.0162 6.0385 29.9812 5.25906 26.8837 5.13018C23.7862 5.00129 20.6964 5.52587 17.8175 6.66942C14.9387 7.81295 12.3362 9.54951 10.1812 11.7648C8.02624 13.9801 6.36772 16.6239 5.31481 19.5222C4.2619 22.4204 3.83844 25.5075 4.07234 28.5801C4.30626 31.6528 5.1922 34.6414 6.67187 37.3491C8.15155 40.057 10.1914 42.4227 12.6572 44.2904C14.2394 45.5128 15.9876 46.5065 17.8499 47.242C20.4609 48.3056 23.2554 48.8533 26.0772 48.8549C31.9019 48.8422 37.4838 46.5344 41.5995 42.4377C45.7151 38.3409 48.0287 32.7894 48.0329 27.0001C48.0371 24.0138 47.4183 21.0591 46.2154 18.3227ZM26.061 9.56458C28.5951 9.56432 31.0985 10.1148 33.3958 11.1775C32.8356 11.4181 32.2466 11.5861 31.6432 11.6775C29.658 11.9631 27.8189 12.8792 26.4005 14.2891C24.982 15.6989 24.0603 17.5269 23.7729 19.5001C23.6469 20.6067 23.1404 21.6362 22.3392 22.4149C21.5381 23.1936 20.4913 23.6736 19.3753 23.7743C17.3901 24.0599 15.551 24.976 14.1325 26.3859C12.7141 27.7957 11.7924 29.6236 11.5051 31.5969C11.4078 32.6491 10.9561 33.638 10.2231 34.4033C8.95841 31.7473 8.39029 28.8164 8.57158 25.8835C8.75287 22.9506 9.67769 20.1109 11.26 17.6286C12.8422 15.1465 15.0306 13.1025 17.6213 11.6869C20.212 10.2713 23.1209 9.53014 26.0772 9.53232L26.061 9.56458ZM12.641 38.2904C12.8357 38.113 13.0304 37.9517 13.2252 37.7581C14.6688 36.367 15.5955 34.5306 15.854 32.5485C15.9588 31.4343 16.4593 30.3936 17.2658 29.613C18.0419 28.8101 19.0865 28.3167 20.2029 28.2259C22.1882 27.9402 24.0272 27.0241 25.4457 25.6143C26.8641 24.2044 27.7858 22.3765 28.0732 20.4033C28.1435 19.238 28.6465 18.1401 29.485 17.3227C30.2803 16.5353 31.3347 16.0599 32.4546 15.9839C34.2784 15.7345 35.9793 14.9286 37.3228 13.6775C38.8526 14.9389 40.1485 16.4564 41.1525 18.1614C41.0908 18.2441 41.02 18.3199 40.9415 18.3872C40.167 19.1972 39.1237 19.7014 38.0044 19.8065C36.017 20.0872 34.1752 21.0017 32.7558 22.4123C31.3365 23.8231 30.4164 25.6538 30.1341 27.6291C30.0197 28.7394 29.5226 29.7764 28.7272 30.5641C27.9315 31.352 26.8865 31.8422 25.7689 31.9517C23.7778 32.2351 21.9319 33.1494 20.5052 34.5586C19.0787 35.968 18.1474 37.797 17.8499 39.7743C17.7626 40.5625 17.4902 41.3194 17.0548 41.9839C15.3899 41.0014 13.8987 39.7536 12.641 38.2904ZM26.061 44.5162C24.4144 44.518 22.7756 44.2899 21.1928 43.8388C21.7343 42.8356 22.0863 41.7422 22.2313 40.613C22.3451 39.5051 22.8399 38.4701 23.6321 37.6827C24.4243 36.8952 25.4656 36.4035 26.5803 36.2904C28.5685 36.008 30.4112 35.0933 31.8329 33.6831C33.2544 32.2731 34.1786 30.4433 34.4668 28.4678C34.5805 27.3599 35.0753 26.3249 35.8675 25.5375C36.6598 24.7501 37.7011 24.2583 38.8157 24.1452C40.3119 23.9518 41.7379 23.3981 42.9699 22.5323C43.6541 25.1096 43.7351 27.8083 43.2068 30.4215C42.6786 33.0348 41.5551 35.4931 39.9226 37.6078C38.2901 39.7223 36.1921 41.4373 33.7891 42.6209C31.3863 43.8044 28.7427 44.4252 26.061 44.4356V44.5162Z" fill="white"/>
</svg>
