<svg width="201" height="54" viewBox="0 0 201 54" fill="none" xmlns="http://www.w3.org/2000/svg">
<path d="M37.2525 1.54548C34.0496 1.54548 30.8779 2.18827 27.9188 3.43695C24.9596 4.68576 22.2709 6.51603 20.006 8.82339C17.7412 11.1309 15.9447 13.87 14.7189 16.8848C13.4932 19.8996 12.8623 23.1309 12.8623 26.394C12.8623 29.6571 13.4932 32.8884 14.7189 35.9031C15.9447 38.9179 17.7412 41.657 20.006 43.9645C22.2709 46.2719 25.7568 47.5694 28.716 48.8182C31.6751 50.0669 34.0496 51.2424 37.2525 51.2424V39.9743C35.651 39.9743 33.8541 39.1397 32.3745 38.5152C30.8949 37.8908 29.7617 36.3329 28.6293 35.1793C27.4969 34.0256 26.5986 32.6559 25.9858 31.1485C25.3728 29.6412 25.0574 28.6316 25.0574 27C25.0574 25.3684 25.3728 23.1468 25.9858 21.6394C26.5986 20.132 27.4969 18.7624 28.6293 17.6087C29.7617 16.455 31.1061 15.5399 32.5857 14.9155C34.0652 14.291 35.651 13.9697 37.2525 13.9697V1.54548Z" fill="white"/>
<path d="M37.8624 34.2727C42.2403 34.2727 45.7892 30.7453 45.7892 26.3939C45.7892 22.0425 42.2403 18.5151 37.8624 18.5151C33.4844 18.5151 29.9355 22.0425 29.9355 26.3939C29.9355 30.7453 33.4844 34.2727 37.8624 34.2727Z" fill="white"/>
<path d="M12.8623 27C12.8623 30.1835 13.509 33.336 14.7653 36.2772C16.0217 39.2184 17.8632 41.8908 20.1846 44.142C22.5062 46.3931 25.262 48.1787 28.2952 49.3971C31.3283 50.6153 34.5793 51.2424 37.8623 51.2424C41.1453 51.2424 44.3963 50.6153 47.4295 49.3971C50.4626 48.1787 53.2184 46.3931 55.54 44.142C57.8614 41.8908 59.7029 39.2184 60.9593 36.2772C62.2156 33.336 62.8623 30.1835 62.8623 27H50.3623C50.3623 28.5918 50.039 30.168 49.4107 31.6386C48.7826 33.1092 47.8619 34.4455 46.7012 35.571C45.5404 36.6965 44.1624 37.5894 42.6459 38.1985C41.1293 38.8077 39.5039 39.1212 37.8623 39.1212C36.2207 39.1212 34.5953 38.8077 33.0787 38.1985C31.5622 37.5894 30.1842 36.6965 29.0234 35.571C27.8627 34.4455 26.942 33.1092 26.3139 31.6386C25.6856 30.168 25.3623 28.5918 25.3623 27H12.8623Z" fill="white"/>
<path d="M45.7892 27C45.7892 24.7497 44.954 22.5916 43.4676 21.0003C41.9809 19.4091 39.9648 18.5151 37.8624 18.5151C35.7601 18.5151 33.7439 19.4091 32.2573 21.0003C30.7707 22.5916 29.9355 24.7497 29.9355 27H37.8624H45.7892Z" fill="white"/>
<path d="M76.2777 17.303H72.6191V34.2727H76.2777V17.303Z" fill="white"/>
<path d="M77.4971 28.2121C77.4971 31.9595 80.3864 34.2727 84.2044 34.2727C88.0224 34.2727 90.9117 31.9595 90.9117 28.2121C90.9117 24.4647 88.0224 22.1515 84.2044 22.1515C80.3864 22.1515 77.4971 24.4647 77.4971 28.2121ZM80.7475 28.2121C80.7475 25.9914 82.1922 24.696 84.2044 24.696C86.2166 24.696 87.6612 25.9914 87.6612 28.2121C87.6612 30.4328 86.2166 31.7282 84.2044 31.7282C82.1922 31.7282 80.7475 30.4328 80.7475 28.2121Z" fill="white"/>
<path d="M101.429 22.4797V24.05H101.195C100.495 23.0422 99.3732 22.1515 97.364 22.1515C94.6073 22.1515 92.1309 24.4954 92.1309 28.105C92.1309 31.7146 94.6073 34.0584 97.364 34.0584C99.3732 34.0584 100.495 33.1443 101.149 32.2302H101.382V33.3553C101.382 35.6054 100.074 36.6367 98.1583 36.6367C96.2426 36.6367 95.2614 35.6054 94.8642 34.2693L92.2243 35.4179C92.8317 37.1757 94.6073 39.1212 98.2051 39.1212C101.896 39.1212 104.326 37.1757 104.326 33.4255V22.4797H101.429ZM98.2518 31.527C96.4295 31.527 95.0745 30.2145 95.0745 28.105C95.0745 25.9955 96.4295 24.6829 98.2518 24.6829C100.074 24.6829 101.429 25.9955 101.429 28.105C101.429 30.2145 100.074 31.527 98.2518 31.527Z" fill="white"/>
<path d="M106.765 28.2121C106.765 31.9595 109.654 34.2727 113.472 34.2727C117.29 34.2727 120.179 31.9595 120.179 28.2121C120.179 24.4647 117.29 22.1515 113.472 22.1515C109.654 22.1515 106.765 24.4647 106.765 28.2121ZM110.015 28.2121C110.015 25.9914 111.46 24.696 113.472 24.696C115.484 24.696 116.929 25.9914 116.929 28.2121C116.929 30.4328 115.484 31.7282 113.472 31.7282C111.46 31.7282 110.015 30.4328 110.015 28.2121Z" fill="white"/>
<path d="M122.618 18.2447C122.618 19.522 123.42 20.3984 124.448 20.3984C125.475 20.3984 126.277 19.522 126.277 18.2447C126.277 16.9675 125.475 16.0909 124.448 16.0909C123.42 16.0909 122.618 16.9675 122.618 18.2447ZM125.742 21.851H123.153V34.2727H125.742V21.851Z" fill="white"/>
<path d="M128.716 39.1212H131.66V32.8114H131.893C132.547 33.7674 133.668 34.6756 135.678 34.6756C138.434 34.6756 140.911 32.2855 140.911 28.4136C140.911 24.5416 138.434 22.1515 135.678 22.1515C133.668 22.1515 132.547 23.0598 131.847 24.0876H131.613V22.4861H128.716V39.1212ZM134.79 32.0943C132.968 32.0943 131.613 30.7559 131.613 28.4136C131.613 26.0713 132.968 24.7328 134.79 24.7328C136.613 24.7328 137.967 26.0713 137.967 28.4136C137.967 30.7559 136.613 32.0943 134.79 32.0943Z" fill="white"/>
<path d="M143.797 25.6908C143.797 27.9577 145.833 28.7905 148.415 29.2531L149.061 29.3687C150.6 29.6463 151.295 29.9934 151.295 30.7336C151.295 31.4738 150.6 32.0521 149.161 32.0521C147.72 32.0521 146.554 31.4969 146.23 29.8314L143.35 30.5253C143.773 32.9311 145.932 34.2727 149.161 34.2727C152.288 34.2727 154.325 32.908 154.325 30.5023C154.325 28.0964 152.239 27.4488 149.459 26.9399L148.812 26.8242C147.521 26.5929 146.826 26.269 146.826 25.5057C146.826 24.8118 147.472 24.3722 148.664 24.3722C149.856 24.3722 150.699 24.8348 150.997 26.084L153.829 25.2744C153.233 23.4239 151.42 22.1515 148.664 22.1515C145.733 22.1515 143.797 23.4239 143.797 25.6908Z" fill="white"/>
<path d="M167.74 34.0803V22.1515H164.54V28.3083C164.54 30.5209 163.397 31.8196 161.439 31.8196C159.712 31.8196 158.747 30.9298 158.747 29.126V22.1515H155.545V29.2703C155.545 32.2285 157.502 34.2727 160.449 34.2727C162.76 34.2727 163.828 33.3107 164.336 32.3006H164.59V34.0803H167.74Z" fill="white"/>
<path d="M170.179 22.3439V34.2727H173.389V27.1539C173.389 25.5185 174.205 24.6046 175.682 24.6046C176.956 24.6046 177.72 25.278 177.72 26.5767V34.2727H180.93V27.1539C180.93 25.5185 181.746 24.6046 183.223 24.6046C184.497 24.6046 185.261 25.278 185.261 26.5767V34.2727H188.471V26.4324C188.471 23.5464 186.585 22.1515 184.242 22.1515C182.178 22.1515 181.236 23.0173 180.625 24.0274H180.369C179.783 22.8971 178.739 22.1515 176.904 22.1515C175.07 22.1515 174.076 22.9211 173.593 23.835H173.338V22.3439H170.179Z" fill="white"/>
</svg>
