<svg width="200" height="54" viewBox="0 0 200 54" fill="none" xmlns="http://www.w3.org/2000/svg">
<path d="M99.5955 35.0504H92.8587V17.149H99.5955V35.0504ZM93.5166 34.3965H98.9376V17.8029H93.5166V34.3965ZM108.969 35.0504H102.368V17.149H116.16C118.136 16.99 120.103 17.5413 121.705 18.7027C122.394 19.3296 122.928 20.1062 123.266 20.9721C123.604 21.8381 123.735 22.7698 123.651 23.6946C123.749 25.2927 123.237 26.869 122.218 28.1085C121.011 29.4843 119.003 30.1932 116.251 30.218C115.557 30.2363 110.361 30.218 108.973 30.218L108.969 35.0504ZM103.022 34.3965H108.311V29.5576H108.642C108.709 29.5576 115.455 29.5785 116.235 29.5576C118.799 29.5353 120.643 28.9037 121.721 27.6704C122.628 26.5489 123.079 25.1295 122.984 23.6933C123.065 22.8647 122.952 22.0286 122.656 21.25C122.359 20.4714 121.886 19.7712 121.273 19.2036C119.788 18.1444 117.972 17.6472 116.151 17.8016H103.026L103.022 34.3965ZM114.763 26.1965H108.267V21.3236H114.806C115.27 21.2599 115.742 21.3137 116.179 21.4799C116.616 21.6461 117.004 21.9194 117.306 22.2744C117.58 22.7281 117.71 23.2539 117.677 23.7823C117.702 24.2728 117.595 24.7611 117.368 25.1973C117.056 25.5712 116.652 25.859 116.196 26.0331C115.74 26.2071 115.246 26.2616 114.763 26.1913V26.1965ZM108.924 25.5426H114.763C115.842 25.5426 116.51 25.3189 116.806 24.8586C116.969 24.524 117.043 24.1534 117.021 23.7823C117.049 23.3926 116.964 23.003 116.776 22.6602L116.768 22.6484C116.455 22.1907 115.832 21.9775 114.806 21.9775H108.924V25.5426ZM135.657 35.3146C129.749 35.3146 126.223 33.8564 124.88 30.8575C124.66 30.2783 124.511 29.675 124.435 29.0606L124.377 28.684H131.406L131.452 28.9586C131.506 29.2374 131.626 29.4999 131.799 29.725C132.077 30.0585 133.003 30.6182 136.077 30.6182C139.772 30.6182 139.772 29.9735 139.772 29.6269C139.772 29.0423 139.344 28.8422 136.331 28.5231L135.759 28.4695C134.624 28.3635 133.19 28.2288 132.535 28.1726C127.009 27.6756 124.542 25.9689 124.542 22.6405C124.542 19.1448 128.74 16.8862 135.239 16.8862C140.54 16.8862 143.956 18.2751 145.389 21.0175C145.728 21.6555 145.957 22.3463 146.064 23.0603L146.11 23.4278H139.073L139.044 23.1323C139.017 22.9013 138.918 22.6846 138.76 22.5124C138.497 22.1619 137.665 21.5825 135.084 21.5825C131.914 21.5825 131.477 21.9853 131.477 22.4195C131.477 22.9989 132.478 23.2042 135.688 23.5455C137.026 23.6541 139.177 23.8738 139.914 23.9627C144.547 24.4623 146.614 26.1272 146.614 29.3627C146.615 32.0764 144.714 35.3146 135.657 35.3146ZM125.146 29.3379C125.211 29.7692 125.325 30.1919 125.484 30.5986C126.707 33.3306 130.036 34.6607 135.657 34.6607C140.357 34.6607 145.961 33.7452 145.961 29.3627C145.961 26.4947 144.132 25.0744 139.844 24.6127C139.107 24.5238 136.969 24.3054 135.634 24.1955C132.213 23.8267 130.822 23.6306 130.822 22.4195C130.822 21.1666 132.321 20.9286 135.086 20.9286C137.272 20.9286 138.684 21.321 139.282 22.1122C139.446 22.3071 139.569 22.5319 139.646 22.7739H145.348C145.234 22.2681 145.052 21.7796 144.809 21.321C143.493 18.8113 140.278 17.5401 135.242 17.5401C129.143 17.5401 125.202 19.5423 125.202 22.6405C125.202 25.5962 127.414 27.0557 132.596 27.5213C133.253 27.5775 134.686 27.7122 135.823 27.8195L136.399 27.8731C139.198 28.1661 140.432 28.3492 140.432 29.6269C140.432 31.0027 138.836 31.2721 136.08 31.2721C133.53 31.2721 131.919 30.8915 131.297 30.1422C131.105 29.9032 130.96 29.6303 130.871 29.3379H125.146ZM159.114 35.2923C152.246 35.2923 148.456 32.5315 148.456 27.5174V17.149H155.103V27.5174C155.103 29.2372 156.652 30.2233 159.351 30.2233C161.93 30.2233 163.531 29.194 163.531 27.5396V17.149H170.11V28.0667C170.117 32.6584 166.105 35.2923 159.11 35.2923H159.114ZM149.114 17.8029V27.5174C149.114 33.7138 155.374 34.6384 159.114 34.6384C162.98 34.6384 169.463 33.7844 169.463 28.0667V17.8029H164.199V27.5396C164.199 29.5667 162.299 30.8772 159.361 30.8772C156.29 30.8772 154.456 29.6217 154.456 27.5174V17.8029H149.114ZM197.989 35.0504H191.715V26.9681L188.157 35.0504H182.685L179.164 26.9838V35.0504H172.868V17.149H181.149L185.452 27.0191L189.963 17.149H197.997L197.989 35.0504ZM192.373 34.3965H197.331V17.8029H190.381L185.431 28.6303L180.713 17.8029H173.521V34.3965H178.501V23.8372L183.106 34.4004H187.711L192.365 23.8529L192.373 34.3965ZM7.96525 17.476H1.97314V34.7234H18.531V30.1317H7.96525V17.476ZM30.6258 17.0836C22.9771 17.0836 18.9547 20.6867 18.9547 25.9768C18.9547 31.9535 23.1771 34.985 30.6258 34.985C38.8258 34.985 42.2745 31.4696 42.2745 25.9768C42.2745 20.3989 38.3837 17.081 30.6258 17.081V17.0836ZM30.6034 21.5655C31.1241 21.5631 31.6445 21.5932 32.1613 21.6558L25.4626 28.3138C25.1456 27.6012 24.991 26.8276 25.01 26.0487C25.01 23.3428 26.381 21.5629 30.6034 21.5629V21.5655ZM30.6258 30.5737C30.1241 30.576 29.6227 30.548 29.1245 30.49L35.835 23.8202C36.1401 24.521 36.2862 25.2801 36.2626 26.0435C36.2626 28.6761 34.9995 30.5711 30.6258 30.5711V30.5737ZM54.1468 28.2197H60.3139C60.2231 28.6451 60.0339 29.0436 59.7613 29.3836C58.4827 30.4189 56.851 30.9227 55.2074 30.7895C54.38 30.8776 53.5434 30.7877 52.7541 30.5261C51.9647 30.2647 51.241 29.8376 50.6324 29.2738C50.0088 28.3647 49.7126 27.273 49.7916 26.1756C49.6906 25.0257 50.0127 23.8784 50.6981 22.9466C51.56 21.9788 53.0192 21.5616 55.1639 21.5616C56.5285 21.4493 57.8914 21.7976 59.0324 22.5503C59.392 22.8342 59.6608 23.2159 59.806 23.6489H65.5258C65.4842 22.9354 65.3116 22.2355 65.0166 21.5838C63.6468 18.8152 60.4626 17.1673 55.0481 17.1673C50.3389 17.1673 47.1784 18.5955 45.4324 20.7494C44.2792 22.3049 43.6872 24.2013 43.7521 26.1324C43.6775 28.1072 44.2542 30.0521 45.3942 31.671C47.1192 33.8943 50.1916 34.9876 53.8837 34.9876C56.3383 35.1578 58.7762 34.4744 60.7797 33.0547L60.935 34.7234H65.6863V24.5068H54.1468V28.2197ZM79.1718 17.0797C71.5245 17.0797 67.5008 20.6827 67.5008 25.9729C67.5008 31.9496 71.7218 34.9811 79.1718 34.9811C87.3731 34.9811 90.8218 31.4657 90.8218 25.9729C90.8218 20.3989 86.931 17.081 79.1718 17.081V17.0797ZM79.1508 21.5616C79.6577 21.5601 80.1643 21.5889 80.6679 21.6479L73.9955 28.2838C73.6884 27.579 73.5389 26.8165 73.5574 26.0487C73.5521 23.3428 74.9284 21.5629 79.1508 21.5629V21.5616ZM79.1718 30.5698C78.6568 30.572 78.1422 30.5422 77.631 30.4809L84.3639 23.7875C84.6806 24.4977 84.8322 25.2697 84.8074 26.0461C84.81 28.6761 83.5521 30.5711 79.1718 30.5711V30.5698Z" fill="white"/>
</svg>
