<svg width="201" height="54" viewBox="0 0 201 54" fill="none" xmlns="http://www.w3.org/2000/svg">
	<path d="M37.4004 22.6896C41.2507 22.6896 42.1169 24.3417 42.1169 26.4023C42.1169 28.5866 41.0691 30.1514 37.4163 30.1514C33.7869 30.1514 32.7378 28.6775 32.7378 26.4023C32.7378 24.1635 33.8814 22.6896 37.4004 22.6896Z" fill="#87D8CF" fill-opacity="0.7" />
	<path d="M77.6387 22.6897C81.489 22.6897 82.3552 24.3418 82.3552 26.4024C82.3552 28.5867 81.3061 30.1515 77.6546 30.1515C74.0264 30.1515 72.9761 28.6776 72.9761 26.4024C72.9761 24.1636 74.1196 22.6897 77.6387 22.6897Z" fill="#87D8CF" fill-opacity="0.7" />
	<path fill-rule="evenodd" clip-rule="evenodd" d="M3.31055 47.8788V4.90543H197.885V47.8788H3.31055ZM96.0443 45.4545H195.431V7.32967H96.0443V45.4545ZM37.4188 33.8097C44.2544 33.8097 47.128 30.8969 47.128 26.3478C47.128 21.7248 43.8912 18.9769 37.4188 18.9769C31.0458 18.9769 27.6912 21.9612 27.6912 26.3478C27.6912 31.2982 31.2102 33.8097 37.4188 33.8097ZM13.6532 19.3042V33.5915H27.4495V29.7866H18.6446V19.3042H13.6532ZM62.5685 33.5915L62.4397 32.2072C60.7699 33.3845 58.7375 33.951 56.6912 33.8097C53.6151 33.8097 51.0532 32.8994 49.6164 31.0618C48.6686 29.7202 48.1901 28.1098 48.2532 26.4751C48.1993 24.8748 48.6944 23.3034 49.6581 22.0157C51.1121 20.2327 53.7477 19.0497 57.6716 19.0497C62.1857 19.0497 64.8384 20.4145 65.9796 22.7078C66.2245 23.248 66.3684 23.8274 66.4041 24.4182H61.6286C61.5083 24.0591 61.2843 23.7428 60.9845 23.5079C60.0332 22.8848 58.8972 22.5967 57.7599 22.6897C57.0928 22.6098 56.416 22.6706 55.7745 22.8683C55.133 23.066 54.5413 23.396 54.0384 23.8363C53.4674 24.6085 53.1993 25.559 53.2838 26.5115C53.2176 27.4202 53.4641 28.3245 53.9832 29.0775C54.4906 29.5446 55.0938 29.8983 55.7517 30.115C56.4097 30.3316 57.107 30.4062 57.7967 30.3333C59.1664 30.4434 60.5263 30.026 61.5918 29.1685C61.8207 28.8858 61.9784 28.5534 62.0519 28.1988H56.9133V25.1285H66.5292V33.5915H62.5685ZM77.6569 33.8097C84.4912 33.8097 87.3661 30.8969 87.3661 26.3478C87.3661 21.7248 84.1242 18.9769 77.6569 18.9769C71.2839 18.9769 67.9292 21.9612 67.9292 26.3478C67.9292 31.2982 71.4483 33.8097 77.6569 33.8097Z" fill="#87D8CF" fill-opacity="0.7" />
	<path d="M104.453 33.5369V19.2497H108.011V33.5369H104.453Z" fill="#87D8CF" fill-opacity="0.7" />
	<path d="M126.283 27.5672C125.381 28.7321 123.829 29.2642 121.641 29.2775C121.18 29.2775 115.063 29.2593 115.063 29.2593V33.5369H111.581V19.2496H121.642C122.449 19.1654 123.264 19.2499 124.035 19.4975C124.807 19.7453 125.516 20.1506 126.118 20.6872C126.914 21.7105 127.3 22.9864 127.206 24.2727C127.287 25.4426 126.961 26.6049 126.283 27.5672ZM123.428 22.909C123.06 22.3636 122.266 22.0605 120.922 22.0605H115.045V26.4096H120.884C122.321 26.4096 123.078 26.1187 123.428 25.5539C123.635 25.1559 123.725 24.7078 123.685 24.2618C123.716 23.7965 123.628 23.3312 123.428 22.909Z" fill="#87D8CF" fill-opacity="0.7" />
	<path d="M137.467 33.7552C130.907 33.7552 128.9 31.331 128.9 28.9322H132.621C132.621 30.1152 134.261 31.0073 137.632 31.0073C140.985 31.0073 141.869 30.4243 141.869 29.4776C141.869 28.4219 141.207 28.0946 138.093 27.7491C137.479 27.6946 135.809 27.4946 135.182 27.4037C130.765 26.9116 129.064 25.6194 129.064 23.3079C129.064 20.8691 131.553 19.0316 136.95 19.0316C142.809 19.0316 145.057 21.3067 145.057 23.6728H141.376C141.376 22.4716 139.994 21.7794 136.733 21.7794C133.38 21.7794 132.662 22.234 132.662 23.1261C132.662 24.0546 133.398 24.3455 136.956 24.7637C137.767 24.874 139.572 25.074 140.069 25.1273C143.829 25.5091 145.523 26.8558 145.523 29.2401C145.517 32.0801 142.938 33.7552 137.467 33.7552Z" fill="#87D8CF" fill-opacity="0.7" />
	<path d="M156.002 33.7369C151.195 33.7369 148.062 31.8618 148.062 27.9188V19.2497H151.58V27.9672C151.58 29.7697 153.073 30.9697 156.149 30.9697C158.931 30.9697 160.59 29.8424 160.59 27.9672V19.2497H164.072V28.2424C164.072 31.8266 161.16 33.7369 156.002 33.7369Z" fill="#87D8CF" fill-opacity="0.7" />
	<path d="M183.139 33.5369V24L178.624 33.5369H175.199L170.813 24V33.5369H167.5V19.2497H171.989L176.963 30.1333L182.048 19.2497H186.465V33.5369H183.139Z" fill="#87D8CF" fill-opacity="0.7" />
</svg>
