<svg width="186" height="186" viewBox="0 0 186 186" fill="none" xmlns="http://www.w3.org/2000/svg">
<path d="M169.35 98.8141L180.576 99.917L180.448 101.223L170.368 100.232L169.807 105.949L168.66 105.836L169.35 98.8141Z" fill="#FFFFFC"/>
<path d="M167.443 110.205C167.693 109.004 168.241 108.127 169.086 107.573C169.942 107.021 170.976 106.871 172.187 107.123C172.97 107.287 173.627 107.587 174.157 108.024C174.697 108.463 175.073 108.988 175.284 109.599C175.502 110.222 175.537 110.893 175.387 111.614C175.172 112.648 174.669 113.388 173.879 113.833C173.099 114.281 172.13 114.384 170.971 114.143L170.485 114.042L171.679 108.309C170.803 108.17 170.088 108.283 169.533 108.646C168.988 109.012 168.631 109.603 168.461 110.417C168.366 110.877 168.342 111.329 168.391 111.775C168.45 112.224 168.603 112.669 168.848 113.113L167.864 113.365C167.612 112.953 167.448 112.462 167.37 111.89C167.304 111.32 167.328 110.759 167.443 110.205ZM174.441 111.45C174.591 110.729 174.485 110.113 174.122 109.602C173.76 109.091 173.221 108.723 172.506 108.497L171.544 113.118C172.323 113.248 172.966 113.169 173.472 112.882C173.976 112.606 174.299 112.128 174.441 111.45Z" fill="#FFFFFC"/>
<path d="M165.264 117.809C165.536 116.933 165.969 116.347 166.564 116.051C167.168 115.759 167.909 115.748 168.785 116.021L172.681 117.231L173.132 115.779L174.095 116.078L173.644 117.529L175.921 118.236L175.536 119.474L173.26 118.767L172.529 121.12L171.566 120.821L172.297 118.468L168.523 117.296C167.942 117.116 167.461 117.101 167.08 117.25C166.708 117.403 166.437 117.754 166.266 118.304C166.216 118.467 166.185 118.637 166.176 118.812C166.166 118.988 166.161 119.148 166.16 119.293L165.146 119.213C165.116 119.059 165.11 118.844 165.128 118.571C165.146 118.297 165.191 118.043 165.264 117.809Z" fill="#FFFFFC"/>
<path d="M171.27 124.338L171.935 123.965C172.076 124.274 172.229 124.512 172.391 124.68C172.56 124.862 172.745 125.004 172.945 125.106L173.223 124.407L174.739 125.009L174.138 126.526L173.067 126.101C172.66 125.94 172.309 125.726 172.013 125.459C171.717 125.193 171.47 124.819 171.27 124.338Z" fill="#FFFFFC"/>
<path d="M160.819 128.083C161.09 127.539 161.423 127.061 161.818 126.65C162.213 126.24 162.628 125.946 163.062 125.768L163.693 126.547C163.245 126.753 162.852 127.028 162.513 127.372C162.18 127.73 161.906 128.124 161.692 128.554C161.421 129.098 161.317 129.559 161.38 129.935C161.442 130.312 161.645 130.586 161.989 130.757C162.256 130.891 162.512 130.904 162.755 130.799C163.008 130.699 163.274 130.474 163.555 130.125L164.491 128.965C165.338 127.909 166.244 127.621 167.208 128.102C167.839 128.416 168.221 128.916 168.356 129.603C168.486 130.299 168.348 131.053 167.944 131.864C167.706 132.342 167.404 132.757 167.037 133.111C166.675 133.479 166.28 133.735 165.851 133.878L165.227 133.085C165.623 132.937 165.98 132.709 166.299 132.404C166.623 132.112 166.876 131.785 167.056 131.422C167.323 130.887 167.42 130.429 167.347 130.048C167.275 129.666 167.067 129.39 166.724 129.219C166.189 128.952 165.669 129.135 165.165 129.765L164.243 130.933C163.805 131.477 163.36 131.833 162.907 132.001C162.464 132.173 161.994 132.136 161.497 131.889C160.857 131.57 160.477 131.065 160.357 130.374C160.246 129.687 160.4 128.923 160.819 128.083Z" fill="#FFFFFC"/>
<path d="M153.055 140.144C153.789 139.162 154.657 138.599 155.657 138.455C156.666 138.317 157.666 138.619 158.657 139.36C159.297 139.839 159.765 140.389 160.06 141.009C160.364 141.636 160.482 142.27 160.415 142.913C160.349 143.57 160.096 144.193 159.656 144.782C159.023 145.628 158.254 146.086 157.35 146.155C156.454 146.231 155.532 145.914 154.584 145.205L154.187 144.908L157.695 140.218C156.96 139.722 156.264 139.522 155.608 139.616C154.959 139.717 154.386 140.101 153.887 140.767C153.606 141.143 153.393 141.543 153.249 141.968C153.113 142.399 153.062 142.867 153.097 143.373L152.098 143.185C152.044 142.706 152.103 142.19 152.276 141.64C152.456 141.095 152.716 140.597 153.055 140.144ZM158.868 144.233C159.309 143.644 159.473 143.041 159.361 142.424C159.25 141.808 158.917 141.246 158.364 140.739L155.537 144.519C156.188 144.966 156.804 145.167 157.384 145.121C157.958 145.084 158.452 144.788 158.868 144.233Z" fill="#FFFFFC"/>
<path d="M150.802 143.13L151.539 148.232L156.363 148.569L155.316 149.693L151.683 149.393L152.231 153.008L151.196 154.12L150.515 149.333L145.373 148.963L146.42 147.838L150.359 148.139L149.755 144.255L150.802 143.13Z" fill="#FFFFFC"/>
<path d="M142.469 147.506L149.415 155.587L148.457 156.411L147.549 155.355C147.684 155.872 147.665 156.381 147.491 156.882C147.316 157.399 146.993 157.858 146.524 158.262C145.998 158.714 145.434 158.981 144.83 159.064C144.225 159.162 143.619 159.071 143.012 158.791C142.405 158.525 141.83 158.077 141.287 157.446C140.752 156.824 140.395 156.188 140.217 155.539C140.038 154.905 140.039 154.293 140.22 153.701C140.393 153.117 140.742 152.598 141.268 152.146C141.721 151.757 142.212 151.51 142.742 151.407C143.271 151.303 143.774 151.356 144.25 151.566L141.486 148.351L142.469 147.506ZM142.152 152.758C141.602 153.231 141.328 153.804 141.33 154.477C141.339 155.158 141.656 155.863 142.282 156.591C142.915 157.327 143.564 157.747 144.229 157.85C144.895 157.953 145.503 157.768 146.053 157.296C146.603 156.823 146.877 156.25 146.874 155.576C146.872 154.903 146.555 154.198 145.922 153.462C145.296 152.734 144.647 152.315 143.975 152.203C143.31 152.1 142.702 152.285 142.152 152.758Z" fill="#FFFFFC"/>
<path d="M135.334 156.53C135.979 156.075 136.599 155.919 137.195 156.06C137.788 156.216 138.339 156.656 138.849 157.379L143.866 164.493L142.807 165.239L137.846 158.205C137.188 157.272 136.489 157.067 135.748 157.589C135.53 157.743 135.352 157.908 135.215 158.083L134.614 157.175C134.841 156.924 135.081 156.709 135.334 156.53Z" fill="#FFFFFC"/>
<path d="M129.664 159.954C130.32 159.576 130.971 159.392 131.617 159.402C132.262 159.412 132.868 159.599 133.434 159.962C133.996 160.34 134.482 160.885 134.892 161.597C135.302 162.309 135.526 162.998 135.565 163.665C135.6 164.346 135.46 164.968 135.144 165.532C134.828 166.095 134.342 166.565 133.686 166.943C133.039 167.316 132.392 167.497 131.747 167.487C131.092 167.482 130.483 167.291 129.921 166.913C129.355 166.55 128.867 166.012 128.457 165.3C128.048 164.588 127.825 163.892 127.79 163.21C127.751 162.544 127.894 161.926 128.219 161.357C128.535 160.794 129.016 160.326 129.664 159.954ZM130.182 160.855C129.554 161.217 129.178 161.729 129.054 162.391C128.936 163.062 129.116 163.814 129.595 164.646C130.079 165.487 130.638 166.02 131.272 166.246C131.907 166.472 132.538 166.404 133.167 166.042C133.805 165.675 134.186 165.16 134.309 164.498C134.424 163.842 134.239 163.093 133.755 162.251C133.276 161.419 132.721 160.883 132.091 160.643C131.456 160.417 130.82 160.488 130.182 160.855Z" fill="#FFFFFC"/>
<path d="M125.2 162.359L128.416 169.439L127.265 169.961L126.689 168.694C126.699 169.721 126.136 170.545 125.001 171.166L124.598 171.402L124.047 170.421L124.751 169.997C125.394 169.634 125.807 169.189 125.989 168.661C126.175 168.143 126.125 167.568 125.838 166.937L124.006 162.902L125.2 162.359Z" fill="#FFFFFC"/>
<path d="M115.935 165.828C117.095 165.43 118.129 165.453 119.037 165.897C119.948 166.351 120.605 167.163 121.006 168.334C121.266 169.09 121.343 169.808 121.238 170.487C121.136 171.176 120.876 171.767 120.459 172.26C120.035 172.766 119.475 173.139 118.779 173.378C117.78 173.721 116.887 173.666 116.101 173.214C115.318 172.772 114.734 171.992 114.35 170.872L114.189 170.402L119.728 168.502C119.4 167.678 118.938 167.121 118.342 166.829C117.749 166.548 117.059 166.542 116.272 166.812C115.828 166.964 115.427 167.175 115.068 167.445C114.713 167.725 114.408 168.083 114.152 168.521L113.432 167.803C113.658 167.376 113.997 166.984 114.449 166.626C114.905 166.277 115.4 166.012 115.935 165.828ZM118.437 172.48C119.133 172.241 119.609 171.836 119.863 171.263C120.118 170.691 120.159 170.04 119.988 169.309L115.523 170.841C115.81 171.577 116.206 172.09 116.711 172.379C117.206 172.671 117.781 172.705 118.437 172.48Z" fill="#FFFFFC"/>
<path d="M102.489 168.799C103.395 168.655 104.112 168.783 104.641 169.185C105.171 169.598 105.508 170.257 105.653 171.163L106.295 175.192L107.796 174.953L107.955 175.948L106.453 176.187L106.829 178.542L105.549 178.746L105.174 176.391L102.74 176.779L102.582 175.784L105.015 175.396L104.393 171.493C104.297 170.893 104.098 170.455 103.795 170.179C103.493 169.914 103.058 169.826 102.489 169.917C102.321 169.944 102.156 169.992 101.994 170.061C101.832 170.13 101.686 170.196 101.556 170.26L101.178 169.316C101.303 169.22 101.493 169.12 101.746 169.015C101.999 168.91 102.247 168.838 102.489 168.799Z" fill="#FFFFFC"/>
<path d="M99.2697 169.27L99.9277 180.531L98.6339 180.607L98.3548 175.831C98.1266 176.314 97.7905 176.686 97.3463 176.948C96.892 177.22 96.3774 177.373 95.8024 177.406C93.9602 177.514 92.9794 176.546 92.8599 174.501L92.5771 169.661L93.8709 169.586L94.149 174.346C94.1913 175.07 94.3659 175.588 94.6727 175.902C94.9695 176.226 95.4267 176.371 96.0443 176.334C96.7577 176.293 97.3144 176.036 97.7142 175.564C98.1039 175.103 98.2774 174.505 98.2344 173.77L97.9759 169.346L99.2697 169.27Z" fill="#FFFFFC"/>
<path d="M86.9344 169.167C88.1594 169.231 89.1098 169.639 89.7858 170.391C90.4612 171.153 90.7662 172.152 90.7009 173.387C90.6587 174.186 90.4618 174.881 90.1102 175.471C89.758 176.072 89.2962 176.523 88.7248 176.824C88.1423 177.135 87.4835 177.271 86.7485 177.232C85.694 177.176 84.8865 176.792 84.326 176.079C83.765 175.376 83.5157 174.434 83.5782 173.251L83.6044 172.756L89.4522 173.065C89.4563 172.179 89.2364 171.489 88.7925 170.995C88.348 170.512 87.7104 170.249 86.8795 170.205C86.4109 170.18 85.9598 170.226 85.5264 170.342C85.0925 170.469 84.675 170.687 84.2741 170.997L83.8749 170.062C84.2438 169.751 84.705 169.513 85.2584 169.35C85.8112 169.198 86.3699 169.137 86.9344 169.167ZM86.7672 176.272C87.5022 176.311 88.0948 176.112 88.5451 175.677C88.9954 175.241 89.2775 174.653 89.3915 173.911L84.6781 173.662C84.6684 174.452 84.8437 175.075 85.2041 175.532C85.5538 175.989 86.0749 176.235 86.7672 176.272Z" fill="#FFFFFC"/>
<path d="M73.2339 166.848C73.9915 167.028 74.6072 167.344 75.0809 167.796C75.5522 168.259 75.8681 168.821 76.0287 169.484C76.1765 170.155 76.1556 170.89 75.966 171.689C75.6803 172.893 75.1293 173.76 74.3129 174.29C73.4941 174.83 72.5139 174.965 71.3722 174.694C70.9052 174.583 70.463 174.391 70.0458 174.116C69.6285 173.842 69.3051 173.518 69.0756 173.146L69.7294 172.331C69.9614 172.693 70.243 172.985 70.5743 173.206C70.8951 173.424 71.2164 173.572 71.5382 173.648C72.3269 173.835 72.9932 173.73 73.5369 173.333C74.0782 172.946 74.4584 172.291 74.6775 171.367C74.8918 170.464 74.8489 169.698 74.549 169.067C74.2466 168.448 73.701 168.044 72.9123 167.857C72.5905 167.781 72.2372 167.768 71.8523 167.819C71.4571 167.868 71.0732 168.007 70.7009 168.237L70.4829 167.215C70.8553 166.985 71.2959 166.838 71.8048 166.772C72.3009 166.714 72.7772 166.74 73.2339 166.848Z" fill="#FFFFFC"/>
<path d="M68.9863 165.72L66.5036 173.089L65.3058 172.685L65.7502 171.366C65.0563 172.123 64.0824 172.341 62.8287 172.02L62.3736 171.917L62.6402 170.825L63.4442 170.994C64.1621 171.169 64.7677 171.125 65.261 170.864C65.7509 170.612 66.1066 170.158 66.3279 169.501L67.743 165.301L68.9863 165.72Z" fill="#FFFFFC"/>
<path d="M59.8469 161.93C60.9666 162.431 61.7066 163.154 62.067 164.098C62.423 165.052 62.3483 166.094 61.8429 167.223C61.5161 167.954 61.0825 168.531 60.542 168.955C59.9972 169.389 59.4042 169.644 58.7628 169.719C58.1074 169.8 57.4437 169.69 56.7719 169.389C55.8081 168.957 55.1929 168.308 54.9266 167.441C54.6559 166.584 54.7623 165.615 55.246 164.534L55.4486 164.081L60.7937 166.473C61.1164 165.648 61.1594 164.925 60.9228 164.305C60.6817 163.695 60.1815 163.219 59.4221 162.88C58.9937 162.688 58.5565 162.568 58.1104 162.52C57.6599 162.482 57.1919 162.536 56.7063 162.681L56.67 161.665C57.1263 161.507 57.642 161.452 58.217 161.499C58.7876 161.556 59.3309 161.699 59.8469 161.93ZM57.1349 168.5C57.8067 168.8 58.431 168.828 59.0078 168.584C59.5846 168.34 60.0596 167.892 60.4327 167.241L56.1245 165.313C55.8313 166.046 55.7706 166.691 55.9424 167.247C56.1045 167.799 56.502 168.216 57.1349 168.5Z" fill="#FFFFFC"/>
<path d="M53.5403 158.531C54.001 158.8 54.3645 159.129 54.6309 159.519C54.8827 159.913 55.0232 160.328 55.0524 160.765C55.0815 161.202 54.9832 161.614 54.7575 162.001C54.4726 162.489 54.1224 162.804 53.7071 162.944C53.2825 163.079 52.745 163.037 52.0947 162.819C51.4298 162.604 50.5906 162.2 49.5771 161.609L49.1349 161.351L48.8849 161.78C48.5517 162.351 48.4323 162.831 48.5267 163.219C48.6065 163.612 48.9044 163.958 49.4203 164.259C49.8257 164.496 50.2522 164.664 50.6999 164.765C51.1421 164.875 51.6366 164.916 52.1832 164.889L52.0945 165.93C51.5993 165.975 51.0599 165.926 50.4764 165.783C49.8836 165.635 49.3569 165.426 48.8963 165.157C48.0302 164.652 47.5135 164.067 47.3462 163.401C47.1696 162.73 47.342 161.948 47.8634 161.054L50.3306 156.825L51.3809 157.438L50.7036 158.599C51.1098 158.305 51.5644 158.15 52.0673 158.135C52.561 158.114 53.052 158.246 53.5403 158.531ZM52.8688 159.269C52.316 158.947 51.7544 158.872 51.1839 159.046C50.608 159.228 50.1481 159.614 49.8041 160.204L49.5622 160.619L49.9906 160.869C50.7369 161.304 51.3481 161.611 51.8241 161.79C52.2855 161.973 52.6548 162.028 52.932 161.955C53.1946 161.886 53.4119 161.704 53.5839 161.409C53.8043 161.031 53.8554 160.647 53.7371 160.257C53.6097 159.862 53.3203 159.532 52.8688 159.269Z" fill="#FFFFFC"/>
<path d="M46.1091 153.519C46.8535 154.055 47.2717 154.652 47.3635 155.31C47.449 155.976 47.2238 156.681 46.6879 157.426L44.3041 160.737L45.5377 161.625L44.9488 162.443L43.7152 161.555L42.3223 163.49L41.2705 162.733L42.6634 160.798L40.6637 159.358L41.2526 158.54L43.2523 159.98L45.5613 156.772C45.9165 156.279 46.0838 155.828 46.063 155.418C46.0359 155.018 45.7887 154.649 45.3212 154.313C45.1827 154.213 45.0317 154.131 44.8683 154.065C44.7049 154 44.5544 153.945 44.4169 153.898L44.8147 152.962C44.9709 152.983 45.1759 153.045 45.4297 153.149C45.6835 153.253 45.91 153.376 46.1091 153.519Z" fill="#FFFFFC"/>
<path d="M37.2608 159.001L36.3221 160.114L35.099 159.083L36.0377 157.97L37.2608 159.001ZM43.3998 151.474L38.3866 157.418L37.3959 156.583L42.4091 150.638L43.3998 151.474Z" fill="#FFFFFC"/>
<path d="M37.9312 146.398L34.7706 154.25L33.7783 153.251L36.4358 146.981L30.1252 149.573L29.1893 148.631L37.0742 145.535L37.9312 146.398Z" fill="#FFFFFC"/>
<path d="M31.8556 139.168C32.6218 140.126 32.9491 141.107 32.8374 142.112C32.7174 143.123 32.1742 144.015 31.208 144.788C30.5833 145.288 29.9335 145.603 29.2589 145.732C28.5759 145.869 27.932 145.824 27.3273 145.597C26.7076 145.369 26.1679 144.968 25.7082 144.393C25.0486 143.568 24.7988 142.709 24.9588 141.817C25.1104 140.93 25.6485 140.117 26.5731 139.378L26.9605 139.068L30.6184 143.641C31.2831 143.055 31.6521 142.432 31.7255 141.772C31.7905 141.119 31.5631 140.468 31.0434 139.818C30.7503 139.451 30.4163 139.145 30.0415 138.898C29.6584 138.658 29.2178 138.492 28.7197 138.398L29.152 137.479C29.6301 137.547 30.114 137.734 30.6038 138.039C31.0852 138.35 31.5025 138.727 31.8556 139.168ZM26.4379 143.768C26.8976 144.343 27.4398 144.654 28.0645 144.7C28.6892 144.747 29.3164 144.566 29.9461 144.158L26.9979 140.472C26.4014 140.99 26.0524 141.536 25.9507 142.109C25.8424 142.674 26.0048 143.227 26.4379 143.768Z" fill="#FFFFFC"/>
<path d="M24.9963 128.675L19.3842 134.787L18.7664 133.576L23.3442 128.781L16.7388 129.599L16.2373 128.615L20.8075 123.771L14.2097 124.638L13.621 123.484L21.8712 122.546L22.4308 123.644L18.0527 128.336L24.4294 127.564L24.9963 128.675Z" fill="#FFFFFC"/>
<path d="M20.2119 117.186C20.468 117.899 20.5343 118.572 20.4107 119.206C20.2871 119.84 19.9965 120.403 19.539 120.896C19.0678 121.383 18.4458 121.765 17.6728 122.043C16.8999 122.321 16.1819 122.42 15.5187 122.341C14.8419 122.256 14.2541 122.008 13.7554 121.598C13.2566 121.187 12.8792 120.626 12.623 119.913C12.3705 119.211 12.306 118.542 12.4296 117.909C12.5496 117.265 12.8452 116.699 13.3164 116.213C13.7739 115.72 14.3891 115.334 15.1621 115.056C15.935 114.779 16.6599 114.682 17.3366 114.768C17.9998 114.847 18.5826 115.097 19.0849 115.517C19.5837 115.927 19.9593 116.483 20.2119 117.186ZM19.2331 117.538C18.9878 116.855 18.5503 116.395 17.9206 116.156C17.2808 115.921 16.5092 115.966 15.6058 116.291C14.6923 116.619 14.0686 117.076 13.7347 117.661C13.4008 118.245 13.3564 118.879 13.6017 119.562C13.8507 120.254 14.29 120.72 14.9197 120.958C15.5458 121.186 16.3156 121.137 17.2291 120.808C18.1325 120.484 18.7581 120.032 19.1056 119.454C19.4395 118.869 19.4821 118.23 19.2331 117.538Z" fill="#FFFFFC"/>
<path d="M18.6313 112.368L11.0955 114.286L10.7838 113.061L12.1328 112.718C11.1205 112.546 10.4087 111.847 9.99742 110.62L9.83648 110.182L10.8982 109.812L11.1925 110.58C11.436 111.277 11.8015 111.762 12.289 112.034C12.7662 112.309 13.3407 112.361 14.0127 112.19L18.3078 111.097L18.6313 112.368Z" fill="#FFFFFC"/>
<path d="M17.2443 106.097L6.10333 107.862L5.90048 106.582L12.7747 105.493L12.7697 105.461L8.79281 102.447L8.53486 100.819L12.8438 104.089L16.1624 99.2701L16.4204 100.898L13.4334 105.356L13.4384 105.388L17.0415 104.817L17.2443 106.097Z" fill="#FFFFFC"/>
<path d="M16.3134 98.6214L14.6858 98.7401L14.567 97.1125L16.1947 96.9937L16.3134 98.6214Z" fill="#FFFFFC"/>
<path d="M16.2804 87.187L5.04814 86.1507L5.16867 84.8443L15.2538 85.7747L15.7815 80.055L16.9287 80.1609L16.2804 87.187Z" fill="#FFFFFC"/>
<path d="M18.1193 75.7848C17.8764 76.9872 17.334 77.8679 16.4919 78.4269C15.6394 78.9838 14.6068 79.1397 13.3939 78.8947C12.6098 78.7363 11.9514 78.44 11.4188 78.006C10.8758 77.5698 10.4971 77.0471 10.2828 76.438C10.0602 75.8163 10.0217 75.1447 10.1675 74.4232C10.3766 73.3882 10.8748 72.6454 11.6623 72.1951C12.4392 71.7427 13.408 71.6337 14.5686 71.8681L15.0547 71.9664L13.8952 77.7064C14.7714 77.8399 15.486 77.7231 16.039 77.356C16.5815 76.9868 16.9352 76.3944 17.0999 75.5789C17.1928 75.1188 17.2136 74.666 17.1622 74.2203C17.1003 73.7725 16.9453 73.3277 16.6972 72.8858L17.6799 72.6273C17.9343 73.0378 18.1017 73.5286 18.1822 74.0999C18.2522 74.669 18.2313 75.2307 18.1193 75.7848ZM11.1148 74.582C10.9691 75.3034 11.0787 75.9186 11.4438 76.4277C11.8089 76.9367 12.35 77.3018 13.0671 77.5228L14.0018 72.8963C13.2217 72.7713 12.5793 72.8538 12.0746 73.1436C11.572 73.4229 11.2521 73.9024 11.1148 74.582Z" fill="#FFFFFC"/>
<path d="M20.2536 68.1684C19.9867 69.0461 19.5569 69.6345 18.9643 69.9337C18.3614 70.2298 17.6211 70.2444 16.7435 69.9776L12.8399 68.7907L12.3978 70.245L11.4333 69.9518L11.8755 68.4975L9.59461 67.804L9.97162 66.564L12.2525 67.2575L12.9693 64.9001L13.9337 65.1933L13.2169 67.5508L16.998 68.7004C17.5797 68.8773 18.0609 68.8898 18.4415 68.7379C18.8119 68.583 19.0809 68.23 19.2485 67.6789C19.2981 67.5156 19.3274 67.3461 19.3362 67.1704C19.345 66.9947 19.3492 66.8343 19.3487 66.6892L20.363 66.7635C20.3941 66.9179 20.4015 67.132 20.3851 67.4057C20.3688 67.6795 20.3249 67.9337 20.2536 68.1684Z" fill="#FFFFFC"/>
<path d="M14.2089 61.6746L13.5466 62.0518C13.4033 61.744 13.2497 61.5067 13.0858 61.3397C12.9159 61.159 12.7304 61.0179 12.5295 60.9167L12.2563 61.6173L10.7358 61.0244L11.3287 59.5039L12.402 59.9224C12.8095 60.0813 13.1619 60.2932 13.4594 60.558C13.7568 60.8229 14.0066 61.1951 14.2089 61.6746Z" fill="#FFFFFC"/>
<path d="M24.6379 57.8681C24.3701 58.4139 24.0398 58.8934 23.6469 59.3066C23.254 59.7198 22.8412 60.0163 22.4085 60.196L21.773 59.4208C22.2198 59.2123 22.6113 58.9351 22.9474 58.5891C23.2787 58.2289 23.55 57.8333 23.7615 57.4024C24.0293 56.8565 24.1308 56.3954 24.066 56.019C24.0011 55.6427 23.7963 55.3699 23.4516 55.2007C23.1835 55.0692 22.9282 55.0568 22.6857 55.1635C22.4336 55.2656 22.1682 55.4918 21.8893 55.8421L20.9607 57.0083C20.1195 58.0688 19.2153 58.3618 18.2481 57.8872C17.6161 57.5771 17.2307 57.0791 17.092 56.3932C16.958 55.6977 17.0907 54.943 17.4901 54.1291C17.725 53.6503 18.0248 53.233 18.3895 52.8773C18.7493 52.5072 19.1433 52.2491 19.5715 52.1028L20.2 52.8923C19.8052 53.0432 19.4491 53.2724 19.1318 53.5801C18.8096 53.8735 18.5592 54.2022 18.3807 54.5661C18.1175 55.1023 18.0232 55.561 18.0976 55.942C18.172 56.3231 18.3816 56.5982 18.7263 56.7674C19.2626 57.0305 19.7811 56.8454 20.2821 56.2119L21.1964 55.0387C21.6312 54.4916 22.0745 54.1329 22.5264 53.9626C22.9688 53.7875 23.4389 53.8222 23.9369 54.0665C24.5784 54.3813 24.9615 54.8841 25.0859 55.5749C25.2007 56.261 25.0514 57.0254 24.6379 57.8681Z" fill="#FFFFFC"/>
<path d="M32.3307 45.7611C31.6017 46.7476 30.7375 47.316 29.738 47.4661C28.73 47.6098 27.7283 47.3141 26.7332 46.5788C26.0898 46.1034 25.6186 45.5564 25.3198 44.9377C25.0124 44.3127 24.8905 43.6789 24.9541 43.0363C25.0156 42.3787 25.265 41.754 25.7023 41.1621C26.3299 40.3127 27.0956 39.8507 27.9997 39.7759C28.8951 39.6949 29.8189 40.0061 30.7712 40.7097L31.1701 41.0045L27.6902 45.7143C28.4276 46.2061 29.1245 46.4027 29.7809 46.3042C30.4287 46.1992 30.9998 45.8122 31.4942 45.143C31.7731 44.7656 31.9836 44.364 32.1256 43.9385C32.259 43.5066 32.3069 43.038 32.2691 42.5326L33.2688 42.7143C33.3256 43.1939 33.2696 43.7095 33.1007 44.2611C32.9233 44.8064 32.6666 45.3064 32.3307 45.7611ZM26.4935 41.7068C26.0561 42.2987 25.8951 42.9026 26.0104 43.5183C26.1258 44.134 26.4615 44.6938 27.0177 45.1975L29.8225 41.4013C29.1687 40.958 28.5518 40.7608 27.9719 40.8098C27.3983 40.8502 26.9055 41.1492 26.4935 41.7068Z" fill="#FFFFFC"/>
<path d="M34.5657 42.7618L33.798 37.6642L28.9726 37.3562L30.0125 36.2257L33.6476 36.5042L33.0779 32.8931L34.1069 31.7744L34.8162 36.5573L39.96 36.8974L38.9201 38.0279L34.9792 37.7508L35.6055 41.6313L34.5657 42.7618Z" fill="#FFFFFC"/>
<path d="M42.8722 38.3369L35.8782 30.2974L36.8318 29.4677L37.7455 30.5179C37.6075 30.0018 37.624 29.4926 37.795 28.9904C37.9671 28.4731 38.2865 28.0114 38.7532 27.6053C39.2763 27.1503 39.8395 26.8795 40.4429 26.7929C41.0472 26.6913 41.6535 26.7788 42.2618 27.0555C42.8712 27.3171 43.4489 27.7618 43.995 28.3895C44.534 29.0092 44.8945 29.6429 45.0762 30.2906C45.2591 30.9233 45.2618 31.5359 45.0845 32.1284C44.9153 32.714 44.5691 33.2343 44.046 33.6893C43.5953 34.0814 43.1054 34.3308 42.5763 34.4377C42.0472 34.5445 41.5441 34.4944 41.0671 34.2874L43.85 37.4863L42.8722 38.3369ZM43.1582 33.0832C43.7054 32.6071 43.976 32.0324 43.9699 31.3591C43.9568 30.6777 43.6352 29.9749 43.0051 29.2506C42.368 28.5183 41.7165 28.1025 41.0505 28.0033C40.3845 27.904 39.7779 28.0924 39.2306 28.5685C38.6834 29.0446 38.4128 29.6193 38.4189 30.2926C38.425 30.9659 38.7466 31.6688 39.3837 32.4011C40.0138 33.1254 40.6653 33.5412 41.3383 33.6484C42.0043 33.7477 42.6109 33.5593 43.1582 33.0832Z" fill="#FFFFFC"/>
<path d="M49.9542 29.2703C49.3118 29.729 48.6925 29.8895 48.096 29.7518C47.5021 29.5992 46.9479 29.1626 46.4334 28.4422L41.3751 21.3588L42.4298 20.6057L47.4323 27.6109C48.0956 28.5397 48.7961 28.7407 49.534 28.2138C49.751 28.0588 49.9277 27.8933 50.0641 27.7172L50.6704 28.6212C50.4447 28.8742 50.2059 29.0905 49.9542 29.2703Z" fill="#FFFFFC"/>
<path d="M55.6037 25.8132C54.9495 26.1948 54.2996 26.3826 53.6539 26.3765C53.0082 26.3704 52.4012 26.1873 51.833 25.8272C51.2687 25.4525 50.7795 24.9105 50.3657 24.2011C49.9518 23.4916 49.7233 22.8037 49.6803 22.1372C49.6411 21.4562 49.7777 20.8331 50.0902 20.268C50.4026 19.7029 50.8859 19.2295 51.5401 18.8479C52.185 18.4716 52.8304 18.2865 53.4761 18.2926C54.131 18.2934 54.7407 18.4811 55.305 18.8557C55.8732 19.2158 56.3643 19.7505 56.7781 20.46C57.192 21.1694 57.4186 21.8646 57.4578 22.5457C57.5008 23.2121 57.3615 23.8306 57.0398 24.4011C56.7273 24.9662 56.2486 25.4369 55.6037 25.8132ZM55.0796 24.9149C55.7061 24.5494 56.0793 24.0353 56.199 23.3727C56.3134 22.7008 56.1287 21.9503 55.6449 21.1211C55.1558 20.2827 54.5933 19.7526 53.9576 19.5307C53.3218 19.3088 52.6907 19.3807 52.0642 19.7462C51.4284 20.1171 51.0507 20.6338 50.931 21.2964C50.8204 21.9537 51.0098 22.7015 51.4989 23.5399C51.9827 24.3691 52.5405 24.902 53.1724 25.1384C53.8082 25.3603 54.4439 25.2857 55.0796 24.9149Z" fill="#FFFFFC"/>
<path d="M60.0531 23.3818L56.7952 16.3211L57.943 15.7916L58.5262 17.0555C58.5106 16.0289 59.0687 15.2017 60.2004 14.5738L60.6016 14.3358L61.158 15.3125L60.4573 15.7416C59.8158 16.108 59.4057 16.5557 59.2268 17.0847C59.0435 17.6039 59.0971 18.1783 59.3875 18.8079L61.2444 22.8321L60.0531 23.3818Z" fill="#FFFFFC"/>
<path d="M69.298 19.8577C68.1401 20.2626 67.1059 20.2458 66.1953 19.8072C65.2813 19.3584 64.62 18.5501 64.2115 17.3822C63.9474 16.627 63.866 15.9097 63.9673 15.2301C64.0651 14.5405 64.3212 13.948 64.7356 13.4528C65.1565 12.944 65.7144 12.568 66.4091 12.3251C67.4059 11.9764 68.2989 12.0257 69.0881 12.4729C69.8738 12.91 70.4621 13.6873 70.853 14.8049L71.0168 15.2731L65.4891 17.2065C65.8217 18.0281 66.287 18.5829 66.8849 18.871C67.4794 19.149 68.1693 19.1507 68.9546 18.876C69.3976 18.721 69.7976 18.5077 70.1546 18.2359C70.508 17.9541 70.8114 17.5937 71.0647 17.1548L71.7887 17.8678C71.5656 18.2961 71.229 18.6907 70.7789 19.0515C70.3253 19.4023 69.8316 19.671 69.298 19.8577ZM66.7563 13.2207C66.0615 13.4636 65.5885 13.872 65.3372 14.4459C65.0859 15.0197 65.0482 15.6713 65.2243 16.4008L69.6796 14.8424C69.3888 14.1079 68.99 13.5977 68.4831 13.3116C67.9863 13.0221 67.4107 12.9918 66.7563 13.2207Z" fill="#FFFFFC"/>
<path d="M82.725 16.8072C81.82 16.9569 81.1021 16.8324 80.5712 16.4337C80.0386 16.0245 79.6974 15.3674 79.5477 14.4624L78.8817 10.4371L77.3821 10.6852L77.2176 9.69072L78.7172 9.44261L78.328 7.09058L79.6066 6.87904L79.9958 9.23106L82.4267 8.82887L82.5913 9.82335L80.1603 10.2255L80.8054 14.1245C80.9046 14.7244 81.1067 15.1613 81.4115 15.4352C81.7145 15.6986 82.1502 15.7833 82.7185 15.6893C82.8868 15.6614 83.0517 15.6125 83.2132 15.5425C83.3746 15.4726 83.5202 15.4053 83.65 15.3405L84.033 16.2827C83.9083 16.379 83.7197 16.4804 83.4671 16.5871C83.2144 16.6938 82.9671 16.7671 82.725 16.8072Z" fill="#FFFFFC"/>
<path d="M85.9422 16.3169L85.2174 5.06025L86.5108 4.97698L86.8181 9.75109C87.0435 9.26628 87.3774 8.89205 87.8201 8.62839C88.2727 8.35341 88.7864 8.19742 89.3612 8.16041C91.2027 8.04184 92.1893 9.00444 92.3209 11.0482L92.6324 15.8862L91.339 15.9695L91.0327 11.2113C90.9861 10.4875 90.8084 9.96982 90.4998 9.65835C90.2011 9.33554 89.7431 9.19401 89.1257 9.23376C88.4125 9.27968 87.8574 9.53988 87.4604 10.0144C87.0733 10.4775 86.9035 11.0763 86.9508 11.8108L87.2355 16.2337L85.9422 16.3169Z" fill="#FFFFFC"/>
<path d="M98.2778 16.3474C97.0524 16.2899 96.0996 15.8875 95.4192 15.1402C94.7393 14.3821 94.4283 13.3851 94.4863 12.1492C94.5238 11.35 94.7166 10.6543 95.0647 10.062C95.4134 9.45898 95.8724 9.00532 96.442 8.70101C97.0227 8.38654 97.6807 8.24654 98.4158 8.28103C99.4707 8.3305 100.28 8.7102 100.845 9.4201C101.41 10.1193 101.665 11.0603 101.61 12.243L101.586 12.7385L95.7369 12.4641C95.738 13.3505 95.962 14.039 96.4089 14.5299C96.8562 15.01 97.4954 15.2696 98.3265 15.3086C98.7953 15.3305 99.2461 15.2823 99.6788 15.1638C100.112 15.0346 100.528 14.8138 100.927 14.5015L101.332 15.4335C100.965 15.7473 100.505 15.9874 99.9527 16.1537C99.4008 16.3093 98.8425 16.3739 98.2778 16.3474ZM98.4028 9.24147C97.6676 9.20699 97.0762 9.40883 96.6285 9.84701C96.1808 10.2852 95.9022 10.8754 95.7926 11.6178L100.507 11.8389C100.512 11.049 100.333 10.4266 99.9703 9.97172C99.6179 9.51737 99.0954 9.27396 98.4028 9.24147Z" fill="#FFFFFC"/>
<path d="M111.992 18.5849C111.233 18.4096 110.616 18.0973 110.139 17.6479C109.665 17.188 109.346 16.6271 109.181 15.9651C109.03 15.2951 109.046 14.5599 109.231 13.7597C109.51 12.5541 110.055 11.684 110.869 11.1493C111.684 10.6042 112.664 10.4638 113.807 10.7279C114.275 10.8359 114.718 11.0259 115.137 11.2978C115.556 11.5698 115.881 11.8912 116.113 12.2623L115.464 13.0812C115.23 12.7206 114.946 12.4307 114.614 12.2115C114.292 11.9948 113.969 11.8492 113.647 11.7748C112.857 11.5923 112.192 11.7013 111.65 12.1017C111.111 12.4917 110.735 13.1492 110.521 14.0742C110.313 14.9784 110.36 15.7447 110.664 16.3732C110.97 16.9913 111.518 17.3916 112.307 17.574C112.63 17.6485 112.983 17.6589 113.368 17.6055C113.763 17.5544 114.146 17.413 114.517 17.1812L114.741 18.2018C114.37 18.4336 113.93 18.5838 113.421 18.6524C112.926 18.7131 112.449 18.6906 111.992 18.5849Z" fill="#FFFFFC"/>
<path d="M116.246 19.6878L118.685 12.3042L119.885 12.7006L119.448 14.0224C120.138 13.2616 121.11 13.038 122.366 13.3517L122.821 13.4516L122.561 14.5452L121.756 14.3804C121.037 14.2103 120.432 14.2575 119.94 14.522C119.452 14.7763 119.099 15.2326 118.881 15.8909L117.491 20.0993L116.246 19.6878Z" fill="#FFFFFC"/>
<path d="M125.407 23.4231C124.285 22.9287 123.54 22.2104 123.174 21.2683C122.813 20.3165 122.881 19.2743 123.38 18.142C123.702 17.4098 124.132 16.8301 124.67 16.4026C125.213 15.9654 125.804 15.7073 126.445 15.6282C127.1 15.5437 127.764 15.6498 128.438 15.9465C129.404 16.3721 130.023 17.0177 130.295 17.8832C130.571 18.739 130.47 19.7086 129.993 20.7922L129.793 21.2461L124.433 18.8857C124.116 19.7132 124.077 20.4362 124.317 21.0549C124.562 21.6639 125.065 22.136 125.826 22.4714C126.256 22.6605 126.694 22.7777 127.14 22.8227C127.591 22.858 128.059 22.8018 128.543 22.6539L128.586 23.6692C128.13 23.8299 127.615 23.8885 127.04 23.8449C126.469 23.7916 125.925 23.651 125.407 23.4231ZM128.08 16.8379C127.407 16.5413 126.782 16.5168 126.207 16.7646C125.631 17.0124 125.159 17.4629 124.79 18.1161L129.109 20.0186C129.398 19.2834 129.455 18.6382 129.28 18.0832C129.115 17.5325 128.715 17.1174 128.08 16.8379Z" fill="#FFFFFC"/>
<path d="M131.734 26.7851C131.272 26.5191 130.906 26.1919 130.638 25.8034C130.383 25.411 130.24 24.9965 130.209 24.5598C130.177 24.123 130.273 23.7106 130.496 23.3223C130.778 22.8323 131.127 22.5158 131.541 22.3729C131.965 22.2352 132.503 22.2739 133.154 22.4889C133.82 22.7 134.662 23.0982 135.679 23.6834L136.123 23.9388L136.37 23.5089C136.7 22.9357 136.817 22.4551 136.72 22.0672C136.638 21.6753 136.338 21.3304 135.82 21.0325C135.413 20.7984 134.986 20.6323 134.537 20.5344C134.095 20.4272 133.6 20.3886 133.053 20.4187L133.136 19.3771C133.631 19.3296 134.171 19.3756 134.755 19.515C135.349 19.6597 135.876 19.8651 136.339 20.1311C137.208 20.6312 137.728 21.2136 137.899 21.8783C138.08 22.5483 137.912 23.3317 137.396 24.2285L134.954 28.4719L133.9 27.8654L134.57 26.7005C134.166 26.997 133.712 27.1544 133.209 27.1727C132.716 27.1963 132.224 27.0671 131.734 26.7851ZM132.401 26.043C132.956 26.3622 133.518 26.4334 134.087 26.2565C134.662 26.0704 135.12 25.6815 135.46 25.0898L135.7 24.6738L135.27 24.4264C134.521 23.9954 133.908 23.6919 133.431 23.5158C132.968 23.3358 132.599 23.283 132.322 23.3576C132.06 23.4283 131.844 23.6115 131.673 23.9073C131.455 24.2864 131.406 24.6706 131.527 25.0599C131.657 25.4546 131.948 25.7823 132.401 26.043Z" fill="#FFFFFC"/>
<path d="M139.195 31.7524C138.447 31.2209 138.026 30.6266 137.93 29.9696C137.841 29.304 138.062 28.5973 138.593 27.8497L140.957 24.5244L139.718 23.6437L140.303 22.8221L141.541 23.7029L142.923 21.7599L143.979 22.5108L142.598 24.4538L144.606 25.8815L144.022 26.7031L142.014 25.2754L139.724 28.4963C139.371 28.9918 139.207 29.4442 139.23 29.8533C139.259 30.2538 139.509 30.6209 139.978 30.9546C140.117 31.0535 140.269 31.135 140.433 31.1991C140.596 31.2632 140.747 31.3181 140.885 31.3637L140.493 32.302C140.336 32.2825 140.131 32.2215 139.877 32.1192C139.622 32.0168 139.395 31.8946 139.195 31.7524Z" fill="#FFFFFC"/>
<path d="M148.011 26.2182L148.943 25.0996L150.172 26.1239L149.24 27.2425L148.011 26.2182ZM141.916 33.7818L146.894 27.808L147.89 28.6376L142.912 34.6115L141.916 33.7818Z" fill="#FFFFFC"/>
<path d="M147.415 38.8253L150.529 30.9544L151.527 31.9475L148.907 38.2332L155.202 35.6038L156.143 36.5405L148.277 39.683L147.415 38.8253Z" fill="#FFFFFC"/>
<path d="M153.533 46.0188C152.761 45.0654 152.428 44.0861 152.534 43.081C152.648 42.0691 153.186 41.1739 154.148 40.3953C154.769 39.8919 155.417 39.5733 156.091 39.4394C156.773 39.2988 157.417 39.34 158.023 39.563C158.644 39.7876 159.187 40.1859 159.65 40.7579C160.314 41.5787 160.569 42.4359 160.414 43.3297C160.268 44.2169 159.735 45.0329 158.814 45.778L158.429 46.0901L154.744 41.5388C154.083 42.1291 153.717 42.7542 153.648 43.4143C153.587 44.0677 153.818 44.7177 154.342 45.3643C154.637 45.7291 154.973 46.0337 155.349 46.278C155.734 46.5157 156.175 46.6797 156.674 46.77L156.247 47.6921C155.768 47.6266 155.283 47.4429 154.792 47.1409C154.309 46.8322 153.889 46.4581 153.533 46.0188ZM158.924 41.3869C158.461 40.8149 157.916 40.5074 157.292 40.4644C156.667 40.4214 156.04 40.6058 155.413 41.0176L158.383 44.686C158.977 44.1644 159.322 43.6168 159.421 43.0432C159.526 42.4779 159.36 41.9258 158.924 41.3869Z" fill="#FFFFFC"/>
<path d="M160.454 56.4709L166.03 50.3257L166.655 51.5336L162.106 56.3551L168.706 55.4985L169.214 56.479L164.672 61.3505L171.265 60.4439L171.86 61.595L163.616 62.5816L163.05 61.4874L167.4 56.7688L161.028 57.5794L160.454 56.4709Z" fill="#FFFFFC"/>
<path d="M165.307 67.9316C165.047 67.2204 164.976 66.5476 165.096 65.9131C165.216 65.2785 165.503 64.7133 165.958 64.2175C166.426 63.728 167.046 63.3421 167.817 63.0598C168.588 62.7774 169.306 62.6738 169.969 62.7489C170.647 62.8304 171.236 63.0747 171.737 63.4819C172.238 63.8891 172.619 64.4483 172.88 65.1595C173.136 65.8606 173.205 66.5285 173.085 67.163C172.969 67.8076 172.676 68.3746 172.208 68.8641C171.754 69.3599 171.141 69.749 170.369 70.0313C169.598 70.3137 168.874 70.4141 168.196 70.3326C167.533 70.2575 166.949 70.0114 166.444 69.5942C165.943 69.187 165.564 68.6328 165.307 67.9316ZM166.284 67.5741C166.533 68.2552 166.973 68.7131 167.604 68.9478C168.245 69.1788 169.017 69.1293 169.918 68.7993C170.83 68.4656 171.451 68.0054 171.781 67.4187C172.112 66.832 172.152 66.1981 171.903 65.517C171.65 64.8259 171.208 64.3629 170.577 64.1283C169.949 63.9036 169.18 63.9581 168.268 64.2918C167.367 64.6218 166.744 65.077 166.4 65.6574C166.069 66.244 166.031 66.883 166.284 67.5741Z" fill="#FFFFFC"/>
<path d="M166.916 72.7398L174.44 70.7776L174.759 72.0007L173.412 72.352C174.426 72.5176 175.141 73.2128 175.56 74.4375L175.724 74.8744L174.664 75.2499L174.365 74.4845C174.118 73.7885 173.749 73.3058 173.26 73.0365C172.781 72.7645 172.206 72.716 171.536 72.891L167.247 74.0093L166.916 72.7398Z" fill="#FFFFFC"/>
<path d="M168.34 79.0031L179.47 77.1716L179.681 78.4504L172.813 79.5805L172.818 79.6121L176.813 82.6031L177.081 84.2293L172.752 80.985L169.462 85.8234L169.195 84.1973L172.155 79.7212L172.15 79.6896L168.55 80.2819L168.34 79.0031Z" fill="#FFFFFC"/>
<path d="M169.315 86.4729L170.942 86.3445L171.071 87.9715L169.444 88.0999L169.315 86.4729Z" fill="#FFFFFC"/>
<path d="M93.0499 127.106L93.0499 58M71.0908 102.821C76.6691 102.821 93.0499 107.745 93.0499 127.213C93.0499 107.745 109.431 102.821 115.009 102.821" stroke="#FFFFFC" stroke-width="2"/>
</svg>
