<svg width="253" height="252" viewBox="0 0 253 252" fill="none" xmlns="http://www.w3.org/2000/svg">
<path d="M114.191 229.553C113.602 229.484 113.038 229.527 112.5 229.683C111.954 229.847 111.488 230.126 111.103 230.521C110.709 230.923 110.451 231.439 110.329 232.069L109.003 231.912C109.136 231.118 109.465 230.433 109.99 229.858C110.505 229.29 111.145 228.87 111.909 228.598C112.664 228.334 113.472 228.253 114.333 228.355C115.21 228.459 115.967 228.71 116.604 229.108C117.234 229.505 117.74 230.014 118.123 230.633C118.505 231.261 118.767 231.968 118.91 232.756C119.044 233.551 119.058 234.391 118.953 235.275L118.895 235.764C118.79 236.648 118.58 237.457 118.265 238.191C117.941 238.931 117.521 239.558 117.004 240.071C116.486 240.592 115.874 240.972 115.169 241.211C114.465 241.45 113.674 241.517 112.797 241.413C111.897 241.306 111.112 241.029 110.441 240.579C109.763 240.129 109.25 239.545 108.903 238.827C108.547 238.109 108.404 237.289 108.474 236.369L109.801 236.526C109.76 237.206 109.869 237.809 110.129 238.335C110.389 238.862 110.764 239.288 111.252 239.613C111.741 239.939 112.303 240.139 112.939 240.215C113.653 240.299 114.279 240.232 114.816 240.012C115.352 239.8 115.808 239.473 116.183 239.03C116.55 238.593 116.843 238.077 117.063 237.482C117.282 236.894 117.431 236.267 117.51 235.6L117.568 235.111C117.648 234.436 117.655 233.784 117.588 233.154C117.512 232.532 117.347 231.965 117.093 231.455C116.831 230.944 116.465 230.519 115.993 230.18C115.514 229.848 114.913 229.639 114.191 229.553Z" fill="#F5EDF9"/>
<path d="M100.553 232.5L100.441 232.87C100.176 233.753 99.8028 234.53 99.3232 235.201C98.8435 235.873 98.2859 236.41 97.6501 236.814C97.0069 237.216 96.3073 237.467 95.5514 237.565C94.7933 237.672 94.0065 237.602 93.1911 237.356C92.3683 237.108 91.6701 236.731 91.0967 236.224C90.5211 235.724 90.0761 235.129 89.7618 234.439C89.4475 233.748 89.2759 232.991 89.2468 232.166C89.2178 231.342 89.3362 230.488 89.602 229.605L89.7136 229.235C89.9794 228.352 90.3522 227.575 90.8318 226.904C91.3092 226.24 91.8695 225.707 92.5127 225.305C93.1485 224.901 93.8454 224.646 94.6035 224.539C95.3594 224.441 96.1451 224.514 96.9605 224.76C97.7833 225.008 98.4826 225.381 99.0582 225.881C99.6316 226.388 100.075 226.987 100.39 227.677C100.704 228.368 100.877 229.121 100.908 229.938C100.937 230.763 100.819 231.617 100.553 232.5ZM99.1061 232.468L99.2177 232.097C99.4182 231.432 99.5188 230.772 99.5195 230.12C99.5179 229.475 99.4149 228.869 99.2105 228.301C99.0038 227.741 98.6856 227.254 98.2558 226.839C97.8259 226.424 97.2781 226.116 96.6124 225.915C95.9541 225.717 95.3349 225.674 94.7549 225.784C94.1673 225.893 93.6328 226.124 93.1512 226.476C92.6675 226.836 92.2505 227.286 91.9005 227.825C91.5407 228.37 91.2606 228.975 91.0601 229.641L90.9485 230.011C90.7503 230.669 90.6519 231.321 90.6535 231.966C90.6475 232.609 90.7505 233.215 90.9624 233.785C91.1669 234.352 91.4829 234.847 91.9104 235.269C92.338 235.692 92.8809 236.002 93.5392 236.201C94.1975 236.399 94.8216 236.44 95.4113 236.324C95.9936 236.205 96.5304 235.967 97.0217 235.609C97.5055 235.249 97.9262 234.801 98.2837 234.264C98.6337 233.725 98.9079 233.126 99.1061 232.468Z" fill="#F5EDF9"/>
<path d="M78.2569 228.587L82.7892 219.704L84.0314 220.338L78.2689 231.632L77.0789 231.025L78.2569 228.587ZM79.833 226.194L80.2264 226.79C79.8438 227.437 79.3886 227.994 78.8607 228.461C78.3328 228.928 77.7604 229.285 77.1434 229.532C76.5195 229.775 75.8792 229.887 75.2225 229.867C74.5588 229.845 73.9034 229.668 73.2562 229.338C72.6925 229.05 72.227 228.716 71.8598 228.336C71.4925 227.956 71.2375 227.518 71.0948 227.025C70.952 226.531 70.9338 225.982 71.04 225.379C71.1393 224.771 71.3807 224.092 71.7641 223.34L75.5135 215.992L76.7662 216.631L73.0114 223.99C72.6138 224.769 72.411 225.433 72.403 225.982C72.3915 226.537 72.5362 227.01 72.837 227.4C73.1378 227.791 73.5596 228.124 74.1024 228.401C74.7008 228.707 75.2937 228.843 75.881 228.809C76.4577 228.779 77.0057 228.633 77.525 228.371C78.0337 228.114 78.4888 227.789 78.8903 227.397C79.2882 227.013 79.6025 226.612 79.833 226.194Z" fill="#F5EDF9"/>
<path d="M56.56 218.627L57.2298 217.695L62.3892 221.399L61.7193 222.332L56.56 218.627ZM57.9249 223.618L56.7922 222.805L64.2901 212.362C64.6319 211.886 64.8259 211.482 64.8721 211.15C64.9183 210.818 64.8695 210.537 64.7257 210.309C64.5818 210.081 64.3925 209.882 64.1577 209.714C63.9864 209.591 63.8145 209.482 63.6422 209.387C63.4654 209.298 63.3043 209.221 63.1592 209.156L63.8019 208.16C63.9734 208.216 64.1794 208.311 64.4197 208.445C64.6646 208.573 64.8981 208.716 65.1202 208.876C65.5581 209.19 65.8882 209.547 66.1107 209.948C66.3285 210.354 66.3914 210.822 66.2993 211.352C66.2026 211.889 65.9082 212.5 65.4161 213.185L57.9249 223.618Z" fill="#F5EDF9"/>
<path d="M50.7035 199.673L46.1564 204.373C45.7381 204.805 45.4666 205.265 45.3421 205.754C45.2175 206.242 45.2478 206.739 45.4329 207.244C45.618 207.749 45.966 208.249 46.4769 208.743C46.9485 209.2 47.4511 209.523 47.9846 209.713C48.5071 209.903 49.0108 209.961 49.4958 209.887C49.9697 209.813 50.3697 209.607 50.6956 209.271L51.6981 210.257C51.3667 210.599 50.9619 210.849 50.4838 211.006C50.0057 211.163 49.4901 211.219 48.9368 211.172C48.3835 211.126 47.8229 210.97 47.255 210.703C46.676 210.436 46.1283 210.053 45.6117 209.553C44.9605 208.923 44.4937 208.259 44.2115 207.562C43.9237 206.86 43.8514 206.154 43.9944 205.444C44.1374 204.735 44.5295 204.049 45.1705 203.386L49.4324 198.982C49.7367 198.667 50.0293 198.32 50.3104 197.94C50.5858 197.554 50.7845 197.208 50.9066 196.902L51.0044 196.801L52.0739 197.836C51.9457 198.103 51.7546 198.408 51.5005 198.749C51.2354 199.09 50.9697 199.398 50.7035 199.673ZM46.9148 203.117L47.6476 202.326L49.6267 204.241C50.1432 204.741 50.6526 205.141 51.1548 205.442C51.6459 205.744 52.1188 205.94 52.5734 206.032C53.0225 206.13 53.4424 206.129 53.833 206.028C54.218 205.922 54.5626 205.712 54.8669 205.398C55.182 205.072 55.3885 204.696 55.4864 204.269C55.5788 203.836 55.5521 203.392 55.4065 202.936C55.2498 202.48 54.9609 202.048 54.5399 201.641C53.9784 201.098 53.3839 200.723 52.7562 200.518C52.1228 200.308 51.5028 200.235 50.8962 200.3C50.2895 200.365 49.7456 200.551 49.2644 200.857L49.3888 199.853C49.7334 199.642 50.1479 199.484 50.6323 199.376C51.1057 199.269 51.6218 199.236 52.1805 199.276C52.7337 199.322 53.2997 199.468 53.8783 199.712C54.4459 199.957 54.9935 200.335 55.5213 200.846C56.1164 201.421 56.5271 202.036 56.7533 202.69C56.9739 203.338 57.0203 203.976 56.8925 204.602C56.7536 205.229 56.4452 205.789 55.9671 206.283C55.5325 206.732 55.0486 207.041 54.5154 207.21C53.9769 207.385 53.4084 207.422 52.81 207.321C52.2006 207.221 51.578 206.988 50.9421 206.623C50.2952 206.258 49.6518 205.766 49.0117 205.146L46.9148 203.117Z" fill="#F5EDF9"/>
<path d="M42.1371 187.478C41.7863 186.999 41.3704 186.616 40.8892 186.329C40.3972 186.04 39.8755 185.89 39.324 185.877C38.7616 185.863 38.2082 186.026 37.6636 186.367L36.8743 185.289C37.5467 184.845 38.272 184.619 39.0502 184.611C39.8176 184.601 40.5609 184.783 41.2801 185.157C41.9883 185.529 42.5986 186.065 43.111 186.764C43.6325 187.477 43.9648 188.202 44.108 188.939C44.2465 189.671 44.2195 190.388 44.027 191.09C43.8283 191.797 43.4893 192.472 43.01 193.113C42.5198 193.753 41.9155 194.336 41.1969 194.862L40.7998 195.153C40.0812 195.679 39.3461 196.077 38.5945 196.346C37.832 196.614 37.0869 196.734 36.359 196.705C35.6249 196.681 34.9301 196.492 34.2747 196.14C33.6194 195.787 33.0309 195.254 32.5094 194.542C31.974 193.811 31.6421 193.047 31.5137 192.25C31.3807 191.447 31.4583 190.673 31.7466 189.93C32.0302 189.18 32.5324 188.517 33.2531 187.941L34.0423 189.018C33.517 189.451 33.1504 189.943 32.9425 190.492C32.7347 191.041 32.6782 191.605 32.7731 192.185C32.8681 192.764 33.1048 193.312 33.4832 193.829C33.9079 194.409 34.3836 194.82 34.9106 195.064C35.4312 195.312 35.9815 195.422 36.5616 195.395C37.1307 195.365 37.7081 195.228 38.2937 194.983C38.8731 194.743 39.4338 194.424 39.9759 194.027L40.373 193.737C40.9214 193.335 41.403 192.895 41.8179 192.417C42.2219 191.937 42.5238 191.431 42.7237 190.897C42.919 190.357 42.9801 189.799 42.907 189.223C42.823 188.646 42.5663 188.064 42.1371 187.478Z" fill="#F5EDF9"/>
<path d="M22.4633 177.675L23.4788 177.139L26.4445 182.756L25.429 183.292L22.4633 177.675ZM21.4592 182.751L20.8081 181.518L32.1761 175.515C32.6943 175.242 33.0481 174.966 33.2377 174.69C33.4273 174.413 33.5086 174.14 33.4817 173.872C33.4548 173.603 33.3738 173.341 33.2389 173.086C33.1404 172.899 33.0352 172.725 32.9232 172.563C32.8044 172.405 32.6947 172.264 32.5941 172.141L33.6134 171.536C33.742 171.663 33.884 171.839 34.0393 172.067C34.2015 172.29 34.3464 172.523 34.4741 172.765C34.7258 173.241 34.862 173.708 34.8826 174.166C34.8963 174.627 34.7437 175.074 34.4248 175.507C34.099 175.944 33.5631 176.36 32.8169 176.754L21.4592 182.751Z" fill="#F5EDF9"/>
<path d="M22.1428 147.227L12.6519 149.46L12.3299 148.091L24.6725 145.187L24.9812 146.499L22.1428 147.227ZM19.8023 147.513L19.613 146.811C20.3887 146.628 21.1251 146.552 21.822 146.58C22.519 146.609 23.1564 146.76 23.7344 147.033C24.3124 147.306 24.8069 147.72 25.218 148.273C25.6291 148.826 25.9367 149.537 26.1407 150.404C26.282 151.004 26.3281 151.575 26.2789 152.117C26.2203 152.652 26.0467 153.142 25.7582 153.588C25.4697 154.033 25.0521 154.424 24.5054 154.761C23.957 155.091 23.2607 155.355 22.4165 155.554L14.5227 157.411L14.2033 156.054L22.12 154.191C22.7816 154.035 23.3159 153.833 23.723 153.585C24.1283 153.329 24.4336 153.04 24.6389 152.719C24.8425 152.39 24.961 152.042 24.9946 151.672C25.0281 151.303 24.9984 150.921 24.9053 150.526C24.6691 149.522 24.2891 148.777 23.7653 148.29C23.2396 147.796 22.6326 147.501 21.9441 147.406C21.2463 147.306 20.5323 147.341 19.8023 147.513Z" fill="#F5EDF9"/>
<path d="M19.6891 128.82C19.3459 128.84 19.0115 128.945 18.6858 129.135C18.3601 129.326 18.0708 129.675 17.8178 130.182C17.5644 130.682 17.3669 131.409 17.2253 132.364C17.1091 133.075 16.9692 133.712 16.8055 134.277C16.6414 134.834 16.4335 135.308 16.1817 135.698C15.9299 136.088 15.6184 136.391 15.2472 136.607C14.8761 136.824 14.4292 136.947 13.9066 136.977C13.4386 137.003 12.9922 136.927 12.5673 136.747C12.1342 136.561 11.7508 136.285 11.4171 135.921C11.0752 135.549 10.7991 135.095 10.5888 134.559C10.3781 134.015 10.2533 133.4 10.2144 132.714C10.1592 131.739 10.2796 130.895 10.5757 130.182C10.8636 129.461 11.2818 128.901 11.8305 128.502C12.3787 128.096 13.0116 127.872 13.7292 127.832L13.808 129.224C13.3712 129.249 12.9651 129.401 12.5897 129.68C12.2138 129.952 11.915 130.34 11.6932 130.846C11.471 131.344 11.3797 131.944 11.4195 132.646C11.4606 133.371 11.6031 133.954 11.8471 134.394C12.0911 134.834 12.3868 135.15 12.7341 135.341C13.081 135.525 13.4339 135.607 13.7927 135.586C14.0735 135.571 14.3284 135.513 14.5576 135.414C14.7785 135.308 14.9798 135.132 15.1616 134.887C15.3429 134.634 15.5067 134.28 15.6532 133.826C15.7996 133.372 15.9346 132.785 16.0582 132.066C16.2266 131.031 16.4562 130.181 16.7471 129.515C17.0298 128.842 17.4003 128.336 17.8584 127.997C18.3087 127.658 18.8693 127.47 19.5401 127.432C20.0627 127.403 20.5486 127.485 20.9977 127.678C21.4391 127.872 21.8275 128.167 22.1629 128.563C22.4979 128.951 22.7675 129.429 22.9718 129.996C23.1756 130.556 23.2976 131.191 23.3378 131.9C23.3983 132.969 23.2741 133.884 22.965 134.645C22.6477 135.398 22.2113 135.982 21.6558 136.397C21.092 136.805 20.4825 137.027 19.8273 137.064L19.7484 135.672C20.401 135.588 20.908 135.352 21.2694 134.964C21.6231 134.576 21.8629 134.112 21.9888 133.573C22.1144 133.026 22.1623 132.491 22.1327 131.969C22.0921 131.251 21.9528 130.656 21.7148 130.185C21.4768 129.713 21.1792 129.362 20.8218 129.132C20.4645 128.902 20.0869 128.798 19.6891 128.82Z" fill="#F5EDF9"/>
<path d="M12.9137 100.773L14.0407 100.994L12.8198 107.227L11.6927 107.006L12.9137 100.773ZM8.94398 104.092L9.21205 102.723L21.8278 105.194C22.4028 105.307 22.851 105.315 23.1723 105.219C23.4937 105.123 23.7283 104.962 23.876 104.736C24.0237 104.51 24.1254 104.255 24.1809 103.972C24.2215 103.765 24.249 103.563 24.2636 103.367C24.2704 103.169 24.2736 102.991 24.2729 102.831L25.4457 103.001C25.4663 103.18 25.4657 103.407 25.4438 103.682C25.4296 103.957 25.3962 104.229 25.3436 104.498C25.24 105.027 25.0526 105.476 24.7813 105.845C24.5024 106.212 24.1027 106.464 23.5823 106.601C23.0542 106.736 22.3762 106.723 21.5482 106.561L8.94398 104.092Z" fill="#F5EDF9"/>
<path d="M21.2184 94.2451L20.8544 94.1145C19.9866 93.8033 19.2299 93.3908 18.5842 92.877C17.9385 92.3632 17.4303 91.7784 17.0597 91.1226C16.6917 90.4594 16.4779 89.7478 16.4185 88.9878C16.3518 88.2252 16.4622 87.4431 16.7497 86.6415C17.0398 85.8326 17.453 85.1549 17.9892 84.6086C18.5181 84.0596 19.1354 83.6461 19.841 83.368C20.5467 83.0899 21.312 82.9577 22.1371 82.9714C22.9621 82.9852 23.8085 83.1477 24.6763 83.4589L25.0403 83.5895C25.908 83.9007 26.6648 84.3132 27.3105 84.827C27.9488 85.3382 28.452 85.9253 28.82 86.5885C29.1907 87.2443 29.4094 87.9536 29.4761 88.7162C29.5355 89.4762 29.4215 90.257 29.134 91.0585C28.8439 91.8675 28.4343 92.5464 27.9054 93.0954C27.3692 93.6417 26.7482 94.0539 26.0426 94.332C25.337 94.6101 24.5753 94.7436 23.7576 94.7325C22.9325 94.7188 22.0861 94.5563 21.2184 94.2451ZM21.3252 92.8019L21.6892 92.9324C22.3437 93.1672 22.9967 93.3018 23.6483 93.3363C24.2926 93.3682 24.9034 93.2968 25.4806 93.122C26.0505 92.9447 26.5539 92.6521 26.9906 92.2444C27.4273 91.8366 27.7631 91.3055 27.9978 90.651C28.2299 90.0039 28.3057 89.3878 28.225 88.8028C28.147 88.2104 27.9443 87.6646 27.6171 87.1655C27.2825 86.6637 26.855 86.224 26.3348 85.8465C25.8098 85.459 25.22 85.1479 24.5655 84.9131L24.2015 84.7826C23.5544 84.5505 22.9087 84.4185 22.2644 84.3866C21.6228 84.3474 21.0121 84.4188 20.4322 84.6009C19.8549 84.7756 19.3442 85.0655 18.9001 85.4707C18.456 85.8758 18.1179 86.4019 17.8858 87.049C17.6537 87.6961 17.5803 88.3172 17.6657 88.9122C17.7537 89.4999 17.9637 90.0483 18.2957 90.5574C18.6303 91.0593 19.0564 91.5026 19.5741 91.8875C20.0944 92.265 20.6781 92.5698 21.3252 92.8019Z" fill="#F5EDF9"/>
<path d="M39.2361 64.4318L33.3615 56.1118L33.958 55.3287L35.6818 57.3784L41.7508 66.0233L41.1543 66.8063L39.2361 64.4318ZM29.5836 61.0711L38.9845 64.8588L41.6443 66.1631L41.0265 66.9741L28.7102 62.2178L29.5836 61.0711ZM44.0126 58.2001L37.8495 50.2202L38.7229 49.0736L46.5797 59.6842L45.969 60.4859L44.0126 58.2001ZM34.0787 55.1702L43.5665 58.6117L46.4518 59.852L45.8553 60.6351L35.8571 57.1289L33.4538 55.9906L34.0787 55.1702Z" fill="#F5EDF9"/>
<path d="M49.9342 46.8872L49.6801 46.5957C49.0743 45.9008 48.6149 45.1717 48.3017 44.4082C47.9886 43.6448 47.8301 42.8864 47.8264 42.1331C47.8285 41.3746 47.989 40.6491 48.3078 39.9567C48.6214 39.2583 49.0992 38.6294 49.7411 38.0698C50.3889 37.5051 51.0801 37.115 51.8147 36.8996C52.5441 36.6782 53.2847 36.6182 54.0363 36.7196C54.788 36.8209 55.5206 37.0788 56.2342 37.4931C56.9478 37.9075 57.6075 38.4621 58.2133 39.157L58.4674 39.4485C59.0732 40.1434 59.5326 40.8726 59.8458 41.636C60.1538 42.3936 60.3067 43.1516 60.3046 43.9101C60.3083 44.6634 60.1534 45.3892 59.8397 46.0876C59.521 46.78 59.0406 47.406 58.3987 47.9656C57.7509 48.5303 57.0623 48.9233 56.3328 49.1447C55.5982 49.3601 54.8551 49.4172 54.1035 49.3158C53.3518 49.2145 52.6217 48.9596 51.9133 48.5511C51.1997 48.1368 50.54 47.5821 49.9342 46.8872ZM50.7313 45.6794L50.9854 45.9709C51.4423 46.495 51.9468 46.931 52.4988 47.2789C53.0457 47.6209 53.6137 47.8564 54.2029 47.9854C54.787 48.1085 55.3691 48.0985 55.9492 47.9556C56.5293 47.8126 57.0815 47.5127 57.6056 47.0558C58.1238 46.604 58.4904 46.1031 58.7053 45.553C58.926 44.9978 59.0153 44.4225 58.973 43.8271C58.9256 43.2259 58.7669 42.6336 58.4968 42.0503C58.2274 41.4559 57.8643 40.8967 57.4074 40.3726L57.1533 40.0811C56.7015 39.5628 56.2022 39.1327 55.6553 38.7907C55.1143 38.4435 54.5462 38.208 53.9511 38.0842C53.362 37.9552 52.7747 37.9593 52.1895 38.0964C51.6042 38.2335 51.0525 38.5279 50.5342 38.9797C50.016 39.4314 49.6491 39.9379 49.4334 40.499C49.2237 41.0549 49.1395 41.6361 49.181 42.2425C49.2284 42.8438 49.3842 43.4386 49.6485 44.0271C49.9186 44.6104 50.2795 45.1611 50.7313 45.6794Z" fill="#F5EDF9"/>
<path d="M64.6675 29.7226L70.3003 38.6808L69.1198 39.4231L62.3703 28.6891L63.5211 27.9655L64.6675 29.7226ZM67.3005 25.4783L67.957 26.5883C67.8122 26.6516 67.6728 26.7161 67.5389 26.7819C67.4049 26.8477 67.2651 26.9264 67.1196 27.0179C66.6038 27.3422 66.211 27.723 65.9414 28.1601C65.6743 28.5865 65.5145 29.0515 65.462 29.5552C65.4054 30.0522 65.449 30.5693 65.5929 31.1063C65.7327 31.6368 65.9527 32.1629 66.2531 32.6846L65.9227 33.1277C65.4818 32.4267 65.145 31.7295 64.912 31.0361C64.6791 30.3428 64.57 29.6777 64.5849 29.0408C64.6022 28.3932 64.76 27.8002 65.0583 27.262C65.359 26.7129 65.8203 26.2429 66.442 25.852C66.5941 25.7564 66.7512 25.676 66.9133 25.611C67.0779 25.5352 67.207 25.491 67.3005 25.4783Z" fill="#F5EDF9"/>
<path d="M74.9493 15.5518L82.2082 32.0232L80.9321 32.5856L73.6732 16.1141L74.9493 15.5518ZM84.3761 17.2114L81.3224 24.9859L79.9998 28.2325L79.2539 27.0629L80.2253 24.24L82.7569 17.925L84.3761 17.2114ZM88.3743 29.3058L80.8713 25.4152L81.0923 23.9988L89.9185 28.6253L88.3743 29.3058Z" fill="#F5EDF9"/>
<path d="M109.463 10.6576L109.657 11.7895L103.396 12.8629L103.202 11.731L109.463 10.6576ZM104.95 8.12595L106.325 7.89028L108.497 20.5608C108.596 21.1384 108.748 21.5602 108.952 21.8264C109.156 22.0926 109.39 22.2546 109.654 22.3125C109.917 22.3703 110.192 22.3748 110.476 22.326C110.684 22.2903 110.883 22.2445 111.071 22.1884C111.258 22.1245 111.426 22.064 111.575 22.0068L111.833 23.1635C111.673 23.2465 111.46 23.3264 111.196 23.4034C110.933 23.4882 110.667 23.5536 110.398 23.5998C109.866 23.6909 109.38 23.6752 108.939 23.5527C108.497 23.4224 108.119 23.1384 107.806 22.7006C107.492 22.2551 107.263 21.6166 107.121 20.785L104.95 8.12595Z" fill="#F5EDF9"/>
<path d="M118.516 16.1006L118.509 15.7139C118.491 14.7922 118.608 13.9383 118.859 13.1522C119.11 12.3661 119.476 11.6833 119.957 11.1038C120.446 10.5241 121.035 10.0715 121.725 9.74595C122.414 9.41258 123.184 9.23786 124.035 9.22179C124.895 9.20558 125.675 9.35104 126.376 9.65818C127.077 9.9575 127.683 10.3876 128.194 10.9483C128.704 11.5091 129.1 12.1775 129.38 12.9536C129.661 13.7297 129.809 14.5787 129.827 15.5004L129.834 15.887C129.852 16.8087 129.735 17.6626 129.484 18.4488C129.233 19.2271 128.863 19.9061 128.374 20.4857C127.892 21.0652 127.307 21.5216 126.618 21.855C125.929 22.1806 125.158 22.3514 124.307 22.3674C123.448 22.3837 122.668 22.2421 121.967 21.9428C121.265 21.6356 120.659 21.2017 120.149 20.6409C119.638 20.0801 119.243 19.4156 118.962 18.6473C118.682 17.8712 118.533 17.0223 118.516 16.1006ZM119.903 15.6876L119.91 16.0743C119.923 16.7695 120.029 17.4277 120.229 18.0491C120.428 18.6626 120.712 19.2082 121.08 19.6857C121.448 20.1554 121.901 20.5219 122.437 20.7853C122.973 21.0486 123.589 21.1737 124.284 21.1606C124.972 21.1477 125.574 20.9995 126.093 20.7163C126.619 20.4329 127.057 20.0495 127.407 19.5663C127.757 19.0752 128.016 18.5194 128.184 17.899C128.36 17.2705 128.441 16.6087 128.428 15.9135L128.421 15.5269C128.408 14.8395 128.302 14.1891 128.103 13.5755C127.911 12.9618 127.628 12.4163 127.251 11.9389C126.883 11.4614 126.43 11.0871 125.894 10.8159C125.358 10.5447 124.746 10.4156 124.058 10.4286C123.371 10.4416 122.764 10.5937 122.238 10.8849C121.72 11.176 121.282 11.5671 120.924 12.0583C120.574 12.5494 120.311 13.1052 120.135 13.7259C119.967 14.3463 119.89 15.0003 119.903 15.6876Z" fill="#F5EDF9"/>
<path d="M148.23 11.4309L149.514 11.6387L147.525 23.9358C147.349 25.0233 146.99 25.9228 146.447 26.6343C145.913 27.3471 145.234 27.8506 144.41 28.1448C143.595 28.4403 142.678 28.5057 141.66 28.341C141.144 28.2574 140.624 28.0903 140.103 27.8398C139.588 27.5982 139.114 27.2762 138.681 26.8737C138.254 26.4801 137.908 26.0207 137.645 25.4953L138.557 24.7762C138.966 25.4755 139.437 26.0147 139.969 26.3936C140.5 26.7802 141.101 27.0278 141.772 27.1363C142.566 27.2648 143.263 27.2153 143.862 26.9877C144.468 26.7613 144.962 26.3743 145.343 25.8266C145.733 25.2801 145.994 24.5905 146.129 23.7575L147.681 14.1674L148.23 11.4309ZM138.405 16.3944L138.444 16.1515C138.602 15.1797 138.851 14.3219 139.193 13.5779C139.544 12.8274 139.973 12.2082 140.479 11.7203C140.986 11.2247 141.561 10.8784 142.202 10.6814C142.852 10.4779 143.555 10.4373 144.311 10.5596C145.036 10.6768 145.661 10.9005 146.185 11.2307C146.709 11.5608 147.14 11.9826 147.476 12.4961C147.812 13.0095 148.054 13.5947 148.201 14.2516C148.356 14.9097 148.43 15.6261 148.423 16.4006L147.924 19.4893C147.716 20.1839 147.441 20.8081 147.098 21.362C146.757 21.9082 146.346 22.3681 145.866 22.7416C145.388 23.1073 144.84 23.363 144.223 23.5085C143.614 23.6475 142.936 23.6565 142.188 23.5355C141.44 23.4145 140.794 23.1517 140.25 22.7472C139.706 22.3426 139.272 21.8252 138.946 21.1948C138.622 20.5567 138.411 19.8301 138.314 19.015C138.224 18.2011 138.254 17.3276 138.405 16.3944ZM139.833 16.3761L139.793 16.619C139.675 17.3517 139.638 18.0422 139.684 18.6906C139.729 19.339 139.865 19.9189 140.091 20.4303C140.317 20.9417 140.64 21.3659 141.06 21.703C141.481 22.04 142.003 22.2591 142.628 22.3601C143.422 22.4886 144.114 22.4462 144.702 22.2327C145.292 22.0116 145.785 21.6759 146.183 21.2258C146.581 20.7679 146.902 20.2501 147.146 19.6722L147.728 16.0744C147.709 15.652 147.646 15.2143 147.537 14.7614C147.436 14.3098 147.26 13.8817 147.009 13.477C146.767 13.0659 146.428 12.7143 145.992 12.4222C145.566 12.1237 145.021 11.9208 144.358 11.8135C143.725 11.7112 143.153 11.7531 142.64 11.9393C142.135 12.1266 141.693 12.4312 141.317 12.853C140.941 13.2671 140.629 13.7746 140.382 14.3756C140.134 14.9766 139.951 15.6434 139.833 16.3761Z" fill="#F5EDF9"/>
<path d="M160.718 28.1655C159.936 27.8933 159.267 27.499 158.71 26.9827C158.161 26.469 157.734 25.8655 157.429 25.1721C157.132 24.4814 156.975 23.7319 156.959 22.9237C156.952 22.1108 157.098 21.2763 157.395 20.4204L157.561 19.9445C157.882 19.0222 158.309 18.236 158.841 17.5858C159.373 16.9355 159.972 16.4283 160.636 16.0639C161.301 15.6996 161.988 15.4838 162.698 15.4165C163.418 15.3445 164.117 15.4266 164.796 15.6628C165.556 15.9273 166.184 16.2987 166.679 16.7772C167.177 17.2482 167.539 17.8002 167.765 18.4333C168.002 19.0615 168.106 19.7472 168.079 20.4906C168.055 21.2265 167.903 21.9966 167.623 22.8009L167.342 23.6088L158.277 20.4543L158.67 19.3254L166.417 22.0216L166.471 21.8666C166.69 21.1901 166.772 20.5154 166.717 19.8426C166.671 19.165 166.462 18.5545 166.088 18.0109C165.715 17.4674 165.152 17.0647 164.399 16.8028C163.839 16.6076 163.281 16.5459 162.727 16.6177C162.18 16.692 161.659 16.8915 161.166 17.2161C160.682 17.5359 160.243 17.9662 159.848 18.507C159.463 19.043 159.143 19.6763 158.889 20.4067L158.724 20.8827C158.492 21.5467 158.373 22.1999 158.364 22.8422C158.366 23.4796 158.472 24.0789 158.682 24.6401C158.899 25.2038 159.216 25.6947 159.633 26.1128C160.05 26.5309 160.561 26.8453 161.166 27.0558C161.875 27.3023 162.547 27.3915 163.183 27.3232C163.821 27.2476 164.457 27.0015 165.09 26.5849L165.696 27.5157C165.305 27.8095 164.857 28.0507 164.353 28.2392C163.856 28.4303 163.305 28.5281 162.7 28.5325C162.094 28.5369 161.434 28.4145 160.718 28.1655Z" fill="#F5EDF9"/>
<path d="M182.665 23.8498L182.133 24.8679L176.503 21.9285L177.034 20.9104L182.665 23.8498ZM180.609 19.1017L181.845 19.747L175.896 31.1431C175.625 31.6625 175.49 32.0899 175.491 32.4254C175.492 32.7609 175.58 33.0315 175.755 33.2372C175.929 33.4429 176.145 33.6127 176.401 33.7465C176.588 33.8441 176.773 33.9277 176.957 33.9973C177.145 34.06 177.315 34.1136 177.468 34.1583L176.972 35.2346C176.795 35.2035 176.577 35.1386 176.321 35.0397C176.06 34.9478 175.809 34.8386 175.566 34.7121C175.088 34.4626 174.711 34.1555 174.435 33.7907C174.161 33.419 174.033 32.9643 174.05 32.4264C174.07 31.8816 174.275 31.2353 174.665 30.4873L180.609 19.1017Z" fill="#F5EDF9"/>
<path d="M195.324 25.3779L184.69 39.9003L183.564 39.0764L194.199 24.554L195.324 25.3779ZM188.644 33.9649L188.351 33.3143C188.831 32.7369 189.37 32.2597 189.966 31.8825C190.561 31.5054 191.183 31.2443 191.832 31.0994C192.486 30.9591 193.136 30.9509 193.782 31.0748C194.433 31.2033 195.052 31.4822 195.638 31.9115C196.149 32.2853 196.555 32.6893 196.857 33.1234C197.159 33.5575 197.341 34.0296 197.403 34.5399C197.465 35.0502 197.395 35.5947 197.194 36.1736C196.999 36.7572 196.652 37.3893 196.154 38.07L191.28 44.7262L190.145 43.8953L195.026 37.2297C195.543 36.5238 195.849 35.9007 195.945 35.3605C196.045 34.814 195.977 34.3241 195.743 33.8909C195.508 33.4576 195.145 33.0609 194.653 32.7009C194.111 32.3039 193.548 32.0752 192.963 32.0147C192.388 31.9525 191.824 32.0089 191.27 32.184C190.726 32.3574 190.225 32.6054 189.766 32.9278C189.312 33.244 188.938 33.5897 188.644 33.9649Z" fill="#F5EDF9"/>
<path d="M201.307 54.3577C200.734 53.7599 200.317 53.1045 200.056 52.3917C199.8 51.6846 199.694 50.953 199.738 50.1969C199.787 49.4465 199.988 48.7075 200.34 47.9801C200.704 47.2529 201.213 46.5758 201.867 45.9487L202.231 45.6C202.936 44.9243 203.673 44.4178 204.443 44.0805C205.213 43.7432 205.976 43.5632 206.734 43.5406C207.491 43.518 208.201 43.638 208.864 43.9007C209.538 44.1637 210.124 44.5546 210.621 45.0735C211.178 45.6544 211.569 46.2705 211.792 46.9217C212.022 47.5676 212.093 48.2239 212.008 48.8906C211.933 49.5576 211.714 50.216 211.352 50.8659C210.996 51.5104 210.511 52.1272 209.896 52.7165L209.278 53.3084L202.637 46.3795L203.5 45.5524L209.176 51.4745L209.295 51.361C209.797 50.8578 210.176 50.2939 210.433 49.6695C210.7 49.0452 210.791 48.4062 210.706 47.7524C210.62 47.0986 210.301 46.484 209.75 45.9087C209.339 45.48 208.871 45.1717 208.344 44.9837C207.823 44.8014 207.269 44.7427 206.682 44.8076C206.106 44.8727 205.519 45.0564 204.921 45.3587C204.335 45.6612 203.762 46.0801 203.204 46.6153L202.84 46.9639C202.332 47.4505 201.929 47.9779 201.63 48.5462C201.341 49.1147 201.163 49.6967 201.095 50.292C201.033 50.8929 201.092 51.4744 201.274 52.0363C201.455 52.5982 201.768 53.1104 202.211 53.5729C202.73 54.1144 203.288 54.4992 203.886 54.7274C204.489 54.9501 205.167 55.0198 205.92 54.9363L206.038 56.0411C205.555 56.1248 205.046 56.1361 204.512 56.0751C203.982 56.0196 203.447 55.8563 202.906 55.5851C202.365 55.314 201.832 54.9048 201.307 54.3577Z" fill="#F5EDF9"/>
<path d="M219.166 58.96L210.512 65.0503L209.71 63.9099L220.079 56.6123L220.861 57.724L219.166 58.96ZM223.541 61.3692L222.467 62.0824C222.396 61.9411 222.325 61.8053 222.252 61.6749C222.179 61.5445 222.093 61.4091 221.994 61.2685C221.644 60.7702 221.243 60.3977 220.793 60.1512C220.353 59.9065 219.88 59.7711 219.375 59.7448C218.875 59.7141 218.361 59.7845 217.832 59.9561C217.31 60.1232 216.796 60.3702 216.29 60.6973L215.831 60.3903C216.508 59.9137 217.187 59.541 217.867 59.2724C218.547 59.0038 219.206 58.8604 219.843 58.8422C220.49 58.8258 221.091 58.9526 221.644 59.2226C222.208 59.4945 222.701 59.9307 223.124 60.5312C223.227 60.6782 223.315 60.8309 223.389 60.9895C223.473 61.1499 223.524 61.2765 223.541 61.3692Z" fill="#F5EDF9"/>
<path d="M222.577 84.6561C222.83 84.5517 223.075 84.5432 223.314 84.6305C223.563 84.722 223.746 84.9086 223.862 85.1903C223.982 85.4791 223.989 85.7424 223.884 85.98C223.779 86.2176 223.597 86.3901 223.337 86.4975C223.092 86.5988 222.848 86.6023 222.606 86.5077C222.364 86.4132 222.184 86.2215 222.064 85.9326C221.948 85.651 221.942 85.3914 222.047 85.1537C222.155 84.9233 222.331 84.7574 222.577 84.6561Z" fill="#F5EDF9"/>
<path d="M229.904 109.996C229.993 110.583 230.185 111.115 230.479 111.592C230.781 112.076 231.174 112.45 231.657 112.717C232.149 112.99 232.715 113.101 233.356 113.051L233.557 114.372C232.755 114.454 232.008 114.319 231.314 113.966C230.629 113.62 230.054 113.115 229.59 112.45C229.134 111.793 228.841 111.035 228.711 110.178C228.578 109.305 228.619 108.509 228.833 107.789C229.049 107.076 229.404 106.453 229.9 105.919C230.403 105.384 231.016 104.943 231.737 104.597C232.468 104.256 233.274 104.019 234.154 103.885L234.641 103.811C235.521 103.677 236.357 103.665 237.148 103.773C237.948 103.889 238.664 104.128 239.296 104.49C239.935 104.851 240.464 105.339 240.882 105.955C241.3 106.571 241.575 107.316 241.708 108.189C241.844 109.085 241.785 109.915 241.53 110.681C241.276 111.455 240.849 112.104 240.25 112.63C239.651 113.164 238.899 113.519 237.994 113.697L237.793 112.376C238.459 112.235 239.011 111.969 239.45 111.579C239.888 111.188 240.199 110.714 240.383 110.156C240.567 109.599 240.611 109.004 240.514 108.37C240.406 107.66 240.175 107.074 239.82 106.615C239.474 106.154 239.037 105.801 238.51 105.558C237.992 105.32 237.416 105.175 236.784 105.121C236.159 105.066 235.515 105.089 234.85 105.19L234.364 105.264C233.692 105.366 233.061 105.533 232.472 105.765C231.892 106.003 231.39 106.313 230.966 106.694C230.543 107.082 230.231 107.548 230.029 108.093C229.836 108.643 229.795 109.278 229.904 109.996Z" fill="#F5EDF9"/>
<path d="M236.368 122.361L236.755 122.37C237.677 122.392 238.525 122.545 239.3 122.829C240.074 123.113 240.741 123.507 241.3 124.013C241.858 124.526 242.285 125.134 242.581 125.837C242.885 126.539 243.027 127.316 243.007 128.168C242.987 129.027 242.808 129.8 242.472 130.488C242.143 131.175 241.688 131.762 241.106 132.249C240.524 132.735 239.839 133.102 239.052 133.349C238.265 133.596 237.41 133.709 236.489 133.687L236.102 133.678C235.18 133.657 234.332 133.504 233.557 133.22C232.79 132.936 232.128 132.538 231.569 132.024C231.011 131.519 230.58 130.915 230.276 130.212C229.98 129.51 229.842 128.733 229.862 127.881C229.882 127.022 230.056 126.249 230.385 125.561C230.722 124.874 231.181 124.287 231.763 123.8C232.345 123.314 233.026 122.947 233.805 122.699C234.592 122.452 235.447 122.34 236.368 122.361ZM236.722 123.764L236.336 123.755C235.641 123.739 234.978 123.817 234.349 123.99C233.728 124.163 233.171 124.423 232.678 124.771C232.193 125.119 231.808 125.556 231.522 126.08C231.236 126.605 231.085 127.215 231.068 127.91C231.052 128.597 231.175 129.206 231.436 129.735C231.697 130.273 232.061 130.727 232.529 131.097C233.005 131.468 233.549 131.751 234.162 131.945C234.782 132.147 235.44 132.256 236.135 132.273L236.522 132.282C237.209 132.298 237.863 132.219 238.485 132.047C239.106 131.881 239.663 131.621 240.156 131.265C240.649 130.917 241.042 130.481 241.336 129.957C241.629 129.432 241.784 128.826 241.8 128.139C241.817 127.452 241.69 126.839 241.422 126.302C241.153 125.772 240.781 125.317 240.305 124.939C239.829 124.568 239.285 124.282 238.672 124.08C238.06 123.886 237.41 123.781 236.722 123.764Z" fill="#F5EDF9"/>
<path d="M238.522 144.895L228.754 142.887L229.035 141.521L241.455 144.074L241.186 145.383L238.522 144.895ZM235.797 144.012L236.266 143.474C236.991 143.671 237.649 143.962 238.24 144.347C238.831 144.731 239.327 145.188 239.729 145.718C240.129 146.254 240.407 146.842 240.563 147.48C240.717 148.126 240.721 148.805 240.575 149.517C240.448 150.136 240.249 150.674 239.98 151.129C239.711 151.584 239.358 151.946 238.919 152.215C238.481 152.484 237.957 152.647 237.347 152.705C236.735 152.771 236.016 152.719 235.19 152.549L227.109 150.887L227.392 149.51L235.485 151.174C236.342 151.35 237.036 151.369 237.567 151.231C238.105 151.094 238.522 150.829 238.819 150.436C239.115 150.042 239.325 149.547 239.447 148.95C239.583 148.292 239.556 147.684 239.368 147.127C239.185 146.579 238.899 146.089 238.509 145.658C238.125 145.236 237.691 144.884 237.207 144.601C236.73 144.319 236.26 144.123 235.797 144.012Z" fill="#F5EDF9"/>
<path d="M234.687 168.459L233.61 168.062L235.81 162.103L236.887 162.501L234.687 168.459ZM239.136 165.817L238.653 167.125L226.593 162.672C226.043 162.469 225.602 162.39 225.27 162.433C224.937 162.477 224.68 162.599 224.498 162.798C224.316 162.997 224.175 163.233 224.075 163.504C224.002 163.702 223.942 163.896 223.897 164.088C223.858 164.282 223.827 164.457 223.802 164.615L222.671 164.26C222.68 164.08 222.716 163.856 222.782 163.589C222.84 163.318 222.916 163.055 223.011 162.799C223.198 162.293 223.454 161.88 223.781 161.559C224.115 161.241 224.55 161.056 225.085 161.004C225.628 160.954 226.296 161.076 227.087 161.368L239.136 165.817Z" fill="#F5EDF9"/>
<path d="M217.971 179.142L223.709 182.277C224.237 182.565 224.753 182.704 225.257 182.695C225.761 182.685 226.232 182.524 226.67 182.211C227.107 181.898 227.497 181.43 227.838 180.806C228.152 180.23 228.33 179.66 228.372 179.095C228.416 178.541 228.338 178.04 228.138 177.592C227.941 177.155 227.636 176.824 227.225 176.599L227.909 175.37C228.327 175.599 228.676 175.923 228.954 176.342C229.233 176.761 229.423 177.243 229.526 177.789C229.628 178.335 229.626 178.917 229.52 179.535C229.417 180.164 229.193 180.794 228.848 181.425C228.414 182.22 227.898 182.847 227.301 183.304C226.7 183.768 226.039 184.025 225.317 184.076C224.595 184.127 223.829 183.931 223.02 183.489L217.642 180.551C217.258 180.341 216.845 180.152 216.404 179.982C215.959 179.819 215.572 179.719 215.245 179.683L215.122 179.615L215.835 178.309C216.127 178.362 216.471 178.465 216.867 178.619C217.267 178.784 217.635 178.958 217.971 179.142ZM222.297 181.879L221.34 181.383L222.66 178.966C223.005 178.335 223.255 177.738 223.412 177.174C223.572 176.62 223.636 176.112 223.604 175.649C223.579 175.19 223.466 174.786 223.265 174.436C223.061 174.093 222.767 173.817 222.383 173.607C221.985 173.39 221.568 173.291 221.13 173.31C220.688 173.336 220.267 173.479 219.866 173.741C219.468 174.013 219.129 174.406 218.848 174.921C218.473 175.606 218.27 176.279 218.24 176.939C218.205 177.605 218.3 178.222 218.524 178.79C218.748 179.357 219.071 179.832 219.495 180.215L218.493 180.362C218.199 180.085 217.935 179.728 217.703 179.289C217.474 178.862 217.305 178.373 217.195 177.824C217.093 177.278 217.082 176.694 217.165 176.071C217.25 175.459 217.468 174.83 217.82 174.186C218.217 173.459 218.701 172.9 219.271 172.508C219.837 172.123 220.44 171.909 221.077 171.866C221.718 171.833 222.341 171.981 222.944 172.311C223.492 172.611 223.919 172.995 224.224 173.464C224.535 173.937 224.722 174.475 224.784 175.079C224.849 175.693 224.79 176.355 224.607 177.065C224.427 177.786 224.123 178.537 223.696 179.318L222.297 181.879Z" fill="#F5EDF9"/>
<path d="M208.49 190.642C208.122 191.107 207.863 191.61 207.715 192.15C207.567 192.701 207.561 193.244 207.695 193.779C207.831 194.325 208.135 194.815 208.608 195.249L207.779 196.297C207.173 195.766 206.762 195.127 206.547 194.379C206.333 193.642 206.311 192.877 206.481 192.085C206.651 191.303 207.006 190.572 207.544 189.892C208.092 189.2 208.703 188.687 209.376 188.353C210.044 188.025 210.742 187.861 211.471 187.859C212.205 187.863 212.945 188.011 213.691 188.302C214.438 188.605 215.161 189.033 215.859 189.585L216.245 189.891C216.943 190.444 217.522 191.047 217.981 191.7C218.442 192.364 218.756 193.05 218.921 193.76C219.093 194.474 219.096 195.194 218.93 195.919C218.764 196.645 218.407 197.354 217.859 198.046C217.297 198.756 216.648 199.279 215.914 199.615C215.175 199.956 214.409 200.087 213.616 200.007C212.817 199.933 212.045 199.625 211.298 199.083L212.127 198.036C212.684 198.427 213.255 198.65 213.84 198.704C214.425 198.759 214.983 198.663 215.517 198.418C216.05 198.172 216.515 197.799 216.913 197.296C217.359 196.733 217.63 196.165 217.724 195.592C217.825 195.024 217.785 194.464 217.604 193.913C217.425 193.372 217.139 192.851 216.748 192.352C216.362 191.857 215.906 191.401 215.379 190.984L214.993 190.679C214.46 190.257 213.908 189.909 213.337 189.636C212.767 189.375 212.199 189.218 211.631 189.167C211.059 189.123 210.504 189.212 209.969 189.435C209.434 189.67 208.941 190.072 208.49 190.642Z" fill="#F5EDF9"/>
<path d="M204.269 212.213L203.482 211.376L208.109 207.025L208.896 207.861L204.269 212.213ZM209.429 211.832L208.413 212.787L199.605 203.423C199.204 202.997 198.845 202.729 198.527 202.619C198.21 202.51 197.926 202.504 197.674 202.602C197.422 202.699 197.191 202.847 196.981 203.045C196.827 203.189 196.687 203.337 196.561 203.488C196.44 203.644 196.333 203.788 196.241 203.917L195.387 203.095C195.475 202.938 195.608 202.754 195.786 202.544C195.958 202.328 196.144 202.126 196.343 201.939C196.736 201.57 197.15 201.314 197.585 201.173C198.026 201.037 198.498 201.065 199 201.258C199.508 201.456 200.051 201.862 200.629 202.477L209.429 211.832Z" fill="#F5EDF9"/>
<path d="M175.001 220.614L179.676 229.17L178.442 229.844L172.362 218.717L173.545 218.071L175.001 220.614ZM175.898 222.794L175.272 223.163C174.89 222.464 174.62 221.775 174.463 221.095C174.305 220.416 174.281 219.761 174.391 219.131C174.501 218.501 174.768 217.915 175.192 217.371C175.616 216.828 176.219 216.343 177.001 215.916C177.542 215.62 178.081 215.424 178.616 215.327C179.147 215.241 179.666 215.278 180.172 215.438C180.678 215.598 181.166 215.897 181.636 216.334C182.1 216.775 182.539 217.376 182.955 218.137L186.844 225.254L185.62 225.922L181.72 218.785C181.394 218.189 181.058 217.727 180.71 217.401C180.356 217.078 179.996 216.861 179.632 216.748C179.261 216.639 178.893 216.618 178.529 216.683C178.164 216.749 177.803 216.879 177.447 217.074C176.542 217.569 175.924 218.133 175.594 218.767C175.258 219.405 175.135 220.069 175.226 220.758C175.315 221.457 175.539 222.136 175.898 222.794Z" fill="#F5EDF9"/>
<path d="M157.909 227.871C158.019 228.197 158.209 228.491 158.479 228.755C158.749 229.018 159.163 229.204 159.719 229.313C160.268 229.425 161.021 229.422 161.979 229.305C162.696 229.228 163.348 229.193 163.936 229.201C164.516 229.211 165.028 229.286 165.471 229.425C165.913 229.564 166.289 229.783 166.596 230.084C166.904 230.384 167.141 230.782 167.308 231.278C167.458 231.722 167.503 232.173 167.443 232.63C167.378 233.097 167.215 233.54 166.952 233.959C166.684 234.387 166.32 234.774 165.859 235.119C165.391 235.467 164.831 235.75 164.18 235.97C163.255 236.283 162.409 236.391 161.643 236.295C160.872 236.209 160.221 235.955 159.691 235.532C159.153 235.111 158.769 234.56 158.539 233.879L159.861 233.433C160 233.848 160.255 234.199 160.624 234.487C160.986 234.777 161.44 234.962 161.986 235.041C162.525 235.123 163.128 235.052 163.794 234.827C164.482 234.594 165.006 234.302 165.366 233.95C165.725 233.598 165.951 233.229 166.043 232.843C166.128 232.46 166.113 232.098 165.998 231.757C165.908 231.491 165.785 231.26 165.629 231.066C165.468 230.881 165.245 230.734 164.96 230.624C164.668 230.516 164.284 230.452 163.807 230.432C163.33 230.411 162.729 230.437 162.003 230.509C160.96 230.622 160.08 230.626 159.36 230.523C158.636 230.429 158.05 230.206 157.601 229.855C157.155 229.511 156.825 229.02 156.61 228.384C156.442 227.888 156.392 227.398 156.46 226.913C156.53 226.436 156.711 225.983 157.003 225.555C157.288 225.129 157.677 224.742 158.17 224.394C158.655 224.049 159.235 223.762 159.908 223.535C160.922 223.193 161.837 223.069 162.653 223.165C163.463 223.271 164.143 223.536 164.69 223.962C165.233 224.397 165.609 224.925 165.819 225.547L164.498 225.993C164.244 225.386 163.881 224.96 163.411 224.715C162.943 224.477 162.432 224.369 161.879 224.391C161.318 224.415 160.79 224.511 160.294 224.679C159.613 224.909 159.077 225.201 158.685 225.556C158.294 225.91 158.035 226.291 157.908 226.696C157.781 227.102 157.781 227.494 157.909 227.871Z" fill="#F5EDF9"/>
<path d="M147.385 228.068C147.436 228.337 147.395 228.579 147.262 228.796C147.122 229.021 146.902 229.163 146.603 229.22C146.296 229.278 146.037 229.233 145.825 229.082C145.613 228.932 145.481 228.718 145.428 228.442C145.378 228.181 145.424 227.942 145.565 227.724C145.707 227.506 145.931 227.368 146.238 227.309C146.537 227.252 146.793 227.299 147.004 227.449C147.208 227.601 147.335 227.807 147.385 228.068Z" fill="#F5EDF9"/>
</svg>
