<svg width="45" height="45" viewBox="0 0 45 45" fill="none" xmlns="http://www.w3.org/2000/svg">
<g clipPath="url(#clip0_761_630)">
<path d="M30.9956 14.7807L6.82565 19.3431C6.6362 19.3788 6.46112 19.4686 6.32149 19.6015C6.18187 19.7345 6.08365 19.9049 6.03866 20.0924C5.99751 20.2738 6.00778 20.4631 6.06832 20.639C6.12886 20.8149 6.23727 20.9704 6.38135 21.0881L14.405 27.2604L23.4072 20.4138L24.6179 22.0057L15.6157 28.8523L19.3708 38.2333C19.4298 38.3782 19.5219 38.5072 19.6399 38.6101C19.7578 38.7129 19.8982 38.7866 20.0498 38.8252C20.2014 38.8639 20.36 38.8665 20.5128 38.8327C20.6656 38.7989 20.8083 38.7298 20.9295 38.6308C21.0535 38.5353 21.1534 38.412 21.2211 38.2709L32.0731 16.1975C32.1527 16.0315 32.1849 15.8468 32.1662 15.6637C32.1476 15.4806 32.0788 15.3062 31.9674 15.1598C31.8559 15.0133 31.7063 14.9004 31.5348 14.8335C31.3633 14.7666 31.1767 14.7483 30.9956 14.7807Z" fill="#F5EDF9"/>
</g>
<defs>
<clipPath id="clip0_761_630">
<rect width="32" height="32" fill="white" transform="translate(0 19.3711) rotate(-37.2546)"/>
</clipPath>
</defs>
</svg>
