<svg width="32" height="30" viewBox="0 0 32 30" fill="none" xmlns="http://www.w3.org/2000/svg">
<path d="M7.36886 10.6992H0.431641V29.7766H7.36886V10.6992Z" fill="white"/>
<path d="M3.90025 7.2297C5.81591 7.2297 7.36886 5.67675 7.36886 3.76109C7.36886 1.84543 5.81591 0.29248 3.90025 0.29248C1.98459 0.29248 0.431641 1.84543 0.431641 3.76109C0.431641 5.67675 1.98459 7.2297 3.90025 7.2297Z" fill="white"/>
<path d="M23.8452 9.39746C21.4779 9.4044 19.2423 10.4918 17.7751 12.3527V10.6982H10.8379V29.7756H17.7751V17.6354C17.7751 15.7207 19.3291 14.1668 21.2437 14.1668C23.1584 14.1668 24.7123 15.7207 24.7123 17.6354V29.7756H31.6496V17.2018C31.6496 12.8921 28.1549 9.39746 23.8452 9.39746Z" fill="white"/>
</svg>
