<svg width="34" height="28" viewBox="0 0 34 28" fill="none" xmlns="http://www.w3.org/2000/svg">
<path d="M33.3366 3.445C32.1252 4.00298 30.8215 4.37936 29.4536 4.5478C30.8503 3.68136 31.9212 2.30892 32.4262 0.671701C31.1199 1.47506 29.6737 2.058 28.1332 2.37269C26.8998 1.01134 25.1426 0.160156 23.1988 0.160156C19.4657 0.160156 16.4389 3.29666 16.4389 7.16583C16.4389 7.71411 16.4985 8.24853 16.6142 8.76215C10.9961 8.46964 6.01352 5.6811 2.67908 1.44179C2.09714 2.47597 1.7647 3.67997 1.7647 4.96438C1.7647 7.39526 2.95734 9.53987 4.77138 10.7952C3.66436 10.7584 2.62088 10.443 1.70985 9.91833C1.70918 9.94744 1.70918 9.97725 1.70918 10.0071C1.70918 13.4007 4.03894 16.2315 7.13192 16.8762C6.56469 17.0349 5.96737 17.1215 5.35065 17.1215C4.9152 17.1215 4.49112 17.0779 4.07908 16.9954C4.93928 19.7784 7.43626 21.8045 10.3935 21.8606C8.07974 23.7397 5.16603 24.8599 1.99747 24.8599C1.45232 24.8599 0.913862 24.8266 0.384766 24.7615C3.3774 26.7501 6.93058 27.9091 10.748 27.9091C23.1834 27.9091 29.9827 17.2345 29.9827 7.97681C29.9827 7.67321 29.9767 7.37031 29.964 7.06879C31.2844 6.08451 32.4309 4.85001 33.3366 3.445Z" fill="white"/>
</svg>
