<svg width="30" height="30" viewBox="0 0 30 30" fill="none" xmlns="http://www.w3.org/2000/svg">
<path d="M27.7108 0.292969H1.91301C0.89446 0.292969 0.0703125 1.11712 0.0703125 2.13567V27.9335C0.0703125 28.952 0.89446 29.7762 1.91301 29.7762H27.7108C28.7294 29.7762 29.5535 28.952 29.5535 27.9335V2.13567C29.5535 1.11712 28.7294 0.292969 27.7108 0.292969ZM11.1265 15.0346C11.1265 15.0346 11.418 11.3492 14.8119 11.3492C18.2058 11.3492 18.4973 15.0346 18.4973 15.0346C18.4973 15.0346 18.6035 18.72 14.8119 18.72C11.0203 18.72 11.1265 15.0346 11.1265 15.0346ZM25.8681 26.0908H3.75571V13.1919H7.44111H7.70197C7.54908 13.7839 7.44111 14.3939 7.44111 15.0346C7.44111 19.1051 10.7414 22.4054 14.8119 22.4054C18.8824 22.4054 22.1827 19.105 22.1827 15.0346C22.1827 14.3939 22.0747 13.7839 21.9218 13.1919H22.1827H25.8681V26.0908ZM25.8681 9.50647H20.34V3.97837H25.8681V9.50647Z" fill="white"/>
</svg>
