<svg width="41" height="30" viewBox="0 0 41 30" fill="none" xmlns="http://www.w3.org/2000/svg">
<path d="M39.7922 6.20014C39.5509 3.3508 37.4088 1.09744 34.7083 0.853149C31.581 0.579377 26.9479 0.292969 21.2298 0.292969C14.345 0.292969 9.14545 0.589906 5.78679 0.867891C3.07433 1.09744 0.914344 3.35922 0.673015 6.2212C0.465592 8.50615 0.288086 11.524 0.288086 15.123C0.288086 18.6336 0.465592 21.5988 0.669026 23.8543C0.912349 26.712 3.07234 28.9696 5.78081 29.1991C9.14345 29.4792 14.341 29.7762 21.2298 29.7762C26.9479 29.7762 31.581 29.4898 34.7083 29.216C37.4088 28.9717 39.5509 26.7162 39.7922 23.869C39.9976 21.5946 40.1771 18.5957 40.1771 15.0346C40.1771 11.4713 39.9976 8.47456 39.7922 6.20014ZM15.7969 21.2239V8.8452L27.3608 15.0346L15.7969 21.2239Z" fill="white"/>
</svg>
