<svg width="201" height="54" viewBox="0 0 201 54" fill="none" xmlns="http://www.w3.org/2000/svg">
<path d="M1.48291 38.9295L1.48291 14.519L13.7625 21.2997V32.2166L23.5863 37.709L33.41 32.2166V21.2997L45.6897 14.519V38.9295L23.5863 51.1347L1.48291 38.9295Z" fill="white"/>
<path fillRule="evenodd" clip-rule="evenodd" d="M7.62275 17.9096L1.48291 14.5192L23.5863 2.31396L45.6897 14.5192L39.5499 17.9096V35.8783L23.5863 45.0323L7.62274 35.8783L7.62275 17.9096ZM38.8848 18.2769L33.41 21.2999V21.2321L23.5863 15.7397L13.7625 21.2321V21.2999L8.28789 18.2769V35.5028L23.5863 44.2753L38.8848 35.5028V18.2769Z" fill="#A1AEBF"/>
<path d="M57.4575 37.0004V16.4956H61.3477V33.4852H70.7786V37.0004H57.4575Z" fill="white"/>
<path d="M79.1771 37.4105C77.7233 37.4105 76.4167 37.1176 75.2575 36.5316C74.0983 35.9458 73.1847 35.0963 72.5167 33.9833C71.8486 32.8702 71.5146 31.5325 71.5146 29.9702V29.5014C71.5146 27.9392 71.8486 26.6015 72.5167 25.4884C73.1847 24.3753 74.0983 23.5259 75.2575 22.94C76.4167 22.354 77.7233 22.0612 79.1771 22.0612C80.6311 22.0612 81.9377 22.354 83.0969 22.94C84.2561 23.5259 85.1697 24.3753 85.8377 25.4884C86.5056 26.6015 86.8398 27.9392 86.8398 29.5014V29.9702C86.8398 31.5325 86.5056 32.8702 85.8377 33.9833C85.1697 35.0963 84.2561 35.9458 83.0969 36.5316C81.9377 37.1176 80.6311 37.4105 79.1771 37.4105ZM79.1771 34.1297C80.3167 34.1297 81.2599 33.7685 82.0064 33.0458C82.7531 32.3038 83.1263 31.2492 83.1263 29.8823V29.5894C83.1263 28.2224 82.7531 27.1776 82.0064 26.455C81.2795 25.713 80.3363 25.342 79.1771 25.342C78.0377 25.342 77.0945 25.713 76.348 26.455C75.6013 27.1776 75.2281 28.2224 75.2281 29.5894V29.8823C75.2281 31.2492 75.6013 32.3038 76.348 33.0458C77.0945 33.7685 78.0377 34.1297 79.1771 34.1297Z" fill="white"/>
<path d="M88.2349 29.7944V29.3258C88.2349 27.8025 88.5393 26.5039 89.1485 25.4298C89.7575 24.3362 90.5631 23.5062 91.5651 22.94C92.5868 22.354 93.6968 22.0612 94.8953 22.0612C96.2313 22.0612 97.2432 22.2956 97.9308 22.7642C98.6185 23.2329 99.1196 23.7211 99.4338 24.2289H99.9644V22.4712H103.619V39.5782C103.619 40.5741 103.324 41.3649 102.735 41.9509C102.145 42.5562 101.359 42.8589 100.377 42.8589H90.5925V39.6368H99.0802C99.6303 39.6368 99.9055 39.3438 99.9055 38.7579V34.9792H99.3749C99.1784 35.2916 98.9034 35.6138 98.5498 35.9458C98.196 36.2583 97.7245 36.5219 97.1351 36.7368C96.5457 36.9516 95.799 37.059 94.8953 37.059C93.6968 37.059 92.5868 36.7758 91.5651 36.2094C90.5631 35.6236 89.7575 34.7936 89.1485 33.7196C88.5393 32.626 88.2349 31.3177 88.2349 29.7944ZM95.9563 33.8368C97.0958 33.8368 98.0487 33.4755 98.815 32.753C99.5813 32.0305 99.9644 31.015 99.9644 29.7066V29.4136C99.9644 28.0856 99.5813 27.0703 98.815 26.3672C98.0683 25.6447 97.1155 25.2834 95.9563 25.2834C94.8167 25.2834 93.8638 25.6447 93.0976 26.3672C92.3313 27.0703 91.9482 28.0856 91.9482 29.4136V29.7066C91.9482 31.015 92.3313 32.0305 93.0976 32.753C93.8638 33.4755 94.8167 33.8368 95.9563 33.8368Z" fill="white"/>
<path d="M113.365 37.4105C111.911 37.4105 110.604 37.1177 109.445 36.5317C108.286 35.9459 107.372 35.0964 106.704 33.9833C106.036 32.8703 105.702 31.5325 105.702 29.9703V29.5015C105.702 27.9393 106.036 26.6016 106.704 25.4885C107.372 24.3754 108.286 23.5259 109.445 22.9401C110.604 22.3541 111.911 22.0613 113.365 22.0613C114.818 22.0613 116.125 22.3541 117.284 22.9401C118.443 23.5259 119.357 24.3754 120.025 25.4885C120.693 26.6016 121.027 27.9393 121.027 29.5015V29.9703C121.027 31.5325 120.693 32.8703 120.025 33.9833C119.357 35.0964 118.443 35.9459 117.284 36.5317C116.125 37.1177 114.818 37.4105 113.365 37.4105ZM113.365 34.1298C114.504 34.1298 115.447 33.7686 116.194 33.0459C116.94 32.3039 117.314 31.2493 117.314 29.8823V29.5895C117.314 28.2225 116.94 27.1776 116.194 26.4551C115.467 25.7131 114.524 25.342 113.365 25.342C112.225 25.342 111.282 25.7131 110.535 26.4551C109.789 27.1776 109.415 28.2225 109.415 29.5895V29.8823C109.415 31.2493 109.789 32.3039 110.535 33.0459C111.282 33.7686 112.225 34.1298 113.365 34.1298Z" fill="white"/>
<path d="M123.129 37.0004V22.4712H126.842V37.0004H123.129ZM124.986 20.7723C124.318 20.7723 123.748 20.5575 123.276 20.1279C122.825 19.6982 122.599 19.1318 122.599 18.4289C122.599 17.7259 122.825 17.1595 123.276 16.7299C123.748 16.3003 124.318 16.0854 124.986 16.0854C125.673 16.0854 126.243 16.3003 126.695 16.7299C127.147 17.1595 127.373 17.7259 127.373 18.4289C127.373 19.1318 127.147 19.6982 126.695 20.1279C126.243 20.5575 125.673 20.7723 124.986 20.7723Z" fill="white"/>
<path d="M129.63 42.859V22.4713H133.285V24.229H133.816C134.149 23.6626 134.669 23.1646 135.378 22.7349C136.085 22.2858 137.097 22.0613 138.413 22.0613C139.592 22.0613 140.682 22.3541 141.684 22.9401C142.686 23.5063 143.492 24.346 144.101 25.4592C144.71 26.5723 145.014 27.9198 145.014 29.5015V29.9703C145.014 31.552 144.71 32.8995 144.101 34.0126C143.492 35.1258 142.686 35.9752 141.684 36.5611C140.682 37.1274 139.592 37.4105 138.413 37.4105C137.528 37.4105 136.782 37.3031 136.173 37.0883C135.583 36.893 135.102 36.6392 134.729 36.3267C134.375 35.9947 134.09 35.6628 133.875 35.3308H133.344V42.859H129.63ZM137.293 34.1884C138.452 34.1884 139.405 33.827 140.152 33.1045C140.918 32.3625 141.301 31.2884 141.301 29.8823V29.5895C141.301 28.1834 140.918 27.1191 140.152 26.3965C139.386 25.6545 138.433 25.2834 137.293 25.2834C136.153 25.2834 135.2 25.6545 134.434 26.3965C133.668 27.1191 133.285 28.1834 133.285 29.5895V29.8823C133.285 31.2884 133.668 32.3625 134.434 33.1045C135.2 33.827 136.153 34.1884 137.293 34.1884Z" fill="white"/>
<path d="M153.169 37.4105C151.263 37.4105 149.701 37.0004 148.483 36.1802C147.266 35.36 146.529 34.1883 146.272 32.665L149.692 31.7863C149.829 32.4697 150.055 33.0069 150.369 33.3974C150.704 33.788 151.106 34.0711 151.578 34.2469C152.069 34.4031 152.599 34.4813 153.169 34.4813C154.033 34.4813 154.672 34.3347 155.086 34.0419C155.497 33.7294 155.704 33.3486 155.704 32.8994C155.704 32.4503 155.508 32.1085 155.114 31.8742C154.722 31.6203 154.093 31.4153 153.228 31.2591L152.403 31.1125C151.381 30.9173 150.448 30.6536 149.603 30.3217C148.759 29.9702 148.08 29.4917 147.569 28.8864C147.059 28.2809 146.803 27.4998 146.803 26.5429C146.803 25.0978 147.334 23.9945 148.395 23.2329C149.455 22.4517 150.852 22.0612 152.58 22.0612C154.211 22.0612 155.567 22.4225 156.646 23.145C157.727 23.8676 158.435 24.8147 158.769 25.9864L155.321 27.0409C155.164 26.2989 154.84 25.7715 154.348 25.4592C153.876 25.1467 153.287 24.9904 152.58 24.9904C151.872 24.9904 151.333 25.1173 150.959 25.3712C150.586 25.6056 150.399 25.9376 150.399 26.3672C150.399 26.8359 150.595 27.1873 150.989 27.4217C151.381 27.6365 151.912 27.8025 152.58 27.9197L153.404 28.0661C154.505 28.2614 155.497 28.525 156.382 28.857C157.286 29.1695 157.993 29.6284 158.504 30.2338C159.035 30.8197 159.3 31.6203 159.3 32.6358C159.3 34.1591 158.739 35.3405 157.619 36.1802C156.52 37.0004 155.036 37.4105 153.169 37.4105Z" fill="white"/>
<path d="M166.796 37.2346C165.657 37.2346 164.655 36.9807 163.791 36.4731C162.946 35.9457 162.287 35.2232 161.816 34.3054C161.345 33.3876 161.108 32.333 161.108 31.1418V22.4712H164.822V30.8489C164.822 31.9424 165.087 32.7627 165.618 33.3094C166.167 33.8563 166.944 34.1296 167.946 34.1296C169.085 34.1296 169.97 33.7586 170.599 33.0166C171.227 32.2549 171.541 31.2004 171.541 29.853V22.4712H175.255V37.0004H171.6V35.0963H171.07C170.834 35.5846 170.392 36.0629 169.744 36.5316C169.095 37.0004 168.112 37.2346 166.796 37.2346Z" fill="white"/>
<path d="M178.062 37.0005V22.4713H181.715V24.0532H182.246C182.501 23.5649 182.924 23.1451 183.512 22.7935C184.102 22.4226 184.879 22.237 185.842 22.237C186.882 22.237 187.718 22.4421 188.346 22.8521C188.975 23.2427 189.456 23.7602 189.791 24.4046H190.32C190.655 23.7798 191.127 23.2623 191.736 22.8521C192.345 22.4421 193.209 22.237 194.329 22.237C195.233 22.237 196.048 22.4323 196.775 22.8229C197.522 23.1938 198.111 23.7699 198.544 24.5512C198.995 25.3127 199.221 26.2793 199.221 27.4511V37.0005H195.507V27.7148C195.507 26.914 195.302 26.3184 194.889 25.9279C194.476 25.5178 193.897 25.3127 193.15 25.3127C192.306 25.3127 191.647 25.5862 191.175 26.1329C190.724 26.6601 190.498 27.4218 190.498 28.4178V37.0005H186.784V27.7148C186.784 26.914 186.578 26.3184 186.166 25.9279C185.753 25.5178 185.174 25.3127 184.426 25.3127C183.582 25.3127 182.924 25.5862 182.452 26.1329C182 26.6601 181.774 27.4218 181.774 28.4178V37.0005H178.062Z" fill="white"/>
</svg>
