<svg width="200" height="54" viewBox="0 0 200 54" fill="none" xmlns="http://www.w3.org/2000/svg">
<path d="M21.3735 32.4702V43.1592C21.3735 43.569 21.2097 43.962 20.9182 44.2516C20.6268 44.5414 20.2314 44.7041 19.8191 44.7041C19.407 44.7041 19.0116 44.5414 18.7201 44.2516C18.4285 43.962 18.2648 43.569 18.2648 43.1592V32.485C18.6976 32.7991 19.2164 32.9745 19.7522 32.9876C20.3362 33.0042 20.9084 32.8216 21.3735 32.4702ZM34.6117 29.3803C34.2172 29.3803 33.8388 29.5361 33.5599 29.8133C33.281 30.0905 33.1242 30.4666 33.1242 30.8587V32.7215C33.1242 33.1313 33.288 33.5243 33.5795 33.8139C33.8709 34.1037 34.2663 34.2665 34.6786 34.2665C35.0909 34.2665 35.4863 34.1037 35.7777 33.8139C36.0692 33.5243 36.233 33.1313 36.233 32.7215V30.9326C36.2446 30.7206 36.2101 30.5086 36.1318 30.3111C36.0536 30.1136 35.9335 29.935 35.7796 29.7878C35.6258 29.6405 35.4418 29.5278 35.2404 29.4575C35.0389 29.3872 34.8244 29.3609 34.6117 29.3803ZM14.8883 36.5211C14.3531 36.5051 13.8349 36.3301 13.4008 36.0184V46.737C13.4008 47.1487 13.5654 47.5436 13.8583 47.8347C14.1512 48.1258 14.5484 48.2893 14.9626 48.2893C15.3769 48.2893 15.7741 48.1258 16.067 47.8347C16.3599 47.5436 16.5245 47.1487 16.5245 46.737V36.0923C16.0387 36.4044 15.4656 36.5546 14.8883 36.5211ZM29.7626 26.1721C29.5611 26.1621 29.3597 26.193 29.1705 26.2628C28.9814 26.3325 28.8086 26.4399 28.6624 26.5781C28.5163 26.7165 28.4001 26.8828 28.3207 27.0672C28.2414 27.2515 28.2005 27.4501 28.2008 27.6505V35.8854C28.2008 36.2971 28.3653 36.692 28.6582 36.9831C28.9512 37.2742 29.3484 37.4377 29.7626 37.4377C30.1769 37.4377 30.5742 37.2742 30.867 36.9831C31.1599 36.692 31.3244 36.2971 31.3244 35.8854V27.754C31.3363 27.5407 31.3015 27.3274 31.2224 27.1287C31.1433 26.93 31.0219 26.7506 30.8663 26.6031C30.7107 26.4555 30.5249 26.3432 30.3216 26.274C30.1183 26.2047 29.9021 26.18 29.6883 26.2017L29.7626 26.1721ZM24.8243 29.3359C24.264 29.3321 23.7187 29.1566 23.2625 28.8333V39.5814C23.2625 39.9931 23.427 40.388 23.7199 40.6791C24.0129 40.9702 24.4101 41.1337 24.8243 41.1337C25.2386 41.1337 25.6357 40.9702 25.9288 40.6791C26.2216 40.388 26.3862 39.9931 26.3862 39.5814V28.8481C25.9143 29.1974 25.3383 29.3796 24.75 29.3655L24.8243 29.3359ZM11.5118 37.5707V7.54403C11.5079 7.17802 11.3588 6.82834 11.0971 6.5709C10.8353 6.31347 10.4819 6.16908 10.1136 6.1691H9.78637C9.41811 6.16908 9.06471 6.31347 8.80293 6.5709C8.54114 6.82834 8.3921 7.17802 8.38818 7.54403V37.5707C8.38818 37.9393 8.5355 38.2928 8.7977 38.5535C9.05991 38.8141 9.41556 38.9605 9.78637 38.9605H10.1136C10.4844 38.9605 10.8401 38.8141 11.1023 38.5535C11.3645 38.2928 11.5118 37.9393 11.5118 37.5707ZM15.0519 35.3827H14.7247C14.3538 35.3827 13.9982 35.2363 13.736 34.9757C13.4738 34.715 13.3265 34.3615 13.3265 33.993V11.1218C13.3304 10.7558 13.4794 10.4061 13.7412 10.1487C14.003 9.89124 14.3564 9.74686 14.7247 9.74688H15.0519C15.4202 9.74686 15.7736 9.89124 16.0353 10.1487C16.2971 10.4061 16.4462 10.7558 16.4501 11.1218V34.0225C16.4501 34.3911 16.3028 34.7446 16.0406 35.0052C15.7784 35.2659 15.4227 35.4123 15.0519 35.4123V35.3827ZM19.9753 31.864H19.6332C19.2664 31.864 18.9145 31.7192 18.6551 31.4613C18.3956 31.2035 18.2499 30.8538 18.2499 30.4891V14.67C18.2479 14.4882 18.2823 14.3078 18.3509 14.1393C18.4194 13.9708 18.521 13.8175 18.6497 13.6882C18.7784 13.559 18.9316 13.4564 19.1004 13.3864C19.2692 13.3163 19.4502 13.2803 19.6332 13.2803H19.9753C20.3436 13.2842 20.6954 13.4323 20.9543 13.6925C21.2134 13.9527 21.3586 14.304 21.3586 14.67V30.4891C21.3586 30.8538 21.2129 31.2035 20.9534 31.4613C20.694 31.7192 20.3423 31.864 19.9753 31.864ZM24.8987 28.2419H24.5864C24.2181 28.2419 23.8646 28.0976 23.6029 27.8401C23.3411 27.5827 23.192 27.233 23.1882 26.867V18.3513C23.176 18.1615 23.203 17.9712 23.2679 17.7921C23.3326 17.6133 23.4337 17.4493 23.5648 17.3108C23.6958 17.1721 23.8541 17.0618 24.0299 16.9864C24.2056 16.9112 24.3949 16.8724 24.5864 16.8729H24.9136C25.2844 16.8729 25.6401 17.0192 25.9023 17.2799C26.1645 17.5405 26.3118 17.894 26.3118 18.2626V26.8374C26.3137 27.0212 26.2791 27.2035 26.2096 27.3738C26.1403 27.5441 26.0376 27.699 25.9075 27.8297C25.7775 27.9603 25.6228 28.0639 25.452 28.1347C25.2814 28.2055 25.0985 28.2419 24.9136 28.2419H24.8987ZM29.837 25.0633H29.5098C29.1389 25.0633 28.7833 24.9169 28.5211 24.6563C28.2588 24.3957 28.1116 24.0422 28.1116 23.6736V21.4708C28.1154 21.1047 28.2645 20.755 28.5263 20.4977C28.7881 20.2401 29.1415 20.0958 29.5098 20.0958H29.837C30.2053 20.0958 30.5587 20.2401 30.8205 20.4977C31.0823 20.755 31.2313 21.1047 31.2352 21.4708V23.6736C31.2352 24.0397 31.09 24.3909 30.8309 24.6511C30.5719 24.9113 30.2202 25.0595 29.8519 25.0633H29.837Z" fill="white"/>
<path d="M77.3281 30.456C77.3281 32.2053 76.9335 33.752 76.1441 35.096C75.3761 36.4187 74.3308 37.4533 73.0081 38.2C71.7068 38.9467 70.2455 39.32 68.6241 39.32C67.0028 39.32 65.5308 38.9467 64.2081 38.2C62.9068 37.4533 61.8615 36.4187 61.0721 35.096C60.3041 33.752 59.9201 32.2053 59.9201 30.456C59.9201 28.7067 60.3041 27.1707 61.0721 25.848C61.8615 24.504 62.9068 23.4587 64.2081 22.712C65.5308 21.944 67.0028 21.56 68.6241 21.56C70.2455 21.56 71.7068 21.944 73.0081 22.712C74.3308 23.4587 75.3761 24.504 76.1441 25.848C76.9335 27.1707 77.3281 28.7067 77.3281 30.456ZM73.4881 30.456C73.4881 29.368 73.2641 28.4293 72.8161 27.64C72.3895 26.8293 71.8028 26.2 71.0561 25.752C70.3308 25.304 69.5201 25.08 68.6241 25.08C67.7281 25.08 66.9068 25.304 66.1601 25.752C65.4348 26.2 64.8481 26.8293 64.4001 27.64C63.9735 28.4293 63.7601 29.368 63.7601 30.456C63.7601 31.5227 63.9735 32.4613 64.4001 33.272C64.8481 34.0613 65.4348 34.68 66.1601 35.128C66.9068 35.576 67.7281 35.8 68.6241 35.8C69.5201 35.8 70.3308 35.576 71.0561 35.128C71.8028 34.68 72.3895 34.0613 72.8161 33.272C73.2641 32.4613 73.4881 31.5227 73.4881 30.456ZM90.1289 15.32C90.5982 15.32 91.0569 15.384 91.5049 15.512C91.9529 15.64 92.3262 15.8533 92.6249 16.152C92.9236 16.4293 93.0729 16.8027 93.0729 17.272C93.0729 17.8053 92.9129 18.232 92.5929 18.552C92.2942 18.8507 91.9422 19 91.5369 19C91.3449 19 91.0569 18.9573 90.6729 18.872C90.2889 18.7653 89.9156 18.712 89.5529 18.712C89.0196 18.712 88.6036 18.8293 88.3049 19.064C88.0276 19.2987 87.8356 19.576 87.7289 19.896C87.6222 20.1947 87.5689 20.4613 87.5689 20.696V37.048C87.5689 37.6027 87.3876 38.072 87.0249 38.456C86.6622 38.8187 86.2036 39 85.6489 39C85.0942 39 84.6356 38.8187 84.2729 38.456C83.9102 38.072 83.7289 37.6027 83.7289 37.048V20.728C83.7289 19.2133 84.2622 17.9333 85.3289 16.888C86.3956 15.8427 87.9956 15.32 90.1289 15.32ZM90.4809 22.2C90.9929 22.2 91.4196 22.3707 91.7609 22.712C92.1022 23.032 92.2729 23.448 92.2729 23.96C92.2729 24.472 92.1022 24.8987 91.7609 25.24C91.4196 25.56 90.9929 25.72 90.4809 25.72H82.0009C81.4889 25.72 81.0622 25.56 80.7209 25.24C80.3796 24.8987 80.2089 24.472 80.2089 23.96C80.2089 23.448 80.3796 23.032 80.7209 22.712C81.0622 22.3707 81.4889 22.2 82.0009 22.2H90.4809ZM104.113 15.32C104.582 15.32 105.041 15.384 105.489 15.512C105.937 15.64 106.31 15.8533 106.609 16.152C106.908 16.4293 107.057 16.8027 107.057 17.272C107.057 17.8053 106.897 18.232 106.577 18.552C106.278 18.8507 105.926 19 105.521 19C105.329 19 105.041 18.9573 104.657 18.872C104.273 18.7653 103.9 18.712 103.537 18.712C103.004 18.712 102.588 18.8293 102.289 19.064C102.012 19.2987 101.82 19.576 101.713 19.896C101.606 20.1947 101.553 20.4613 101.553 20.696V37.048C101.553 37.6027 101.372 38.072 101.009 38.456C100.646 38.8187 100.188 39 99.6329 39C99.0782 39 98.6196 38.8187 98.2569 38.456C97.8942 38.072 97.7129 37.6027 97.7129 37.048V20.728C97.7129 19.2133 98.2462 17.9333 99.3129 16.888C100.38 15.8427 101.98 15.32 104.113 15.32ZM104.465 22.2C104.977 22.2 105.404 22.3707 105.745 22.712C106.086 23.032 106.257 23.448 106.257 23.96C106.257 24.472 106.086 24.8987 105.745 25.24C105.404 25.56 104.977 25.72 104.465 25.72H95.9849C95.4729 25.72 95.0462 25.56 94.7049 25.24C94.3636 24.8987 94.1929 24.472 94.1929 23.96C94.1929 23.448 94.3636 23.032 94.7049 22.712C95.0462 22.3707 95.4729 22.2 95.9849 22.2H104.465ZM118.93 21.56C120.636 21.56 121.895 21.976 122.706 22.808C123.516 23.6187 124.05 24.6747 124.306 25.976L123.762 25.688L124.018 25.176C124.274 24.6853 124.668 24.1627 125.202 23.608C125.735 23.032 126.375 22.552 127.122 22.168C127.89 21.7627 128.743 21.56 129.682 21.56C131.218 21.56 132.38 21.8907 133.17 22.552C133.98 23.2133 134.535 24.0987 134.834 25.208C135.132 26.296 135.282 27.512 135.282 28.856V37.048C135.282 37.6027 135.1 38.072 134.738 38.456C134.375 38.8187 133.916 39 133.362 39C132.807 39 132.348 38.8187 131.986 38.456C131.623 38.072 131.442 37.6027 131.442 37.048V28.856C131.442 28.152 131.356 27.5227 131.186 26.968C131.015 26.392 130.706 25.9333 130.258 25.592C129.81 25.2507 129.17 25.08 128.338 25.08C127.527 25.08 126.834 25.2507 126.258 25.592C125.682 25.9333 125.244 26.392 124.946 26.968C124.668 27.5227 124.53 28.152 124.53 28.856V37.048C124.53 37.6027 124.348 38.072 123.986 38.456C123.623 38.8187 123.164 39 122.61 39C122.055 39 121.596 38.8187 121.234 38.456C120.871 38.072 120.69 37.6027 120.69 37.048V28.856C120.69 28.152 120.604 27.5227 120.434 26.968C120.263 26.392 119.954 25.9333 119.506 25.592C119.058 25.2507 118.418 25.08 117.586 25.08C116.775 25.08 116.082 25.2507 115.506 25.592C114.93 25.9333 114.492 26.392 114.194 26.968C113.916 27.5227 113.778 28.152 113.778 28.856V37.048C113.778 37.6027 113.596 38.072 113.234 38.456C112.871 38.8187 112.412 39 111.858 39C111.303 39 110.844 38.8187 110.482 38.456C110.119 38.072 109.938 37.6027 109.938 37.048V23.832C109.938 23.2773 110.119 22.8187 110.482 22.456C110.844 22.072 111.303 21.88 111.858 21.88C112.412 21.88 112.871 22.072 113.234 22.456C113.596 22.8187 113.778 23.2773 113.778 23.832V25.208L113.298 25.112C113.49 24.7493 113.756 24.3653 114.098 23.96C114.439 23.5333 114.855 23.1387 115.346 22.776C115.836 22.4133 116.38 22.1253 116.978 21.912C117.575 21.6773 118.226 21.56 118.93 21.56ZM154.094 21.56C154.648 21.56 155.107 21.7413 155.47 22.104C155.832 22.4667 156.014 22.936 156.014 23.512V37.048C156.014 37.6027 155.832 38.072 155.47 38.456C155.107 38.8187 154.648 39 154.094 39C153.539 39 153.08 38.8187 152.718 38.456C152.355 38.072 152.174 37.6027 152.174 37.048V35.48L152.878 35.768C152.878 36.0453 152.728 36.3867 152.43 36.792C152.131 37.176 151.726 37.56 151.214 37.944C150.702 38.328 150.094 38.6587 149.39 38.936C148.707 39.192 147.96 39.32 147.15 39.32C145.678 39.32 144.344 38.9467 143.15 38.2C141.955 37.432 141.006 36.3867 140.302 35.064C139.619 33.72 139.278 32.184 139.278 30.456C139.278 28.7067 139.619 27.1707 140.302 25.848C141.006 24.504 141.944 23.4587 143.118 22.712C144.291 21.944 145.592 21.56 147.022 21.56C147.939 21.56 148.782 21.6987 149.55 21.976C150.318 22.2533 150.979 22.6053 151.534 23.032C152.11 23.4587 152.547 23.896 152.846 24.344C153.166 24.7707 153.326 25.1333 153.326 25.432L152.174 25.848V23.512C152.174 22.9573 152.355 22.4987 152.718 22.136C153.08 21.752 153.539 21.56 154.094 21.56ZM147.63 35.8C148.568 35.8 149.39 35.5653 150.094 35.096C150.798 34.6267 151.342 33.9867 151.726 33.176C152.131 32.3653 152.334 31.4587 152.334 30.456C152.334 29.432 152.131 28.5147 151.726 27.704C151.342 26.8933 150.798 26.2533 150.094 25.784C149.39 25.3147 148.568 25.08 147.63 25.08C146.712 25.08 145.902 25.3147 145.198 25.784C144.494 26.2533 143.939 26.8933 143.534 27.704C143.15 28.5147 142.958 29.432 142.958 30.456C142.958 31.4587 143.15 32.3653 143.534 33.176C143.939 33.9867 144.494 34.6267 145.198 35.096C145.902 35.5653 146.712 35.8 147.63 35.8ZM161.163 21.88C161.782 21.88 162.305 22.1467 162.731 22.68L173.419 35.96C173.697 36.3013 173.835 36.6853 173.835 37.112C173.835 37.6453 173.633 38.104 173.227 38.488C172.822 38.872 172.374 39.064 171.883 39.064C171.265 39.064 170.742 38.7867 170.315 38.232L159.627 24.952C159.35 24.6107 159.211 24.2267 159.211 23.8C159.211 23.2453 159.403 22.7867 159.787 22.424C160.193 22.0613 160.651 21.88 161.163 21.88ZM161.195 39.032C160.769 39.032 160.342 38.872 159.915 38.552C159.51 38.2107 159.307 37.8053 159.307 37.336C159.307 36.9093 159.467 36.504 159.787 36.12L164.683 30.136L166.603 33.336L162.731 38.232C162.326 38.7653 161.814 39.032 161.195 39.032ZM171.851 21.88C172.363 21.88 172.79 22.0613 173.131 22.424C173.494 22.7653 173.675 23.16 173.675 23.608C173.675 23.8213 173.643 24.0347 173.579 24.248C173.515 24.4613 173.398 24.664 173.227 24.856L168.395 30.744L166.379 27.96L170.315 22.744C170.742 22.168 171.254 21.88 171.851 21.88Z" fill="white"/>
</svg>
