<svg width="201" height="54" viewBox="0 0 201 54" fill="none" xmlns="http://www.w3.org/2000/svg">
<path d="M30.7535 39.6172L4.75352 21.7911C2.11874 19.9848 3.01439 16.2236 6.2999 15.3391L33.9332 7.8846C34.5186 7.67466 35.1458 7.60651 35.7631 7.68581C36.3802 7.76511 36.9695 7.98957 37.4819 8.34056C37.9942 8.69155 38.4151 9.15895 38.7093 9.70396C39.0035 10.249 39.1628 10.8559 39.1738 11.4743L37.5361 36.7535C37.3419 39.7541 33.3883 41.4236 30.7535 39.6172Z" fill="#A1AEBF"/>
<path d="M22.5079 44.0179L7.19044 14.2444C6.8403 13.5633 6.68623 12.7993 6.7452 12.0367C6.80417 11.274 7.07391 10.5424 7.52465 9.92243C7.9754 9.30248 8.58965 8.81831 9.29966 8.52329C10.0097 8.22828 10.7879 8.1339 11.5484 8.25056L39.9354 12.6052C40.5889 12.7054 41.2092 12.9585 41.7453 13.3434C42.2812 13.7284 42.7176 14.2343 43.0186 14.8196C43.3195 15.4049 43.4764 16.0528 43.4763 16.7101C43.4761 17.3674 43.319 18.0153 43.018 18.6005L29.9412 44.0193C29.59 44.6985 29.0573 45.2684 28.4015 45.6661C27.7457 46.064 26.9924 46.2743 26.2241 46.2742C25.4558 46.274 24.7025 46.0634 24.0469 45.6654C23.3912 45.2672 22.8587 44.6972 22.5079 44.0179Z" fill="#728095"/>
<path d="M39.1047 12.477L24.954 10.3061L7.58008 14.9949L14.5149 28.4794L30.754 39.6173C31.1123 39.8603 31.5063 40.0464 31.9221 40.169L38.0902 28.1798L39.1047 12.477Z" fill="white"/>
<path d="M86.9907 27.7893C86.9907 29.5387 86.5961 31.0853 85.8067 32.4293C85.0387 33.752 83.9934 34.7867 82.6707 35.5333C81.3694 36.28 79.9081 36.6533 78.2867 36.6533C76.6654 36.6533 75.1934 36.28 73.8707 35.5333C72.5694 34.7867 71.5241 33.752 70.7347 32.4293C69.9667 31.0853 69.5827 29.5387 69.5827 27.7893C69.5827 26.04 69.9667 24.504 70.7347 23.1813C71.5241 21.8373 72.5694 20.792 73.8707 20.0453C75.1934 19.2773 76.6654 18.8933 78.2867 18.8933C79.9081 18.8933 81.3694 19.2773 82.6707 20.0453C83.9934 20.792 85.0387 21.8373 85.8067 23.1813C86.5961 24.504 86.9907 26.04 86.9907 27.7893ZM83.1507 27.7893C83.1507 26.7013 82.9267 25.7627 82.4787 24.9733C82.0521 24.1627 81.4654 23.5333 80.7187 23.0853C79.9934 22.6373 79.1827 22.4133 78.2867 22.4133C77.3907 22.4133 76.5694 22.6373 75.8227 23.0853C75.0974 23.5333 74.5107 24.1627 74.0627 24.9733C73.6361 25.7627 73.4227 26.7013 73.4227 27.7893C73.4227 28.856 73.6361 29.7947 74.0627 30.6053C74.5107 31.3947 75.0974 32.0133 75.8227 32.4613C76.5694 32.9093 77.3907 33.1333 78.2867 33.1333C79.1827 33.1333 79.9934 32.9093 80.7187 32.4613C81.4654 32.0133 82.0521 31.3947 82.4787 30.6053C82.9267 29.7947 83.1507 28.856 83.1507 27.7893ZM99.7915 12.6533C100.261 12.6533 100.719 12.7173 101.167 12.8453C101.615 12.9733 101.989 13.1867 102.287 13.4853C102.586 13.7627 102.735 14.136 102.735 14.6053C102.735 15.1387 102.575 15.5653 102.255 15.8853C101.957 16.184 101.605 16.3333 101.199 16.3333C101.007 16.3333 100.719 16.2907 100.335 16.2053C99.9515 16.0987 99.5782 16.0453 99.2155 16.0453C98.6822 16.0453 98.2662 16.1627 97.9675 16.3973C97.6902 16.632 97.4982 16.9093 97.3915 17.2293C97.2848 17.528 97.2315 17.7947 97.2315 18.0293V34.3813C97.2315 34.936 97.0502 35.4053 96.6875 35.7893C96.3248 36.152 95.8662 36.3333 95.3115 36.3333C94.7568 36.3333 94.2982 36.152 93.9355 35.7893C93.5728 35.4053 93.3915 34.936 93.3915 34.3813V18.0613C93.3915 16.5467 93.9248 15.2667 94.9915 14.2213C96.0582 13.176 97.6582 12.6533 99.7915 12.6533ZM100.143 19.5333C100.655 19.5333 101.082 19.704 101.423 20.0453C101.765 20.3653 101.935 20.7813 101.935 21.2933C101.935 21.8053 101.765 22.232 101.423 22.5733C101.082 22.8933 100.655 23.0533 100.143 23.0533H91.6635C91.1515 23.0533 90.7248 22.8933 90.3835 22.5733C90.0422 22.232 89.8715 21.8053 89.8715 21.2933C89.8715 20.7813 90.0422 20.3653 90.3835 20.0453C90.7248 19.704 91.1515 19.5333 91.6635 19.5333H100.143ZM113.775 12.6533C114.245 12.6533 114.703 12.7173 115.151 12.8453C115.599 12.9733 115.973 13.1867 116.271 13.4853C116.57 13.7627 116.719 14.136 116.719 14.6053C116.719 15.1387 116.559 15.5653 116.239 15.8853C115.941 16.184 115.589 16.3333 115.183 16.3333C114.991 16.3333 114.703 16.2907 114.319 16.2053C113.935 16.0987 113.562 16.0453 113.199 16.0453C112.666 16.0453 112.25 16.1627 111.951 16.3973C111.674 16.632 111.482 16.9093 111.375 17.2293C111.269 17.528 111.215 17.7947 111.215 18.0293V34.3813C111.215 34.936 111.034 35.4053 110.671 35.7893C110.309 36.152 109.85 36.3333 109.295 36.3333C108.741 36.3333 108.282 36.152 107.919 35.7893C107.557 35.4053 107.375 34.936 107.375 34.3813V18.0613C107.375 16.5467 107.909 15.2667 108.975 14.2213C110.042 13.176 111.642 12.6533 113.775 12.6533ZM114.127 19.5333C114.639 19.5333 115.066 19.704 115.407 20.0453C115.749 20.3653 115.919 20.7813 115.919 21.2933C115.919 21.8053 115.749 22.232 115.407 22.5733C115.066 22.8933 114.639 23.0533 114.127 23.0533H105.647C105.135 23.0533 104.709 22.8933 104.367 22.5733C104.026 22.232 103.855 21.8053 103.855 21.2933C103.855 20.7813 104.026 20.3653 104.367 20.0453C104.709 19.704 105.135 19.5333 105.647 19.5333H114.127ZM128.592 18.8933C130.299 18.8933 131.558 19.3093 132.368 20.1413C133.179 20.952 133.712 22.008 133.968 23.3093L133.424 23.0213L133.68 22.5093C133.936 22.0187 134.331 21.496 134.864 20.9413C135.398 20.3653 136.038 19.8853 136.784 19.5013C137.552 19.096 138.406 18.8933 139.344 18.8933C140.88 18.8933 142.043 19.224 142.832 19.8853C143.643 20.5467 144.198 21.432 144.496 22.5413C144.795 23.6293 144.944 24.8453 144.944 26.1893V34.3813C144.944 34.936 144.763 35.4053 144.4 35.7893C144.038 36.152 143.579 36.3333 143.024 36.3333C142.47 36.3333 142.011 36.152 141.648 35.7893C141.286 35.4053 141.104 34.936 141.104 34.3813V26.1893C141.104 25.4853 141.019 24.856 140.848 24.3013C140.678 23.7253 140.368 23.2667 139.92 22.9253C139.472 22.584 138.832 22.4133 138 22.4133C137.19 22.4133 136.496 22.584 135.92 22.9253C135.344 23.2667 134.907 23.7253 134.608 24.3013C134.331 24.856 134.192 25.4853 134.192 26.1893V34.3813C134.192 34.936 134.011 35.4053 133.648 35.7893C133.286 36.152 132.827 36.3333 132.272 36.3333C131.718 36.3333 131.259 36.152 130.896 35.7893C130.534 35.4053 130.352 34.936 130.352 34.3813V26.1893C130.352 25.4853 130.267 24.856 130.096 24.3013C129.926 23.7253 129.616 23.2667 129.168 22.9253C128.72 22.584 128.08 22.4133 127.248 22.4133C126.438 22.4133 125.744 22.584 125.168 22.9253C124.592 23.2667 124.155 23.7253 123.856 24.3013C123.579 24.856 123.44 25.4853 123.44 26.1893V34.3813C123.44 34.936 123.259 35.4053 122.896 35.7893C122.534 36.152 122.075 36.3333 121.52 36.3333C120.966 36.3333 120.507 36.152 120.144 35.7893C119.782 35.4053 119.6 34.936 119.6 34.3813V21.1653C119.6 20.6107 119.782 20.152 120.144 19.7893C120.507 19.4053 120.966 19.2133 121.52 19.2133C122.075 19.2133 122.534 19.4053 122.896 19.7893C123.259 20.152 123.44 20.6107 123.44 21.1653V22.5413L122.96 22.4453C123.152 22.0827 123.419 21.6987 123.76 21.2933C124.102 20.8667 124.518 20.472 125.008 20.1093C125.499 19.7467 126.043 19.4587 126.64 19.2453C127.238 19.0107 127.888 18.8933 128.592 18.8933ZM163.756 18.8933C164.311 18.8933 164.77 19.0747 165.132 19.4373C165.495 19.8 165.676 20.2693 165.676 20.8453V34.3813C165.676 34.936 165.495 35.4053 165.132 35.7893C164.77 36.152 164.311 36.3333 163.756 36.3333C163.202 36.3333 162.743 36.152 162.38 35.7893C162.018 35.4053 161.836 34.936 161.836 34.3813V32.8133L162.54 33.1013C162.54 33.3787 162.391 33.72 162.092 34.1253C161.794 34.5093 161.388 34.8933 160.876 35.2773C160.364 35.6613 159.756 35.992 159.052 36.2693C158.37 36.5253 157.623 36.6533 156.812 36.6533C155.34 36.6533 154.007 36.28 152.812 35.5333C151.618 34.7653 150.668 33.72 149.964 32.3973C149.282 31.0533 148.94 29.5173 148.94 27.7893C148.94 26.04 149.282 24.504 149.964 23.1813C150.668 21.8373 151.607 20.792 152.78 20.0453C153.954 19.2773 155.255 18.8933 156.684 18.8933C157.602 18.8933 158.444 19.032 159.212 19.3093C159.98 19.5867 160.642 19.9387 161.196 20.3653C161.772 20.792 162.21 21.2293 162.508 21.6773C162.828 22.104 162.988 22.4667 162.988 22.7653L161.836 23.1813V20.8453C161.836 20.2907 162.018 19.832 162.38 19.4693C162.743 19.0853 163.202 18.8933 163.756 18.8933ZM157.292 33.1333C158.231 33.1333 159.052 32.8987 159.756 32.4293C160.46 31.96 161.004 31.32 161.388 30.5093C161.794 29.6987 161.996 28.792 161.996 27.7893C161.996 26.7653 161.794 25.848 161.388 25.0373C161.004 24.2267 160.46 23.5867 159.756 23.1173C159.052 22.648 158.231 22.4133 157.292 22.4133C156.375 22.4133 155.564 22.648 154.86 23.1173C154.156 23.5867 153.602 24.2267 153.196 25.0373C152.812 25.848 152.62 26.7653 152.62 27.7893C152.62 28.792 152.812 29.6987 153.196 30.5093C153.602 31.32 154.156 31.96 154.86 32.4293C155.564 32.8987 156.375 33.1333 157.292 33.1333ZM170.826 19.2133C171.445 19.2133 171.967 19.48 172.394 20.0133L183.082 33.2933C183.359 33.6347 183.498 34.0187 183.498 34.4453C183.498 34.9787 183.295 35.4373 182.89 35.8213C182.485 36.2053 182.037 36.3973 181.546 36.3973C180.927 36.3973 180.405 36.12 179.978 35.5653L169.29 22.2853C169.013 21.944 168.874 21.56 168.874 21.1333C168.874 20.5787 169.066 20.12 169.45 19.7573C169.855 19.3947 170.314 19.2133 170.826 19.2133ZM170.858 36.3653C170.431 36.3653 170.005 36.2053 169.578 35.8853C169.173 35.544 168.97 35.1387 168.97 34.6693C168.97 34.2427 169.13 33.8373 169.45 33.4533L174.346 27.4693L176.266 30.6693L172.394 35.5653C171.989 36.0987 171.477 36.3653 170.858 36.3653ZM181.514 19.2133C182.026 19.2133 182.453 19.3947 182.794 19.7573C183.157 20.0987 183.338 20.4933 183.338 20.9413C183.338 21.1547 183.306 21.368 183.242 21.5813C183.178 21.7947 183.061 21.9973 182.89 22.1893L178.058 28.0773L176.042 25.2933L179.978 20.0773C180.405 19.5013 180.917 19.2133 181.514 19.2133Z" fill="white"/>
</svg>
