<svg width="27" height="22" viewBox="0 0 27 22" fill="none" xmlns="http://www.w3.org/2000/svg">
<path d="M24.9114 20.5986C24.9122 20.5577 24.913 20.5134 24.9138 20.4655C24.9251 19.7267 24.9226 18.3122 24.9175 15.4839C24.9098 12.6381 24.9059 11.2246 24.8909 10.4994C24.8907 10.4902 24.8905 10.4812 24.8903 10.4723C24.5842 10.4662 24.1358 10.4619 23.4669 10.4566C23.4668 10.4566 23.4667 10.4566 23.4666 10.4566L21.2727 10.4395L20.0276 10.4298L20.0226 9.18475L20.0073 5.38792C20.0073 5.38792 20.0073 5.38792 20.0073 5.38791C20.0004 3.68751 19.9965 2.76885 19.985 2.25103C19.7919 2.24841 19.5496 2.24815 19.2365 2.24815L18.4257 2.24815C18.4179 2.27119 18.4096 2.29572 18.401 2.32183C18.2199 2.86702 17.9049 3.91371 17.2672 6.04029C17.2671 6.04044 17.2671 6.0406 17.267 6.04075L16.0418 10.148L16.0516 15.6314C16.0516 15.6317 16.0516 15.632 16.0516 15.6322C16.0593 18.4524 16.0632 19.8529 16.0782 20.5716C16.0783 20.5745 16.0783 20.5774 16.0784 20.5803C16.7557 20.5942 18.0209 20.5971 20.4516 20.6025L20.4516 20.6025C22.9759 20.6082 24.2456 20.6109 24.9114 20.5986ZM24.8682 9.95849C24.868 9.95714 24.868 9.95774 24.8684 9.9601L24.8682 9.95849Z" stroke="#D058B7" strokeWidth="2.51974"/>
<path d="M10.1237 21.0926C10.1231 21.1012 10.1229 21.1063 10.123 21.1067C10.123 21.1072 10.1233 21.1029 10.1237 21.0926ZM10.1304 20.595C10.1327 20.296 10.1345 19.8882 10.1357 19.3968C10.1382 18.3483 10.1382 16.9259 10.1357 15.3817C10.128 12.5869 10.1241 11.1994 10.1091 10.4872C10.109 10.4823 10.1089 10.4775 10.1088 10.4727C9.79766 10.4665 9.34009 10.4622 8.65455 10.4567C8.65445 10.4567 8.65435 10.4567 8.65425 10.4567L6.43473 10.4397L5.18786 10.4301L5.18456 9.18317L5.17433 5.31969L5.17433 5.31803L5.16223 2.26699L4.51351 2.25965C4.51328 2.25965 4.51305 2.25965 4.51281 2.25964C4.12773 2.25571 3.84564 2.25353 3.63031 2.25608C3.56138 2.47161 3.47387 2.75031 3.37173 3.0795C3.12768 3.86602 2.80409 4.92798 2.45963 6.07521C2.4596 6.0753 2.45958 6.07538 2.45955 6.07546L1.25965 10.0871L1.25965 15.5496C1.25965 18.3327 1.2597 19.7302 1.27225 20.4634C1.27313 20.5149 1.27407 20.5623 1.27505 20.6057C1.27593 20.6057 1.27682 20.6058 1.27771 20.6058C1.93103 20.6196 3.18136 20.6197 5.68706 20.6197C7.74243 20.6169 9.01029 20.6126 9.77941 20.6014C9.91294 20.5994 10.0293 20.5973 10.1304 20.595ZM3.7695 1.83435C3.77583 1.81875 3.7767 1.8151 3.77103 1.83021C3.77067 1.83117 3.77016 1.83255 3.7695 1.83435Z" stroke="#D058B7" strokeWidth="2.51974"/>
</svg>
